%TF.GenerationSoftware,KiCad,Pcbnew,(6.0.5)*%
%TF.CreationDate,2022-07-20T19:53:58-04:00*%
%TF.ProjectId,Clock,436c6f63-6b2e-46b6-9963-61645f706362,rev?*%
%TF.SameCoordinates,PX4c4b400PY8a48640*%
%TF.FileFunction,Paste,Top*%
%TF.FilePolarity,Positive*%
%FSLAX46Y46*%
G04 Gerber Fmt 4.6, Leading zero omitted, Abs format (unit mm)*
G04 Created by KiCad (PCBNEW (6.0.5)) date 2022-07-20 19:53:58*
%MOMM*%
%LPD*%
G01*
G04 APERTURE LIST*
%ADD10R,1.400000X1.150000*%
%ADD11R,1.000000X1.800000*%
%ADD12R,1.150000X1.400000*%
%ADD13R,3.050000X2.750000*%
%ADD14R,2.200000X1.200000*%
%ADD15R,2.000000X4.500000*%
%ADD16R,1.400000X1.600000*%
G04 APERTURE END LIST*
D10*
%TO.C,C7*%
X44500000Y26800000D03*
X44500000Y25100000D03*
%TD*%
D11*
%TO.C,Y2*%
X28468000Y53296000D03*
X30968000Y53296000D03*
%TD*%
D12*
%TO.C,R1*%
X85774000Y29557000D03*
X87474000Y29557000D03*
%TD*%
D10*
%TO.C,C8*%
X7100000Y21600000D03*
X7100000Y19900000D03*
%TD*%
%TO.C,C6*%
X81798000Y12500000D03*
X81798000Y10800000D03*
%TD*%
%TO.C,R9*%
X6800000Y32800000D03*
X6800000Y34500000D03*
%TD*%
%TO.C,C1*%
X100721000Y24096000D03*
X100721000Y22396000D03*
%TD*%
%TO.C,R6*%
X44200000Y30200000D03*
X44200000Y31900000D03*
%TD*%
D12*
%TO.C,C11*%
X101649000Y30319000D03*
X103349000Y30319000D03*
%TD*%
D10*
%TO.C,C3*%
X102200000Y10300000D03*
X102200000Y8600000D03*
%TD*%
D13*
%TO.C,U1*%
X109200000Y12350000D03*
X105850000Y12350000D03*
X105850000Y9300000D03*
X109200000Y9300000D03*
D14*
X113825000Y8545000D03*
X113825000Y13105000D03*
%TD*%
D10*
%TO.C,C10*%
X7000000Y26200000D03*
X7000000Y24500000D03*
%TD*%
D12*
%TO.C,C4*%
X92251000Y3903000D03*
X93951000Y3903000D03*
%TD*%
D10*
%TO.C,C9*%
X44700000Y21600000D03*
X44700000Y19900000D03*
%TD*%
%TO.C,R12*%
X38745000Y52368000D03*
X38745000Y54068000D03*
%TD*%
D15*
%TO.C,Y1*%
X81798000Y24790000D03*
X81798000Y16290000D03*
%TD*%
D10*
%TO.C,R11*%
X133350000Y76350000D03*
X133350000Y74650000D03*
%TD*%
%TO.C,R4*%
X48700000Y53800000D03*
X48700000Y52100000D03*
%TD*%
%TO.C,C5*%
X81290000Y28580000D03*
X81290000Y30280000D03*
%TD*%
%TO.C,R13*%
X40269000Y68165000D03*
X40269000Y66465000D03*
%TD*%
%TO.C,R5*%
X9400000Y47700000D03*
X9400000Y46000000D03*
%TD*%
D12*
%TO.C,R2*%
X115531000Y38066000D03*
X117231000Y38066000D03*
%TD*%
%TO.C,C12*%
X130650000Y25200000D03*
X132350000Y25200000D03*
%TD*%
D10*
%TO.C,C2*%
X116500000Y8500000D03*
X116500000Y6800000D03*
%TD*%
%TO.C,R8*%
X6900000Y28700000D03*
X6900000Y30400000D03*
%TD*%
D16*
%TO.C,SW2*%
X107888000Y25366000D03*
X107888000Y17366000D03*
X103388000Y25366000D03*
X103388000Y17366000D03*
%TD*%
D12*
%TO.C,R10*%
X113382000Y22826000D03*
X111682000Y22826000D03*
%TD*%
D10*
%TO.C,R7*%
X44200000Y34000000D03*
X44200000Y35700000D03*
%TD*%
D12*
%TO.C,R3*%
X117954000Y41114000D03*
X116254000Y41114000D03*
%TD*%
M02*
