%TF.GenerationSoftware,KiCad,Pcbnew,(6.0.5)*%
%TF.CreationDate,2022-07-19T21:39:33-04:00*%
%TF.ProjectId,Clock,436c6f63-6b2e-46b6-9963-61645f706362,rev?*%
%TF.SameCoordinates,PX4c4b400PY8a48640*%
%TF.FileFunction,Soldermask,Top*%
%TF.FilePolarity,Negative*%
%FSLAX46Y46*%
G04 Gerber Fmt 4.6, Leading zero omitted, Abs format (unit mm)*
G04 Created by KiCad (PCBNEW (6.0.5)) date 2022-07-19 21:39:33*
%MOMM*%
%LPD*%
G01*
G04 APERTURE LIST*
G04 Aperture macros list*
%AMRoundRect*
0 Rectangle with rounded corners*
0 $1 Rounding radius*
0 $2 $3 $4 $5 $6 $7 $8 $9 X,Y pos of 4 corners*
0 Add a 4 corners polygon primitive as box body*
4,1,4,$2,$3,$4,$5,$6,$7,$8,$9,$2,$3,0*
0 Add four circle primitives for the rounded corners*
1,1,$1+$1,$2,$3*
1,1,$1+$1,$4,$5*
1,1,$1+$1,$6,$7*
1,1,$1+$1,$8,$9*
0 Add four rect primitives between the rounded corners*
20,1,$1+$1,$2,$3,$4,$5,0*
20,1,$1+$1,$4,$5,$6,$7,0*
20,1,$1+$1,$6,$7,$8,$9,0*
20,1,$1+$1,$8,$9,$2,$3,0*%
G04 Aperture macros list end*
%ADD10R,1.000000X1.800000*%
%ADD11R,1.150000X1.400000*%
%ADD12C,3.200000*%
%ADD13R,1.600000X1.600000*%
%ADD14O,1.600000X1.600000*%
%ADD15R,1.400000X1.150000*%
%ADD16R,2.000000X2.000000*%
%ADD17C,2.000000*%
%ADD18C,1.524000*%
%ADD19R,2.000000X4.500000*%
%ADD20C,3.000000*%
%ADD21R,1.800000X2.600000*%
%ADD22O,1.800000X2.600000*%
%ADD23C,1.440000*%
%ADD24R,1.050000X1.500000*%
%ADD25O,1.050000X1.500000*%
%ADD26RoundRect,0.500000X0.500000X-1.750000X0.500000X1.750000X-0.500000X1.750000X-0.500000X-1.750000X0*%
%ADD27RoundRect,0.500000X1.500000X0.500000X-1.500000X0.500000X-1.500000X-0.500000X1.500000X-0.500000X0*%
%ADD28R,3.000000X3.000000*%
%ADD29R,1.700000X1.700000*%
%ADD30O,1.700000X1.700000*%
G04 APERTURE END LIST*
D10*
%TO.C,Y2*%
X28468000Y53296000D03*
X30968000Y53296000D03*
%TD*%
D11*
%TO.C,R1*%
X85774000Y29557000D03*
X87474000Y29557000D03*
%TD*%
D12*
%TO.C,H4*%
X135000000Y5000000D03*
%TD*%
D13*
%TO.C,U5*%
X75453000Y47200000D03*
D14*
X72913000Y47200000D03*
X70373000Y47200000D03*
X67833000Y47200000D03*
X65293000Y47200000D03*
X62753000Y47200000D03*
X60213000Y47200000D03*
X57673000Y47200000D03*
X55133000Y47200000D03*
X52593000Y47200000D03*
X50053000Y47200000D03*
X47513000Y47200000D03*
X47513000Y39580000D03*
X50053000Y39580000D03*
X52593000Y39580000D03*
X55133000Y39580000D03*
X57673000Y39580000D03*
X60213000Y39580000D03*
X62753000Y39580000D03*
X65293000Y39580000D03*
X67833000Y39580000D03*
X70373000Y39580000D03*
X72913000Y39580000D03*
X75453000Y39580000D03*
%TD*%
D15*
%TO.C,C6*%
X81798000Y12500000D03*
X81798000Y10800000D03*
%TD*%
D12*
%TO.C,SW1*%
X128500000Y46200000D03*
X128500000Y35000000D03*
D16*
X121000000Y43100000D03*
D17*
X121000000Y38100000D03*
X121000000Y40600000D03*
X135500000Y38100000D03*
X135500000Y43100000D03*
%TD*%
D18*
%TO.C,D2*%
X14618000Y29176000D03*
X14618000Y26636000D03*
X14618000Y24096000D03*
X14618000Y21556000D03*
X14618000Y19016000D03*
X14618000Y16476000D03*
X14618000Y13936000D03*
X14618000Y11396000D03*
X38618000Y11396000D03*
X38618000Y13936000D03*
X38618000Y16476000D03*
X38618000Y19016000D03*
X38618000Y21556000D03*
X38618000Y24096000D03*
X38618000Y26636000D03*
X38618000Y29176000D03*
%TD*%
D17*
%TO.C,A_TP1*%
X116215000Y46321000D03*
%TD*%
D15*
%TO.C,C3*%
X101102000Y9706000D03*
X101102000Y8006000D03*
%TD*%
D11*
%TO.C,C4*%
X92251000Y3903000D03*
X93951000Y3903000D03*
%TD*%
D17*
%TO.C,DO_TP1*%
X83600000Y3900000D03*
%TD*%
D15*
%TO.C,R12*%
X38745000Y52368000D03*
X38745000Y54068000D03*
%TD*%
D19*
%TO.C,Y1*%
X81798000Y24790000D03*
X81798000Y16290000D03*
%TD*%
D17*
%TO.C,TX_TP1*%
X110100000Y37500000D03*
%TD*%
%TO.C,VCC_TP1*%
X103515000Y3395000D03*
%TD*%
D15*
%TO.C,C5*%
X81290000Y28580000D03*
X81290000Y30280000D03*
%TD*%
D13*
%TO.C,U6*%
X40396000Y47210000D03*
D14*
X37856000Y47210000D03*
X35316000Y47210000D03*
X32776000Y47210000D03*
X30236000Y47210000D03*
X27696000Y47210000D03*
X25156000Y47210000D03*
X22616000Y47210000D03*
X20076000Y47210000D03*
X17536000Y47210000D03*
X14996000Y47210000D03*
X12456000Y47210000D03*
X12456000Y39590000D03*
X14996000Y39590000D03*
X17536000Y39590000D03*
X20076000Y39590000D03*
X22616000Y39590000D03*
X25156000Y39590000D03*
X27696000Y39590000D03*
X30236000Y39590000D03*
X32776000Y39590000D03*
X35316000Y39590000D03*
X37856000Y39590000D03*
X40396000Y39590000D03*
%TD*%
D12*
%TO.C,H2*%
X135000000Y85000000D03*
%TD*%
%TO.C,H3*%
X5000000Y5000000D03*
%TD*%
D17*
%TO.C,RX_TP1*%
X110000000Y32700000D03*
%TD*%
%TO.C,B_TP1*%
X117866000Y34383000D03*
%TD*%
D15*
%TO.C,R13*%
X40269000Y68165000D03*
X40269000Y66465000D03*
%TD*%
D12*
%TO.C,H1*%
X5000000Y85000000D03*
%TD*%
D20*
%TO.C,DS1*%
X127680000Y84157500D03*
X52680900Y53156800D03*
X52680900Y84157500D03*
X127679480Y53156800D03*
D21*
X58180000Y84157500D03*
D22*
X60720000Y84157500D03*
X63260000Y84157500D03*
X65800000Y84157500D03*
X68340000Y84157500D03*
X70880000Y84157500D03*
X73420000Y84157500D03*
X75960000Y84157500D03*
X78500000Y84157500D03*
X81040000Y84157500D03*
X83580000Y84157500D03*
X86120000Y84157500D03*
X88660000Y84157500D03*
X91200000Y84157500D03*
X93740000Y84157500D03*
X96280000Y84157500D03*
%TD*%
D11*
%TO.C,R2*%
X115531000Y38066000D03*
X117231000Y38066000D03*
%TD*%
D13*
%TO.C,U4*%
X28458000Y56862000D03*
D14*
X30998000Y56862000D03*
X33538000Y56862000D03*
X36078000Y56862000D03*
X36078000Y64482000D03*
X33538000Y64482000D03*
X30998000Y64482000D03*
X28458000Y64482000D03*
%TD*%
D23*
%TO.C,RV1*%
X41158000Y77944000D03*
X43698000Y80484000D03*
X41158000Y83024000D03*
%TD*%
D17*
%TO.C,VBAT_TP1*%
X22235000Y83532000D03*
%TD*%
%TO.C,TP_GND1*%
X121300000Y3400000D03*
%TD*%
D15*
%TO.C,C2*%
X127010000Y13516000D03*
X127010000Y11816000D03*
%TD*%
D13*
%TO.C,U2*%
X90444000Y42628000D03*
D14*
X90444000Y40088000D03*
X90444000Y37548000D03*
X90444000Y35008000D03*
X90444000Y32468000D03*
X90444000Y29928000D03*
X90444000Y27388000D03*
X90444000Y24848000D03*
X90444000Y22308000D03*
X90444000Y19768000D03*
X90444000Y17228000D03*
X90444000Y14688000D03*
X90444000Y12148000D03*
X90444000Y9608000D03*
X98064000Y9608000D03*
X98064000Y12148000D03*
X98064000Y14688000D03*
X98064000Y17228000D03*
X98064000Y19768000D03*
X98064000Y22308000D03*
X98064000Y24848000D03*
X98064000Y27388000D03*
X98064000Y29928000D03*
X98064000Y32468000D03*
X98064000Y35008000D03*
X98064000Y37548000D03*
X98064000Y40088000D03*
X98064000Y42628000D03*
%TD*%
D24*
%TO.C,U3*%
X104150000Y12920000D03*
D25*
X105420000Y12920000D03*
X106690000Y12920000D03*
%TD*%
D11*
%TO.C,R3*%
X117954000Y41114000D03*
X116254000Y41114000D03*
%TD*%
D18*
%TO.C,D1*%
X50240000Y29176000D03*
X50240000Y26636000D03*
X50240000Y24096000D03*
X50240000Y21556000D03*
X50240000Y19016000D03*
X50240000Y16476000D03*
X50240000Y13936000D03*
X50240000Y11396000D03*
X74240000Y11396000D03*
X74240000Y13936000D03*
X74240000Y16476000D03*
X74240000Y19016000D03*
X74240000Y21556000D03*
X74240000Y24096000D03*
X74240000Y26636000D03*
X74240000Y29176000D03*
%TD*%
D26*
%TO.C,J1*%
X124287000Y15460000D03*
D27*
X121987000Y10160000D03*
X118287000Y12660000D03*
%TD*%
D28*
%TO.C,BT1*%
X14900000Y84800000D03*
D20*
X14900000Y64310000D03*
%TD*%
D29*
%TO.C,J2*%
X106690000Y43273000D03*
D30*
X106690000Y40733000D03*
X106690000Y38193000D03*
X106690000Y35653000D03*
X106690000Y33113000D03*
X106690000Y30573000D03*
%TD*%
M02*
