%TF.GenerationSoftware,KiCad,Pcbnew,(6.0.5)*%
%TF.CreationDate,2022-07-19T21:39:33-04:00*%
%TF.ProjectId,Clock,436c6f63-6b2e-46b6-9963-61645f706362,rev?*%
%TF.SameCoordinates,PX4c4b400PY8a48640*%
%TF.FileFunction,Soldermask,Bot*%
%TF.FilePolarity,Negative*%
%FSLAX46Y46*%
G04 Gerber Fmt 4.6, Leading zero omitted, Abs format (unit mm)*
G04 Created by KiCad (PCBNEW (6.0.5)) date 2022-07-19 21:39:33*
%MOMM*%
%LPD*%
G01*
G04 APERTURE LIST*
G04 Aperture macros list*
%AMRoundRect*
0 Rectangle with rounded corners*
0 $1 Rounding radius*
0 $2 $3 $4 $5 $6 $7 $8 $9 X,Y pos of 4 corners*
0 Add a 4 corners polygon primitive as box body*
4,1,4,$2,$3,$4,$5,$6,$7,$8,$9,$2,$3,0*
0 Add four circle primitives for the rounded corners*
1,1,$1+$1,$2,$3*
1,1,$1+$1,$4,$5*
1,1,$1+$1,$6,$7*
1,1,$1+$1,$8,$9*
0 Add four rect primitives between the rounded corners*
20,1,$1+$1,$2,$3,$4,$5,0*
20,1,$1+$1,$4,$5,$6,$7,0*
20,1,$1+$1,$6,$7,$8,$9,0*
20,1,$1+$1,$8,$9,$2,$3,0*%
G04 Aperture macros list end*
%ADD10C,3.200000*%
%ADD11R,1.600000X1.600000*%
%ADD12O,1.600000X1.600000*%
%ADD13R,2.000000X2.000000*%
%ADD14C,2.000000*%
%ADD15C,1.524000*%
%ADD16C,3.000000*%
%ADD17R,1.800000X2.600000*%
%ADD18O,1.800000X2.600000*%
%ADD19C,1.440000*%
%ADD20R,1.050000X1.500000*%
%ADD21O,1.050000X1.500000*%
%ADD22R,1.400000X1.150000*%
%ADD23R,1.150000X1.400000*%
%ADD24RoundRect,0.500000X0.500000X-1.750000X0.500000X1.750000X-0.500000X1.750000X-0.500000X-1.750000X0*%
%ADD25RoundRect,0.500000X1.500000X0.500000X-1.500000X0.500000X-1.500000X-0.500000X1.500000X-0.500000X0*%
%ADD26R,3.000000X3.000000*%
%ADD27R,1.400000X1.600000*%
%ADD28R,1.700000X1.700000*%
%ADD29O,1.700000X1.700000*%
G04 APERTURE END LIST*
%TO.C,G\u002A\u002A\u002A*%
G36*
X121914426Y63328143D02*
G01*
X121908228Y62939959D01*
X121889207Y62662813D01*
X121850808Y62454605D01*
X121786474Y62273233D01*
X121689649Y62076593D01*
X121655475Y62014828D01*
X121375293Y61620291D01*
X121009754Y61232225D01*
X120610438Y60900169D01*
X120228923Y60673662D01*
X120023349Y60586289D01*
X119724618Y60477227D01*
X119419339Y60394242D01*
X119080305Y60333945D01*
X118680305Y60292947D01*
X118192131Y60267858D01*
X117588572Y60255290D01*
X116842420Y60251854D01*
X116604872Y60251831D01*
X116022685Y60250966D01*
X115583357Y60247527D01*
X115266782Y60239740D01*
X115052853Y60225829D01*
X114921464Y60204020D01*
X114852509Y60172538D01*
X114825880Y60129608D01*
X114821472Y60073454D01*
X114821323Y60054333D01*
X114813738Y60007130D01*
X114781345Y59970738D01*
X114706009Y59944124D01*
X114569596Y59926257D01*
X114353972Y59916104D01*
X114041003Y59912632D01*
X113612556Y59914808D01*
X113050496Y59921601D01*
X112336690Y59931977D01*
X111961196Y59937729D01*
X111309081Y59949341D01*
X110792652Y59962177D01*
X110388941Y59977938D01*
X110074980Y59998327D01*
X109827800Y60025047D01*
X109624432Y60059799D01*
X109441907Y60104286D01*
X109257258Y60160210D01*
X108926371Y60276019D01*
X108609754Y60403386D01*
X108386522Y60511197D01*
X108110435Y60670873D01*
X108110435Y60187079D01*
X108120562Y59987781D01*
X108240674Y59408192D01*
X108480386Y58782530D01*
X108819700Y58139156D01*
X109238618Y57506429D01*
X109717142Y56912708D01*
X110235273Y56386354D01*
X110773015Y55955725D01*
X111310369Y55649181D01*
X111467511Y55582830D01*
X112314028Y55315676D01*
X113253991Y55148267D01*
X114250055Y55081578D01*
X115264870Y55116583D01*
X116261089Y55254255D01*
X117201363Y55495569D01*
X117775998Y55708990D01*
X118421028Y56033257D01*
X119031034Y56450161D01*
X119657684Y56991165D01*
X120024278Y57357714D01*
X120633186Y58088240D01*
X121159886Y58901803D01*
X121611898Y59814585D01*
X121996745Y60842766D01*
X122321947Y62002527D01*
X122595027Y63310048D01*
X122641547Y63638595D01*
X122690249Y64159857D01*
X122730856Y64790588D01*
X122762658Y65497980D01*
X122784949Y66249224D01*
X122797020Y67011511D01*
X122798163Y67752035D01*
X122787670Y68437986D01*
X122764832Y69036556D01*
X122728942Y69514937D01*
X122723476Y69566501D01*
X122515122Y70997844D01*
X122209339Y72336185D01*
X121810749Y73567161D01*
X121323979Y74676411D01*
X120753652Y75649571D01*
X120489862Y76016668D01*
X119853898Y76743157D01*
X119135857Y77354022D01*
X118317116Y77861679D01*
X117379048Y78278547D01*
X116303029Y78617045D01*
X116141760Y78659191D01*
X115779794Y78748089D01*
X115468204Y78810335D01*
X115162936Y78850837D01*
X114819940Y78874505D01*
X114395162Y78886245D01*
X113844549Y78890967D01*
X113465659Y78890921D01*
X112901825Y78880478D01*
X112449572Y78854591D01*
X112071787Y78810718D01*
X111731353Y78746319D01*
X111587391Y78712813D01*
X110708606Y78474224D01*
X109753467Y78165298D01*
X108777285Y77806168D01*
X107835371Y77416971D01*
X106983038Y77017839D01*
X106914347Y76983518D01*
X106645104Y76854740D01*
X106450009Y76770601D01*
X106367393Y76747907D01*
X106344347Y76827216D01*
X106297756Y77035325D01*
X106236249Y77330887D01*
X106167873Y77672921D01*
X106100680Y78020444D01*
X106042718Y78332473D01*
X106002038Y78568027D01*
X105986690Y78686123D01*
X105987236Y78691051D01*
X106073157Y78782561D01*
X106287455Y78924592D01*
X106604022Y79103117D01*
X106996750Y79304110D01*
X107439530Y79513544D01*
X107906252Y79717392D01*
X108126600Y79807355D01*
X109078547Y80154156D01*
X110077143Y80457809D01*
X111083912Y80709477D01*
X112060378Y80900320D01*
X112968066Y81021498D01*
X113768500Y81064172D01*
X114849425Y81033795D01*
X116235990Y80896669D01*
X117531924Y80652076D01*
X118721114Y80303257D01*
X119787449Y79853454D01*
X120870173Y79232673D01*
X121928989Y78440869D01*
X122877281Y77523139D01*
X123713015Y76482783D01*
X124434157Y75323103D01*
X125038674Y74047399D01*
X125524530Y72658972D01*
X125889693Y71161123D01*
X126132127Y69557152D01*
X126135903Y69520840D01*
X126163736Y69114400D01*
X126182205Y68562129D01*
X126191010Y67885405D01*
X126189852Y67105606D01*
X126178434Y66244109D01*
X126168557Y65748834D01*
X126149918Y65035266D01*
X126125567Y64439465D01*
X126091921Y63928780D01*
X126045397Y63470559D01*
X125982413Y63032149D01*
X125899384Y62580899D01*
X125792729Y62084158D01*
X125658864Y61509273D01*
X125507176Y60935476D01*
X125091749Y59735249D01*
X124561965Y58581500D01*
X123932393Y57497886D01*
X123217604Y56508060D01*
X122432167Y55635676D01*
X121590650Y54904389D01*
X121040327Y54526957D01*
X120124360Y54021875D01*
X119120446Y53591801D01*
X118073932Y53255361D01*
X117030168Y53031183D01*
X117013818Y53028770D01*
X116768212Y53007838D01*
X116391256Y52992212D01*
X115917870Y52982629D01*
X115382969Y52979827D01*
X114821472Y52984544D01*
X114237984Y52995926D01*
X113715555Y53013566D01*
X113301290Y53038997D01*
X112962562Y53074961D01*
X112666746Y53124195D01*
X112381213Y53189440D01*
X112343928Y53199037D01*
X111278957Y53562437D01*
X110265593Y54080595D01*
X109323595Y54741661D01*
X108472717Y55533785D01*
X107801744Y56250937D01*
X107048562Y53371095D01*
X106262776Y53371006D01*
X105476991Y53370918D01*
X105476991Y63777272D01*
X108241029Y63777272D01*
X108243670Y63574157D01*
X108323294Y62858258D01*
X108518755Y62262174D01*
X108837321Y61777057D01*
X109286257Y61394056D01*
X109872829Y61104322D01*
X110604305Y60899006D01*
X110863674Y60856858D01*
X111238974Y60816580D01*
X111662499Y60786033D01*
X112098028Y60766328D01*
X112509339Y60758578D01*
X112860209Y60763897D01*
X113114418Y60783395D01*
X113235742Y60818186D01*
X113239068Y60825718D01*
X113253300Y60956950D01*
X113260010Y61101353D01*
X116095720Y61101353D01*
X117093880Y61106250D01*
X117819587Y61133853D01*
X118526842Y61229101D01*
X119104594Y61398420D01*
X119568231Y61648266D01*
X119933144Y61985094D01*
X120214721Y62415360D01*
X120246524Y62478211D01*
X120364667Y62740717D01*
X120432344Y62979543D01*
X120462932Y63259110D01*
X120469806Y63643841D01*
X120449957Y64072225D01*
X120338544Y64630174D01*
X120116380Y65106623D01*
X119769071Y65540528D01*
X119555690Y65736173D01*
X119268906Y65923717D01*
X118931871Y66055770D01*
X118515089Y66140268D01*
X117989066Y66185147D01*
X117324306Y66198342D01*
X116095720Y66198342D01*
X116095720Y61101353D01*
X113260010Y61101353D01*
X113266051Y61231372D01*
X113276827Y61627146D01*
X113285136Y62122435D01*
X113290483Y62695401D01*
X113292375Y63324206D01*
X113292375Y65773593D01*
X109037161Y65773593D01*
X108823145Y65559577D01*
X108662012Y65375227D01*
X108425046Y64951443D01*
X108287256Y64426560D01*
X108241029Y63777272D01*
X105476991Y63777272D01*
X105476991Y66962891D01*
X116095720Y66962891D01*
X117433679Y66970116D01*
X117964215Y66977918D01*
X118544415Y67005566D01*
X119009889Y67057830D01*
X119391741Y67140051D01*
X119721075Y67257569D01*
X120028994Y67415724D01*
X120349663Y67642111D01*
X120666608Y68008350D01*
X120895381Y68491977D01*
X120991551Y68813499D01*
X121086574Y69490530D01*
X121041900Y70146166D01*
X120865760Y70757002D01*
X120566388Y71299639D01*
X120152015Y71750673D01*
X119630873Y72086702D01*
X119460000Y72165099D01*
X119227362Y72257395D01*
X118991458Y72325139D01*
X118718965Y72373775D01*
X118376561Y72408745D01*
X117930924Y72435492D01*
X117348730Y72459459D01*
X116095720Y72505655D01*
X116095720Y66962891D01*
X105476991Y66962891D01*
X105476991Y67557540D01*
X108208624Y67557540D01*
X107909291Y67907243D01*
X107880555Y67941329D01*
X107628888Y68308746D01*
X107463776Y68717648D01*
X107373387Y69208222D01*
X107353900Y69642201D01*
X108807569Y69642201D01*
X108851072Y69261899D01*
X108977176Y68690735D01*
X109180957Y68205883D01*
X109472249Y67809589D01*
X109707698Y67557540D01*
X113292375Y67557540D01*
X113292375Y72245029D01*
X111987943Y72216167D01*
X111597133Y72207085D01*
X111203573Y72193651D01*
X110916256Y72172814D01*
X110698976Y72138301D01*
X110515531Y72083840D01*
X110329713Y72003158D01*
X110105319Y71889981D01*
X109654752Y71619864D01*
X109309738Y71302608D01*
X109070804Y70914942D01*
X108905151Y70416602D01*
X108883557Y70326860D01*
X108816873Y69964638D01*
X108807569Y69642201D01*
X107353900Y69642201D01*
X107345887Y69820657D01*
X107347267Y69964123D01*
X107397956Y70590346D01*
X107531697Y71107044D01*
X107762222Y71553142D01*
X108103263Y71967567D01*
X108481934Y72302442D01*
X109082582Y72667646D01*
X109809432Y72945493D01*
X109920083Y72975347D01*
X110122611Y73014258D01*
X110376003Y73042973D01*
X110704058Y73062749D01*
X111130573Y73074845D01*
X111679346Y73080516D01*
X112374177Y73081022D01*
X112719311Y73080523D01*
X113301106Y73081695D01*
X113742826Y73086805D01*
X114064426Y73097075D01*
X114285861Y73113726D01*
X114427086Y73137981D01*
X114508058Y73171063D01*
X114548732Y73214192D01*
X114554207Y73223110D01*
X114596678Y73261351D01*
X114678436Y73290361D01*
X114818132Y73310868D01*
X115034418Y73323599D01*
X115345947Y73329283D01*
X115771369Y73328645D01*
X116329337Y73322415D01*
X117038502Y73311320D01*
X117807828Y73296644D01*
X118443473Y73278675D01*
X118956773Y73254291D01*
X119371678Y73220158D01*
X119712141Y73172941D01*
X120002114Y73109308D01*
X120265548Y73025924D01*
X120526397Y72919455D01*
X120808611Y72786568D01*
X120981474Y72689537D01*
X121371658Y72398617D01*
X121753108Y72032924D01*
X122077526Y71641565D01*
X122296613Y71273648D01*
X122307414Y71248602D01*
X122431167Y70871811D01*
X122535906Y70400802D01*
X122608599Y69905354D01*
X122634050Y69490530D01*
X122636215Y69455242D01*
X122599454Y69083633D01*
X122469784Y68582068D01*
X122271106Y68093282D01*
X122029187Y67692116D01*
X121753639Y67383515D01*
X121366859Y67048215D01*
X120960193Y66776826D01*
X120587742Y66609964D01*
X120514023Y66586236D01*
X120331379Y66509028D01*
X120258261Y66446674D01*
X120264285Y66429800D01*
X120363287Y66331927D01*
X120545285Y66204709D01*
X120791878Y66022278D01*
X121141850Y65685858D01*
X121468037Y65296105D01*
X121717611Y64911303D01*
X121730953Y64886055D01*
X121812506Y64709307D01*
X121865900Y64525181D01*
X121896901Y64293066D01*
X121911274Y63972350D01*
X121913836Y63643841D01*
X121914783Y63522423D01*
X121914426Y63328143D01*
G37*
%TD*%
D10*
%TO.C,H4*%
X135000000Y5000000D03*
%TD*%
D11*
%TO.C,U5*%
X75453000Y47200000D03*
D12*
X72913000Y47200000D03*
X70373000Y47200000D03*
X67833000Y47200000D03*
X65293000Y47200000D03*
X62753000Y47200000D03*
X60213000Y47200000D03*
X57673000Y47200000D03*
X55133000Y47200000D03*
X52593000Y47200000D03*
X50053000Y47200000D03*
X47513000Y47200000D03*
X47513000Y39580000D03*
X50053000Y39580000D03*
X52593000Y39580000D03*
X55133000Y39580000D03*
X57673000Y39580000D03*
X60213000Y39580000D03*
X62753000Y39580000D03*
X65293000Y39580000D03*
X67833000Y39580000D03*
X70373000Y39580000D03*
X72913000Y39580000D03*
X75453000Y39580000D03*
%TD*%
D10*
%TO.C,SW1*%
X128500000Y46200000D03*
X128500000Y35000000D03*
D13*
X121000000Y43100000D03*
D14*
X121000000Y38100000D03*
X121000000Y40600000D03*
X135500000Y38100000D03*
X135500000Y43100000D03*
%TD*%
D15*
%TO.C,D2*%
X14618000Y29176000D03*
X14618000Y26636000D03*
X14618000Y24096000D03*
X14618000Y21556000D03*
X14618000Y19016000D03*
X14618000Y16476000D03*
X14618000Y13936000D03*
X14618000Y11396000D03*
X38618000Y11396000D03*
X38618000Y13936000D03*
X38618000Y16476000D03*
X38618000Y19016000D03*
X38618000Y21556000D03*
X38618000Y24096000D03*
X38618000Y26636000D03*
X38618000Y29176000D03*
%TD*%
D14*
%TO.C,A_TP1*%
X116215000Y46321000D03*
%TD*%
%TO.C,DO_TP1*%
X83600000Y3900000D03*
%TD*%
%TO.C,TX_TP1*%
X110100000Y37500000D03*
%TD*%
%TO.C,VCC_TP1*%
X103515000Y3395000D03*
%TD*%
D11*
%TO.C,U6*%
X40396000Y47210000D03*
D12*
X37856000Y47210000D03*
X35316000Y47210000D03*
X32776000Y47210000D03*
X30236000Y47210000D03*
X27696000Y47210000D03*
X25156000Y47210000D03*
X22616000Y47210000D03*
X20076000Y47210000D03*
X17536000Y47210000D03*
X14996000Y47210000D03*
X12456000Y47210000D03*
X12456000Y39590000D03*
X14996000Y39590000D03*
X17536000Y39590000D03*
X20076000Y39590000D03*
X22616000Y39590000D03*
X25156000Y39590000D03*
X27696000Y39590000D03*
X30236000Y39590000D03*
X32776000Y39590000D03*
X35316000Y39590000D03*
X37856000Y39590000D03*
X40396000Y39590000D03*
%TD*%
D10*
%TO.C,H2*%
X135000000Y85000000D03*
%TD*%
%TO.C,H3*%
X5000000Y5000000D03*
%TD*%
D14*
%TO.C,RX_TP1*%
X110000000Y32700000D03*
%TD*%
%TO.C,B_TP1*%
X117866000Y34383000D03*
%TD*%
D10*
%TO.C,H1*%
X5000000Y85000000D03*
%TD*%
D16*
%TO.C,DS1*%
X127680000Y84157500D03*
X52680900Y53156800D03*
X52680900Y84157500D03*
X127679480Y53156800D03*
D17*
X58180000Y84157500D03*
D18*
X60720000Y84157500D03*
X63260000Y84157500D03*
X65800000Y84157500D03*
X68340000Y84157500D03*
X70880000Y84157500D03*
X73420000Y84157500D03*
X75960000Y84157500D03*
X78500000Y84157500D03*
X81040000Y84157500D03*
X83580000Y84157500D03*
X86120000Y84157500D03*
X88660000Y84157500D03*
X91200000Y84157500D03*
X93740000Y84157500D03*
X96280000Y84157500D03*
%TD*%
D11*
%TO.C,U4*%
X28458000Y56862000D03*
D12*
X30998000Y56862000D03*
X33538000Y56862000D03*
X36078000Y56862000D03*
X36078000Y64482000D03*
X33538000Y64482000D03*
X30998000Y64482000D03*
X28458000Y64482000D03*
%TD*%
D19*
%TO.C,RV1*%
X41158000Y77944000D03*
X43698000Y80484000D03*
X41158000Y83024000D03*
%TD*%
D14*
%TO.C,VBAT_TP1*%
X22235000Y83532000D03*
%TD*%
%TO.C,TP_GND1*%
X121300000Y3400000D03*
%TD*%
D11*
%TO.C,U2*%
X90444000Y42628000D03*
D12*
X90444000Y40088000D03*
X90444000Y37548000D03*
X90444000Y35008000D03*
X90444000Y32468000D03*
X90444000Y29928000D03*
X90444000Y27388000D03*
X90444000Y24848000D03*
X90444000Y22308000D03*
X90444000Y19768000D03*
X90444000Y17228000D03*
X90444000Y14688000D03*
X90444000Y12148000D03*
X90444000Y9608000D03*
X98064000Y9608000D03*
X98064000Y12148000D03*
X98064000Y14688000D03*
X98064000Y17228000D03*
X98064000Y19768000D03*
X98064000Y22308000D03*
X98064000Y24848000D03*
X98064000Y27388000D03*
X98064000Y29928000D03*
X98064000Y32468000D03*
X98064000Y35008000D03*
X98064000Y37548000D03*
X98064000Y40088000D03*
X98064000Y42628000D03*
%TD*%
D20*
%TO.C,U3*%
X104150000Y12920000D03*
D21*
X105420000Y12920000D03*
X106690000Y12920000D03*
%TD*%
D15*
%TO.C,D1*%
X50240000Y29176000D03*
X50240000Y26636000D03*
X50240000Y24096000D03*
X50240000Y21556000D03*
X50240000Y19016000D03*
X50240000Y16476000D03*
X50240000Y13936000D03*
X50240000Y11396000D03*
X74240000Y11396000D03*
X74240000Y13936000D03*
X74240000Y16476000D03*
X74240000Y19016000D03*
X74240000Y21556000D03*
X74240000Y24096000D03*
X74240000Y26636000D03*
X74240000Y29176000D03*
%TD*%
D22*
%TO.C,C7*%
X62748000Y36288000D03*
X62748000Y34588000D03*
%TD*%
%TO.C,C8*%
X27696000Y37480000D03*
X27696000Y35780000D03*
%TD*%
%TO.C,R9*%
X24902000Y35858000D03*
X24902000Y37558000D03*
%TD*%
%TO.C,C1*%
X100721000Y24096000D03*
X100721000Y22396000D03*
%TD*%
%TO.C,R6*%
X60208000Y32517000D03*
X60208000Y34217000D03*
%TD*%
D23*
%TO.C,C11*%
X101649000Y30319000D03*
X103349000Y30319000D03*
%TD*%
D22*
%TO.C,C10*%
X27696000Y41700000D03*
X27696000Y43400000D03*
%TD*%
%TO.C,C9*%
X63002000Y42130000D03*
X63002000Y43830000D03*
%TD*%
D24*
%TO.C,J1*%
X124287000Y15460000D03*
D25*
X121987000Y10160000D03*
X118287000Y12660000D03*
%TD*%
D23*
%TO.C,R11*%
X96823000Y79722000D03*
X98523000Y79722000D03*
%TD*%
D22*
%TO.C,R4*%
X47508000Y45266000D03*
X47508000Y43566000D03*
%TD*%
D26*
%TO.C,BT1*%
X14900000Y84800000D03*
D16*
X14900000Y64310000D03*
%TD*%
D22*
%TO.C,R5*%
X12456000Y45354000D03*
X12456000Y43654000D03*
%TD*%
D23*
%TO.C,C12*%
X132250000Y27000000D03*
X133950000Y27000000D03*
%TD*%
D22*
%TO.C,R8*%
X24902000Y32390000D03*
X24902000Y34090000D03*
%TD*%
D27*
%TO.C,SW2*%
X103388000Y25366000D03*
X103388000Y17366000D03*
X107888000Y25366000D03*
X107888000Y17366000D03*
%TD*%
D23*
%TO.C,R10*%
X113382000Y22826000D03*
X111682000Y22826000D03*
%TD*%
D28*
%TO.C,J2*%
X106690000Y43273000D03*
D29*
X106690000Y40733000D03*
X106690000Y38193000D03*
X106690000Y35653000D03*
X106690000Y33113000D03*
X106690000Y30573000D03*
%TD*%
D22*
%TO.C,R7*%
X60208000Y36034000D03*
X60208000Y37734000D03*
%TD*%
M02*
