M48
; DRILL file {KiCad (6.0.5)} date Wed Jul 20 20:16:51 2022
; FORMAT={-:-/ absolute / inch / decimal}
; #@! TF.CreationDate,2022-07-20T20:16:51-04:00
; #@! TF.GenerationSoftware,Kicad,Pcbnew,(6.0.5)
; #@! TF.FileFunction,MixedPlating,1,2
FMAT,2
INCH
; #@! TA.AperFunction,Plated,PTH,ViaDrill
T1C0.0160
; #@! TA.AperFunction,Plated,PTH,ComponentDrill
T2C0.0300
; #@! TA.AperFunction,Plated,PTH,ComponentDrill
T3C0.0315
; #@! TA.AperFunction,Plated,PTH,ComponentDrill
T4C0.0394
; #@! TA.AperFunction,Plated,PTH,ComponentDrill
T5C0.0472
; #@! TA.AperFunction,Plated,PTH,ComponentDrill
T6C0.0591
; #@! TA.AperFunction,Plated,PTH,ComponentDrill
T7C0.0984
; #@! TA.AperFunction,Plated,PTH,ComponentDrill
T8C0.1024
; #@! TA.AperFunction,NonPlated,NPTH,ComponentDrill
T9C0.1260
%
G90
G05
T1
X0.2913Y0.7087
X0.3404Y1.9887
X0.3465Y0.9134
X0.3622Y1.7362
X0.4724Y1.1339
X0.5787Y1.311
X0.6224Y0.9837
X0.6575Y1.3031
X0.6732Y1.1969
X0.7004Y0.5687
X0.7304Y0.9987
X0.7504Y0.8587
X0.8404Y0.7887
X0.9504Y1.1687
X0.9724Y1.3976
X0.9904Y1.7087
X1.0104Y0.5187
X1.0906Y1.2205
X1.1204Y1.0887
X1.2204Y0.5287
X1.2904Y0.5687
X1.3004Y3.3387
X1.3204Y0.8887
X1.3404Y1.9887
X1.4354Y0.7337
X1.5054Y1.6437
X1.6004Y2.0087
X1.6104Y1.7687
X1.6604Y1.6587
X1.6604Y1.5287
X1.7404Y3.3987
X1.7404Y1.8287
X1.7598Y0.9252
X1.7638Y0.7047
X1.7704Y1.9387
X1.7804Y2.1787
X1.8425Y2.0748
X1.878Y1.1142
X1.9528Y1.2835
X2.0454Y0.9537
X2.0704Y1.0207
X2.1102Y1.1693
X2.122Y1.3071
X2.1404Y0.5687
X2.1704Y0.8787
X2.2304Y1.2387
X2.2804Y0.7787
X2.3661Y1.4331
X2.3854Y1.6887
X2.4004Y0.5087
X2.4803Y1.1299
X2.5236Y1.0669
X2.6254Y3.0837
X2.6304Y0.5787
X2.6704Y1.6687
X2.7404Y0.7487
X2.7804Y1.7687
X2.7904Y0.8687
X2.8404Y0.6887
X2.8504Y3.1887
X2.8804Y1.7187
X2.9754Y0.9363
X2.9924Y0.7677
X3.0157Y0.1811
X3.0404Y1.8687
X3.0504Y1.6187
X3.1954Y3.0637
X3.2004Y1.2537
X3.2304Y0.3537
X3.2354Y1.3387
X3.2854Y1.1137
X3.4094Y0.6969
X3.4252Y2.689
X3.4291Y2.9488
X3.4528Y1.6772
X3.4704Y1.4287
X3.4754Y1.2437
X3.4882Y1.5827
X3.5079Y2.4213
X3.5079Y2.2638
X3.6322Y1.6087
X3.6604Y0.7837
X3.6804Y0.2437
X3.7404Y2.1387
X3.7754Y0.1537
X3.7804Y2.4587
X3.9449Y0.2992
X3.9454Y1.9037
X3.9488Y0.8228
X3.9704Y2.9537
X4.0551Y0.2559
X4.0754Y1.3337
X4.0804Y1.5487
X4.4291Y0.8386
X4.4704Y1.7037
X4.4724Y0.2598
X4.7604Y1.0187
X5.0591Y0.9528
X5.2717Y2.7913
X5.2746Y1.063
X5.3354Y0.6987
T2
X0.5755Y1.1487
X0.5755Y1.0487
X0.5755Y0.9487
X0.5755Y0.8487
X0.5755Y0.7487
X0.5755Y0.6487
X0.5755Y0.5487
X0.5755Y0.4487
X1.5204Y1.1487
X1.5204Y1.0487
X1.5204Y0.9487
X1.5204Y0.8487
X1.5204Y0.7487
X1.5204Y0.6487
X1.5204Y0.5487
X1.5204Y0.4487
X1.978Y1.1487
X1.978Y1.0487
X1.978Y0.9487
X1.978Y0.8487
X1.978Y0.7487
X1.978Y0.6487
X1.978Y0.5487
X1.978Y0.4487
X2.9228Y1.1487
X2.9228Y1.0487
X2.9228Y0.9487
X2.9228Y0.8487
X2.9228Y0.7487
X2.9228Y0.6487
X2.9228Y0.5487
X2.9228Y0.4487
T3
X0.4904Y1.8587
X0.4904Y1.5587
X0.5904Y1.8587
X0.5904Y1.5587
X0.6904Y1.8587
X0.6904Y1.5587
X0.7904Y1.8587
X0.7904Y1.5587
X0.8904Y1.8587
X0.8904Y1.5587
X0.9904Y1.8587
X0.9904Y1.5587
X1.0904Y1.8587
X1.0904Y1.5587
X1.1204Y2.5387
X1.1204Y2.2387
X1.1904Y1.8587
X1.1904Y1.5587
X1.2204Y2.5387
X1.2204Y2.2387
X1.2904Y1.8587
X1.2904Y1.5587
X1.3204Y2.5387
X1.3204Y2.2387
X1.3904Y1.8587
X1.3904Y1.5587
X1.4204Y2.5387
X1.4204Y2.2387
X1.4904Y1.8587
X1.4904Y1.5587
X1.5904Y1.8587
X1.5904Y1.5587
X1.6204Y3.2687
X1.6204Y3.0687
X1.7204Y3.1687
X1.8706Y1.8583
X1.8706Y1.5583
X1.9706Y1.8583
X1.9706Y1.5583
X2.0706Y1.8583
X2.0706Y1.5583
X2.1706Y1.8583
X2.1706Y1.5583
X2.2706Y1.8583
X2.2706Y1.5583
X2.3706Y1.8583
X2.3706Y1.5583
X2.4706Y1.8583
X2.4706Y1.5583
X2.5706Y1.8583
X2.5706Y1.5583
X2.6706Y1.8583
X2.6706Y1.5583
X2.7706Y1.8583
X2.7706Y1.5583
X2.8706Y1.8583
X2.8706Y1.5583
X2.9706Y1.8583
X2.9706Y1.5583
X3.5608Y1.6783
X3.5608Y1.5783
X3.5608Y1.4783
X3.5608Y1.3783
X3.5608Y1.2783
X3.5608Y1.1783
X3.5608Y1.0783
X3.5608Y0.9783
X3.5608Y0.8783
X3.5608Y0.7783
X3.5608Y0.6783
X3.5608Y0.5783
X3.5608Y0.4783
X3.5608Y0.3783
X3.8608Y1.6783
X3.8608Y1.5783
X3.8608Y1.4783
X3.8608Y1.3783
X3.8608Y1.2783
X3.8608Y1.1783
X3.8608Y1.0783
X3.8608Y0.9783
X3.8608Y0.8783
X3.8608Y0.7783
X3.8608Y0.6783
X3.8608Y0.5783
X3.8608Y0.4783
X3.8608Y0.3783
T4
X0.8754Y3.2887
X3.2913Y0.1535
X4.0754Y0.1337
X4.2004Y1.7037
X4.2004Y1.6037
X4.2004Y1.5037
X4.2004Y1.4037
X4.2004Y1.3037
X4.2004Y1.2037
X4.3307Y1.2874
X4.3346Y1.4764
X4.5754Y1.8237
X4.6404Y1.3537
X4.7638Y1.6969
X4.7638Y1.5984
X4.7638Y1.5
X4.7756Y0.1339
X5.3346Y1.6969
X5.3346Y1.5
T5
X2.2906Y3.3133
X2.3906Y3.3133
X2.4906Y3.3133
X2.5906Y3.3133
X2.6906Y3.3133
X2.7906Y3.3133
X2.8906Y3.3133
X2.9906Y3.3133
X3.0906Y3.3133
X3.1906Y3.3133
X3.2906Y3.3133
X3.3906Y3.3133
X3.4906Y3.3133
X3.5906Y3.3133
X3.6906Y3.3133
X3.7906Y3.3133
T6
X0.5866Y3.3386
X0.5866Y2.5319
T7
X2.0741Y3.3133
X2.0741Y2.0928
X5.0268Y2.0928
X5.0268Y3.3133
T8
X5.0591Y1.8189
X5.0591Y1.378
T9
X0.1969Y3.3465
X0.1969Y0.1969
X5.315Y3.3465
X5.315Y0.1969
T4
G00X4.6654Y0.5689
M15
G01X4.6654Y0.4705
M16
G05
G00X4.7165Y0.7283
M15
G01X4.7953Y0.7283
M16
G05
G00X4.8622Y0.6299
M15
G01X4.9409Y0.6299
M16
G05
T0
M30
