%TF.GenerationSoftware,KiCad,Pcbnew,(6.0.5)*%
%TF.CreationDate,2022-07-20T19:53:58-04:00*%
%TF.ProjectId,Clock,436c6f63-6b2e-46b6-9963-61645f706362,rev?*%
%TF.SameCoordinates,PX4c4b400PY8a48640*%
%TF.FileFunction,Legend,Top*%
%TF.FilePolarity,Positive*%
%FSLAX46Y46*%
G04 Gerber Fmt 4.6, Leading zero omitted, Abs format (unit mm)*
G04 Created by KiCad (PCBNEW (6.0.5)) date 2022-07-20 19:53:58*
%MOMM*%
%LPD*%
G01*
G04 APERTURE LIST*
G04 Aperture macros list*
%AMRoundRect*
0 Rectangle with rounded corners*
0 $1 Rounding radius*
0 $2 $3 $4 $5 $6 $7 $8 $9 X,Y pos of 4 corners*
0 Add a 4 corners polygon primitive as box body*
4,1,4,$2,$3,$4,$5,$6,$7,$8,$9,$2,$3,0*
0 Add four circle primitives for the rounded corners*
1,1,$1+$1,$2,$3*
1,1,$1+$1,$4,$5*
1,1,$1+$1,$6,$7*
1,1,$1+$1,$8,$9*
0 Add four rect primitives between the rounded corners*
20,1,$1+$1,$2,$3,$4,$5,0*
20,1,$1+$1,$4,$5,$6,$7,0*
20,1,$1+$1,$6,$7,$8,$9,0*
20,1,$1+$1,$8,$9,$2,$3,0*%
G04 Aperture macros list end*
%ADD10C,0.150000*%
%ADD11C,0.120000*%
%ADD12R,1.400000X1.150000*%
%ADD13R,1.000000X1.800000*%
%ADD14R,1.150000X1.400000*%
%ADD15C,3.200000*%
%ADD16R,1.600000X1.600000*%
%ADD17O,1.600000X1.600000*%
%ADD18R,2.000000X2.000000*%
%ADD19C,2.000000*%
%ADD20C,1.524000*%
%ADD21R,2.200000X1.200000*%
%ADD22R,6.400000X5.800000*%
%ADD23R,2.000000X4.500000*%
%ADD24C,3.000000*%
%ADD25R,1.800000X2.600000*%
%ADD26O,1.800000X2.600000*%
%ADD27C,1.440000*%
%ADD28R,1.400000X1.600000*%
%ADD29RoundRect,0.500000X-0.500000X1.750000X-0.500000X-1.750000X0.500000X-1.750000X0.500000X1.750000X0*%
%ADD30RoundRect,0.500000X-1.500000X-0.500000X1.500000X-0.500000X1.500000X0.500000X-1.500000X0.500000X0*%
%ADD31R,3.000000X3.000000*%
%ADD32R,1.700000X1.700000*%
%ADD33O,1.700000X1.700000*%
G04 APERTURE END LIST*
D10*
%TO.C,C7*%
X42825142Y26252334D02*
X42872761Y26204715D01*
X42920380Y26061858D01*
X42920380Y25966620D01*
X42872761Y25823762D01*
X42777523Y25728524D01*
X42682285Y25680905D01*
X42491809Y25633286D01*
X42348952Y25633286D01*
X42158476Y25680905D01*
X42063238Y25728524D01*
X41968000Y25823762D01*
X41920380Y25966620D01*
X41920380Y26061858D01*
X41968000Y26204715D01*
X42015619Y26252334D01*
X41920380Y26585667D02*
X41920380Y27252334D01*
X42920380Y26823762D01*
%TO.C,Y2*%
X29241809Y55269810D02*
X29241809Y54793620D01*
X28908476Y55793620D02*
X29241809Y55269810D01*
X29575142Y55793620D01*
X29860857Y55698381D02*
X29908476Y55746000D01*
X30003714Y55793620D01*
X30241809Y55793620D01*
X30337047Y55746000D01*
X30384666Y55698381D01*
X30432285Y55603143D01*
X30432285Y55507905D01*
X30384666Y55365048D01*
X29813238Y54793620D01*
X30432285Y54793620D01*
%TO.C,R1*%
X86457333Y30754620D02*
X86124000Y31230810D01*
X85885904Y30754620D02*
X85885904Y31754620D01*
X86266857Y31754620D01*
X86362095Y31707000D01*
X86409714Y31659381D01*
X86457333Y31564143D01*
X86457333Y31421286D01*
X86409714Y31326048D01*
X86362095Y31278429D01*
X86266857Y31230810D01*
X85885904Y31230810D01*
X87409714Y30754620D02*
X86838285Y30754620D01*
X87124000Y30754620D02*
X87124000Y31754620D01*
X87028761Y31611762D01*
X86933523Y31516524D01*
X86838285Y31468905D01*
%TO.C,H4*%
X134238095Y8747620D02*
X134238095Y9747620D01*
X134238095Y9271429D02*
X134809523Y9271429D01*
X134809523Y8747620D02*
X134809523Y9747620D01*
X135714285Y9414286D02*
X135714285Y8747620D01*
X135476190Y9795239D02*
X135238095Y9080953D01*
X135857142Y9080953D01*
%TO.C,C8*%
X7076142Y17828334D02*
X7123761Y17780715D01*
X7171380Y17637858D01*
X7171380Y17542620D01*
X7123761Y17399762D01*
X7028523Y17304524D01*
X6933285Y17256905D01*
X6742809Y17209286D01*
X6599952Y17209286D01*
X6409476Y17256905D01*
X6314238Y17304524D01*
X6219000Y17399762D01*
X6171380Y17542620D01*
X6171380Y17637858D01*
X6219000Y17780715D01*
X6266619Y17828334D01*
X6599952Y18399762D02*
X6552333Y18304524D01*
X6504714Y18256905D01*
X6409476Y18209286D01*
X6361857Y18209286D01*
X6266619Y18256905D01*
X6219000Y18304524D01*
X6171380Y18399762D01*
X6171380Y18590239D01*
X6219000Y18685477D01*
X6266619Y18733096D01*
X6361857Y18780715D01*
X6409476Y18780715D01*
X6504714Y18733096D01*
X6552333Y18685477D01*
X6599952Y18590239D01*
X6599952Y18399762D01*
X6647571Y18304524D01*
X6695190Y18256905D01*
X6790428Y18209286D01*
X6980904Y18209286D01*
X7076142Y18256905D01*
X7123761Y18304524D01*
X7171380Y18399762D01*
X7171380Y18590239D01*
X7123761Y18685477D01*
X7076142Y18733096D01*
X6980904Y18780715D01*
X6790428Y18780715D01*
X6695190Y18733096D01*
X6647571Y18685477D01*
X6599952Y18590239D01*
%TO.C,U5*%
X77235380Y42628096D02*
X78044904Y42628096D01*
X78140142Y42675715D01*
X78187761Y42723334D01*
X78235380Y42818572D01*
X78235380Y43009048D01*
X78187761Y43104286D01*
X78140142Y43151905D01*
X78044904Y43199524D01*
X77235380Y43199524D01*
X77235380Y44151905D02*
X77235380Y43675715D01*
X77711571Y43628096D01*
X77663952Y43675715D01*
X77616333Y43770953D01*
X77616333Y44009048D01*
X77663952Y44104286D01*
X77711571Y44151905D01*
X77806809Y44199524D01*
X78044904Y44199524D01*
X78140142Y44151905D01*
X78187761Y44104286D01*
X78235380Y44009048D01*
X78235380Y43770953D01*
X78187761Y43675715D01*
X78140142Y43628096D01*
%TO.C,C6*%
X83805142Y11483334D02*
X83852761Y11435715D01*
X83900380Y11292858D01*
X83900380Y11197620D01*
X83852761Y11054762D01*
X83757523Y10959524D01*
X83662285Y10911905D01*
X83471809Y10864286D01*
X83328952Y10864286D01*
X83138476Y10911905D01*
X83043238Y10959524D01*
X82948000Y11054762D01*
X82900380Y11197620D01*
X82900380Y11292858D01*
X82948000Y11435715D01*
X82995619Y11483334D01*
X82900380Y12340477D02*
X82900380Y12150000D01*
X82948000Y12054762D01*
X82995619Y12007143D01*
X83138476Y11911905D01*
X83328952Y11864286D01*
X83709904Y11864286D01*
X83805142Y11911905D01*
X83852761Y11959524D01*
X83900380Y12054762D01*
X83900380Y12245239D01*
X83852761Y12340477D01*
X83805142Y12388096D01*
X83709904Y12435715D01*
X83471809Y12435715D01*
X83376571Y12388096D01*
X83328952Y12340477D01*
X83281333Y12245239D01*
X83281333Y12054762D01*
X83328952Y11959524D01*
X83376571Y11911905D01*
X83471809Y11864286D01*
%TO.C,SW1*%
X122466666Y47395239D02*
X122609523Y47347620D01*
X122847619Y47347620D01*
X122942857Y47395239D01*
X122990476Y47442858D01*
X123038095Y47538096D01*
X123038095Y47633334D01*
X122990476Y47728572D01*
X122942857Y47776191D01*
X122847619Y47823810D01*
X122657142Y47871429D01*
X122561904Y47919048D01*
X122514285Y47966667D01*
X122466666Y48061905D01*
X122466666Y48157143D01*
X122514285Y48252381D01*
X122561904Y48300000D01*
X122657142Y48347620D01*
X122895238Y48347620D01*
X123038095Y48300000D01*
X123371428Y48347620D02*
X123609523Y47347620D01*
X123800000Y48061905D01*
X123990476Y47347620D01*
X124228571Y48347620D01*
X125133333Y47347620D02*
X124561904Y47347620D01*
X124847619Y47347620D02*
X124847619Y48347620D01*
X124752380Y48204762D01*
X124657142Y48109524D01*
X124561904Y48061905D01*
%TO.C,D2*%
X22258904Y27580620D02*
X22258904Y28580620D01*
X22497000Y28580620D01*
X22639857Y28533000D01*
X22735095Y28437762D01*
X22782714Y28342524D01*
X22830333Y28152048D01*
X22830333Y28009191D01*
X22782714Y27818715D01*
X22735095Y27723477D01*
X22639857Y27628239D01*
X22497000Y27580620D01*
X22258904Y27580620D01*
X23211285Y28485381D02*
X23258904Y28533000D01*
X23354142Y28580620D01*
X23592238Y28580620D01*
X23687476Y28533000D01*
X23735095Y28485381D01*
X23782714Y28390143D01*
X23782714Y28294905D01*
X23735095Y28152048D01*
X23163666Y27580620D01*
X23782714Y27580620D01*
X36427523Y28833620D02*
X35856095Y28833620D01*
X36141809Y28833620D02*
X36141809Y29833620D01*
X36046571Y29690762D01*
X35951333Y29595524D01*
X35856095Y29547905D01*
X37284666Y29833620D02*
X37094190Y29833620D01*
X36998952Y29786000D01*
X36951333Y29738381D01*
X36856095Y29595524D01*
X36808476Y29405048D01*
X36808476Y29024096D01*
X36856095Y28928858D01*
X36903714Y28881239D01*
X36998952Y28833620D01*
X37189428Y28833620D01*
X37284666Y28881239D01*
X37332285Y28928858D01*
X37379904Y29024096D01*
X37379904Y29262191D01*
X37332285Y29357429D01*
X37284666Y29405048D01*
X37189428Y29452667D01*
X36998952Y29452667D01*
X36903714Y29405048D01*
X36856095Y29357429D01*
X36808476Y29262191D01*
X16522761Y11405048D02*
X16427523Y11452667D01*
X16379904Y11500286D01*
X16332285Y11595524D01*
X16332285Y11643143D01*
X16379904Y11738381D01*
X16427523Y11786000D01*
X16522761Y11833620D01*
X16713238Y11833620D01*
X16808476Y11786000D01*
X16856095Y11738381D01*
X16903714Y11643143D01*
X16903714Y11595524D01*
X16856095Y11500286D01*
X16808476Y11452667D01*
X16713238Y11405048D01*
X16522761Y11405048D01*
X16427523Y11357429D01*
X16379904Y11309810D01*
X16332285Y11214572D01*
X16332285Y11024096D01*
X16379904Y10928858D01*
X16427523Y10881239D01*
X16522761Y10833620D01*
X16713238Y10833620D01*
X16808476Y10881239D01*
X16856095Y10928858D01*
X16903714Y11024096D01*
X16903714Y11214572D01*
X16856095Y11309810D01*
X16808476Y11357429D01*
X16713238Y11405048D01*
X36427523Y10833620D02*
X36618000Y10833620D01*
X36713238Y10881239D01*
X36760857Y10928858D01*
X36856095Y11071715D01*
X36903714Y11262191D01*
X36903714Y11643143D01*
X36856095Y11738381D01*
X36808476Y11786000D01*
X36713238Y11833620D01*
X36522761Y11833620D01*
X36427523Y11786000D01*
X36379904Y11738381D01*
X36332285Y11643143D01*
X36332285Y11405048D01*
X36379904Y11309810D01*
X36427523Y11262191D01*
X36522761Y11214572D01*
X36713238Y11214572D01*
X36808476Y11262191D01*
X36856095Y11309810D01*
X36903714Y11405048D01*
X16903714Y28833620D02*
X16332285Y28833620D01*
X16618000Y28833620D02*
X16618000Y29833620D01*
X16522761Y29690762D01*
X16427523Y29595524D01*
X16332285Y29547905D01*
%TO.C,R9*%
X8649380Y33952334D02*
X8173190Y33619000D01*
X8649380Y33380905D02*
X7649380Y33380905D01*
X7649380Y33761858D01*
X7697000Y33857096D01*
X7744619Y33904715D01*
X7839857Y33952334D01*
X7982714Y33952334D01*
X8077952Y33904715D01*
X8125571Y33857096D01*
X8173190Y33761858D01*
X8173190Y33380905D01*
X8649380Y34428524D02*
X8649380Y34619000D01*
X8601761Y34714239D01*
X8554142Y34761858D01*
X8411285Y34857096D01*
X8220809Y34904715D01*
X7839857Y34904715D01*
X7744619Y34857096D01*
X7697000Y34809477D01*
X7649380Y34714239D01*
X7649380Y34523762D01*
X7697000Y34428524D01*
X7744619Y34380905D01*
X7839857Y34333286D01*
X8077952Y34333286D01*
X8173190Y34380905D01*
X8220809Y34428524D01*
X8268428Y34523762D01*
X8268428Y34714239D01*
X8220809Y34809477D01*
X8173190Y34857096D01*
X8077952Y34904715D01*
%TO.C,C1*%
X101967142Y20500334D02*
X102014761Y20452715D01*
X102062380Y20309858D01*
X102062380Y20214620D01*
X102014761Y20071762D01*
X101919523Y19976524D01*
X101824285Y19928905D01*
X101633809Y19881286D01*
X101490952Y19881286D01*
X101300476Y19928905D01*
X101205238Y19976524D01*
X101110000Y20071762D01*
X101062380Y20214620D01*
X101062380Y20309858D01*
X101110000Y20452715D01*
X101157619Y20500334D01*
X102062380Y21452715D02*
X102062380Y20881286D01*
X102062380Y21167000D02*
X101062380Y21167000D01*
X101205238Y21071762D01*
X101300476Y20976524D01*
X101348095Y20881286D01*
%TO.C,R6*%
X46557380Y30844334D02*
X46081190Y30511000D01*
X46557380Y30272905D02*
X45557380Y30272905D01*
X45557380Y30653858D01*
X45605000Y30749096D01*
X45652619Y30796715D01*
X45747857Y30844334D01*
X45890714Y30844334D01*
X45985952Y30796715D01*
X46033571Y30749096D01*
X46081190Y30653858D01*
X46081190Y30272905D01*
X45557380Y31701477D02*
X45557380Y31511000D01*
X45605000Y31415762D01*
X45652619Y31368143D01*
X45795476Y31272905D01*
X45985952Y31225286D01*
X46366904Y31225286D01*
X46462142Y31272905D01*
X46509761Y31320524D01*
X46557380Y31415762D01*
X46557380Y31606239D01*
X46509761Y31701477D01*
X46462142Y31749096D01*
X46366904Y31796715D01*
X46128809Y31796715D01*
X46033571Y31749096D01*
X45985952Y31701477D01*
X45938333Y31606239D01*
X45938333Y31415762D01*
X45985952Y31320524D01*
X46033571Y31272905D01*
X46128809Y31225286D01*
%TO.C,C11*%
X101729142Y28056858D02*
X101681523Y28009239D01*
X101538666Y27961620D01*
X101443428Y27961620D01*
X101300571Y28009239D01*
X101205333Y28104477D01*
X101157714Y28199715D01*
X101110095Y28390191D01*
X101110095Y28533048D01*
X101157714Y28723524D01*
X101205333Y28818762D01*
X101300571Y28914000D01*
X101443428Y28961620D01*
X101538666Y28961620D01*
X101681523Y28914000D01*
X101729142Y28866381D01*
X102681523Y27961620D02*
X102110095Y27961620D01*
X102395809Y27961620D02*
X102395809Y28961620D01*
X102300571Y28818762D01*
X102205333Y28723524D01*
X102110095Y28675905D01*
X103633904Y27961620D02*
X103062476Y27961620D01*
X103348190Y27961620D02*
X103348190Y28961620D01*
X103252952Y28818762D01*
X103157714Y28723524D01*
X103062476Y28675905D01*
%TO.C,A_TP1*%
X114238809Y48152334D02*
X114715000Y48152334D01*
X114143571Y47866620D02*
X114476904Y48866620D01*
X114810238Y47866620D01*
X114905476Y47771381D02*
X115667380Y47771381D01*
X115762619Y48866620D02*
X116334047Y48866620D01*
X116048333Y47866620D02*
X116048333Y48866620D01*
X116667380Y47866620D02*
X116667380Y48866620D01*
X117048333Y48866620D01*
X117143571Y48819000D01*
X117191190Y48771381D01*
X117238809Y48676143D01*
X117238809Y48533286D01*
X117191190Y48438048D01*
X117143571Y48390429D01*
X117048333Y48342810D01*
X116667380Y48342810D01*
X118191190Y47866620D02*
X117619761Y47866620D01*
X117905476Y47866620D02*
X117905476Y48866620D01*
X117810238Y48723762D01*
X117715000Y48628524D01*
X117619761Y48580905D01*
%TO.C,C3*%
X102333333Y11742858D02*
X102285714Y11695239D01*
X102142857Y11647620D01*
X102047619Y11647620D01*
X101904761Y11695239D01*
X101809523Y11790477D01*
X101761904Y11885715D01*
X101714285Y12076191D01*
X101714285Y12219048D01*
X101761904Y12409524D01*
X101809523Y12504762D01*
X101904761Y12600000D01*
X102047619Y12647620D01*
X102142857Y12647620D01*
X102285714Y12600000D01*
X102333333Y12552381D01*
X102666666Y12647620D02*
X103285714Y12647620D01*
X102952380Y12266667D01*
X103095238Y12266667D01*
X103190476Y12219048D01*
X103238095Y12171429D01*
X103285714Y12076191D01*
X103285714Y11838096D01*
X103238095Y11742858D01*
X103190476Y11695239D01*
X103095238Y11647620D01*
X102809523Y11647620D01*
X102714285Y11695239D01*
X102666666Y11742858D01*
%TO.C,U1*%
X108863095Y6872620D02*
X108863095Y6063096D01*
X108910714Y5967858D01*
X108958333Y5920239D01*
X109053571Y5872620D01*
X109244047Y5872620D01*
X109339285Y5920239D01*
X109386904Y5967858D01*
X109434523Y6063096D01*
X109434523Y6872620D01*
X110434523Y5872620D02*
X109863095Y5872620D01*
X110148809Y5872620D02*
X110148809Y6872620D01*
X110053571Y6729762D01*
X109958333Y6634524D01*
X109863095Y6586905D01*
%TO.C,C10*%
X9007142Y24707143D02*
X9054761Y24659524D01*
X9102380Y24516667D01*
X9102380Y24421429D01*
X9054761Y24278572D01*
X8959523Y24183334D01*
X8864285Y24135715D01*
X8673809Y24088096D01*
X8530952Y24088096D01*
X8340476Y24135715D01*
X8245238Y24183334D01*
X8150000Y24278572D01*
X8102380Y24421429D01*
X8102380Y24516667D01*
X8150000Y24659524D01*
X8197619Y24707143D01*
X9102380Y25659524D02*
X9102380Y25088096D01*
X9102380Y25373810D02*
X8102380Y25373810D01*
X8245238Y25278572D01*
X8340476Y25183334D01*
X8388095Y25088096D01*
X8102380Y26278572D02*
X8102380Y26373810D01*
X8150000Y26469048D01*
X8197619Y26516667D01*
X8292857Y26564286D01*
X8483333Y26611905D01*
X8721428Y26611905D01*
X8911904Y26564286D01*
X9007142Y26516667D01*
X9054761Y26469048D01*
X9102380Y26373810D01*
X9102380Y26278572D01*
X9054761Y26183334D01*
X9007142Y26135715D01*
X8911904Y26088096D01*
X8721428Y26040477D01*
X8483333Y26040477D01*
X8292857Y26088096D01*
X8197619Y26135715D01*
X8150000Y26183334D01*
X8102380Y26278572D01*
%TO.C,C4*%
X92934333Y5195858D02*
X92886714Y5148239D01*
X92743857Y5100620D01*
X92648619Y5100620D01*
X92505761Y5148239D01*
X92410523Y5243477D01*
X92362904Y5338715D01*
X92315285Y5529191D01*
X92315285Y5672048D01*
X92362904Y5862524D01*
X92410523Y5957762D01*
X92505761Y6053000D01*
X92648619Y6100620D01*
X92743857Y6100620D01*
X92886714Y6053000D01*
X92934333Y6005381D01*
X93791476Y5767286D02*
X93791476Y5100620D01*
X93553380Y6148239D02*
X93315285Y5433953D01*
X93934333Y5433953D01*
%TO.C,DO_TP1*%
X81176190Y5847620D02*
X81176190Y6847620D01*
X81414285Y6847620D01*
X81557142Y6800000D01*
X81652380Y6704762D01*
X81700000Y6609524D01*
X81747619Y6419048D01*
X81747619Y6276191D01*
X81700000Y6085715D01*
X81652380Y5990477D01*
X81557142Y5895239D01*
X81414285Y5847620D01*
X81176190Y5847620D01*
X82366666Y6847620D02*
X82557142Y6847620D01*
X82652380Y6800000D01*
X82747619Y6704762D01*
X82795238Y6514286D01*
X82795238Y6180953D01*
X82747619Y5990477D01*
X82652380Y5895239D01*
X82557142Y5847620D01*
X82366666Y5847620D01*
X82271428Y5895239D01*
X82176190Y5990477D01*
X82128571Y6180953D01*
X82128571Y6514286D01*
X82176190Y6704762D01*
X82271428Y6800000D01*
X82366666Y6847620D01*
X82985714Y5752381D02*
X83747619Y5752381D01*
X83842857Y6847620D02*
X84414285Y6847620D01*
X84128571Y5847620D02*
X84128571Y6847620D01*
X84747619Y5847620D02*
X84747619Y6847620D01*
X85128571Y6847620D01*
X85223809Y6800000D01*
X85271428Y6752381D01*
X85319047Y6657143D01*
X85319047Y6514286D01*
X85271428Y6419048D01*
X85223809Y6371429D01*
X85128571Y6323810D01*
X84747619Y6323810D01*
X86271428Y5847620D02*
X85700000Y5847620D01*
X85985714Y5847620D02*
X85985714Y6847620D01*
X85890476Y6704762D01*
X85795238Y6609524D01*
X85700000Y6561905D01*
%TO.C,C9*%
X46707142Y20583334D02*
X46754761Y20535715D01*
X46802380Y20392858D01*
X46802380Y20297620D01*
X46754761Y20154762D01*
X46659523Y20059524D01*
X46564285Y20011905D01*
X46373809Y19964286D01*
X46230952Y19964286D01*
X46040476Y20011905D01*
X45945238Y20059524D01*
X45850000Y20154762D01*
X45802380Y20297620D01*
X45802380Y20392858D01*
X45850000Y20535715D01*
X45897619Y20583334D01*
X46802380Y21059524D02*
X46802380Y21250000D01*
X46754761Y21345239D01*
X46707142Y21392858D01*
X46564285Y21488096D01*
X46373809Y21535715D01*
X45992857Y21535715D01*
X45897619Y21488096D01*
X45850000Y21440477D01*
X45802380Y21345239D01*
X45802380Y21154762D01*
X45850000Y21059524D01*
X45897619Y21011905D01*
X45992857Y20964286D01*
X46230952Y20964286D01*
X46326190Y21011905D01*
X46373809Y21059524D01*
X46421428Y21154762D01*
X46421428Y21345239D01*
X46373809Y21440477D01*
X46326190Y21488096D01*
X46230952Y21535715D01*
%TO.C,R12*%
X36784380Y52575143D02*
X36308190Y52241810D01*
X36784380Y52003715D02*
X35784380Y52003715D01*
X35784380Y52384667D01*
X35832000Y52479905D01*
X35879619Y52527524D01*
X35974857Y52575143D01*
X36117714Y52575143D01*
X36212952Y52527524D01*
X36260571Y52479905D01*
X36308190Y52384667D01*
X36308190Y52003715D01*
X36784380Y53527524D02*
X36784380Y52956096D01*
X36784380Y53241810D02*
X35784380Y53241810D01*
X35927238Y53146572D01*
X36022476Y53051334D01*
X36070095Y52956096D01*
X35879619Y53908477D02*
X35832000Y53956096D01*
X35784380Y54051334D01*
X35784380Y54289429D01*
X35832000Y54384667D01*
X35879619Y54432286D01*
X35974857Y54479905D01*
X36070095Y54479905D01*
X36212952Y54432286D01*
X36784380Y53860858D01*
X36784380Y54479905D01*
%TO.C,Y1*%
X85324190Y20063810D02*
X85800380Y20063810D01*
X84800380Y19730477D02*
X85324190Y20063810D01*
X84800380Y20397143D01*
X85800380Y21254286D02*
X85800380Y20682858D01*
X85800380Y20968572D02*
X84800380Y20968572D01*
X84943238Y20873334D01*
X85038476Y20778096D01*
X85086095Y20682858D01*
%TO.C,TX_TP1*%
X109500000Y40547620D02*
X110071428Y40547620D01*
X109785714Y39547620D02*
X109785714Y40547620D01*
X110309523Y40547620D02*
X110976190Y39547620D01*
X110976190Y40547620D02*
X110309523Y39547620D01*
X111119047Y39452381D02*
X111880952Y39452381D01*
X111976190Y40547620D02*
X112547619Y40547620D01*
X112261904Y39547620D02*
X112261904Y40547620D01*
X112880952Y39547620D02*
X112880952Y40547620D01*
X113261904Y40547620D01*
X113357142Y40500000D01*
X113404761Y40452381D01*
X113452380Y40357143D01*
X113452380Y40214286D01*
X113404761Y40119048D01*
X113357142Y40071429D01*
X113261904Y40023810D01*
X112880952Y40023810D01*
X114404761Y39547620D02*
X113833333Y39547620D01*
X114119047Y39547620D02*
X114119047Y40547620D01*
X114023809Y40404762D01*
X113928571Y40309524D01*
X113833333Y40261905D01*
%TO.C,R11*%
X135452380Y74857143D02*
X134976190Y74523810D01*
X135452380Y74285715D02*
X134452380Y74285715D01*
X134452380Y74666667D01*
X134500000Y74761905D01*
X134547619Y74809524D01*
X134642857Y74857143D01*
X134785714Y74857143D01*
X134880952Y74809524D01*
X134928571Y74761905D01*
X134976190Y74666667D01*
X134976190Y74285715D01*
X135452380Y75809524D02*
X135452380Y75238096D01*
X135452380Y75523810D02*
X134452380Y75523810D01*
X134595238Y75428572D01*
X134690476Y75333334D01*
X134738095Y75238096D01*
X135452380Y76761905D02*
X135452380Y76190477D01*
X135452380Y76476191D02*
X134452380Y76476191D01*
X134595238Y76380953D01*
X134690476Y76285715D01*
X134738095Y76190477D01*
%TO.C,R4*%
X46452380Y53933334D02*
X45976190Y53600000D01*
X46452380Y53361905D02*
X45452380Y53361905D01*
X45452380Y53742858D01*
X45500000Y53838096D01*
X45547619Y53885715D01*
X45642857Y53933334D01*
X45785714Y53933334D01*
X45880952Y53885715D01*
X45928571Y53838096D01*
X45976190Y53742858D01*
X45976190Y53361905D01*
X45785714Y54790477D02*
X46452380Y54790477D01*
X45404761Y54552381D02*
X46119047Y54314286D01*
X46119047Y54933334D01*
%TO.C,VCC_TP1*%
X105628571Y3847620D02*
X105961904Y2847620D01*
X106295238Y3847620D01*
X107200000Y2942858D02*
X107152380Y2895239D01*
X107009523Y2847620D01*
X106914285Y2847620D01*
X106771428Y2895239D01*
X106676190Y2990477D01*
X106628571Y3085715D01*
X106580952Y3276191D01*
X106580952Y3419048D01*
X106628571Y3609524D01*
X106676190Y3704762D01*
X106771428Y3800000D01*
X106914285Y3847620D01*
X107009523Y3847620D01*
X107152380Y3800000D01*
X107200000Y3752381D01*
X108200000Y2942858D02*
X108152380Y2895239D01*
X108009523Y2847620D01*
X107914285Y2847620D01*
X107771428Y2895239D01*
X107676190Y2990477D01*
X107628571Y3085715D01*
X107580952Y3276191D01*
X107580952Y3419048D01*
X107628571Y3609524D01*
X107676190Y3704762D01*
X107771428Y3800000D01*
X107914285Y3847620D01*
X108009523Y3847620D01*
X108152380Y3800000D01*
X108200000Y3752381D01*
X108390476Y2752381D02*
X109152380Y2752381D01*
X109247619Y3847620D02*
X109819047Y3847620D01*
X109533333Y2847620D02*
X109533333Y3847620D01*
X110152380Y2847620D02*
X110152380Y3847620D01*
X110533333Y3847620D01*
X110628571Y3800000D01*
X110676190Y3752381D01*
X110723809Y3657143D01*
X110723809Y3514286D01*
X110676190Y3419048D01*
X110628571Y3371429D01*
X110533333Y3323810D01*
X110152380Y3323810D01*
X111676190Y2847620D02*
X111104761Y2847620D01*
X111390476Y2847620D02*
X111390476Y3847620D01*
X111295238Y3704762D01*
X111200000Y3609524D01*
X111104761Y3561905D01*
%TO.C,C5*%
X79997142Y29263334D02*
X80044761Y29215715D01*
X80092380Y29072858D01*
X80092380Y28977620D01*
X80044761Y28834762D01*
X79949523Y28739524D01*
X79854285Y28691905D01*
X79663809Y28644286D01*
X79520952Y28644286D01*
X79330476Y28691905D01*
X79235238Y28739524D01*
X79140000Y28834762D01*
X79092380Y28977620D01*
X79092380Y29072858D01*
X79140000Y29215715D01*
X79187619Y29263334D01*
X79092380Y30168096D02*
X79092380Y29691905D01*
X79568571Y29644286D01*
X79520952Y29691905D01*
X79473333Y29787143D01*
X79473333Y30025239D01*
X79520952Y30120477D01*
X79568571Y30168096D01*
X79663809Y30215715D01*
X79901904Y30215715D01*
X79997142Y30168096D01*
X80044761Y30120477D01*
X80092380Y30025239D01*
X80092380Y29787143D01*
X80044761Y29691905D01*
X79997142Y29644286D01*
%TO.C,U6*%
X42178380Y42638096D02*
X42987904Y42638096D01*
X43083142Y42685715D01*
X43130761Y42733334D01*
X43178380Y42828572D01*
X43178380Y43019048D01*
X43130761Y43114286D01*
X43083142Y43161905D01*
X42987904Y43209524D01*
X42178380Y43209524D01*
X42178380Y44114286D02*
X42178380Y43923810D01*
X42226000Y43828572D01*
X42273619Y43780953D01*
X42416476Y43685715D01*
X42606952Y43638096D01*
X42987904Y43638096D01*
X43083142Y43685715D01*
X43130761Y43733334D01*
X43178380Y43828572D01*
X43178380Y44019048D01*
X43130761Y44114286D01*
X43083142Y44161905D01*
X42987904Y44209524D01*
X42749809Y44209524D01*
X42654571Y44161905D01*
X42606952Y44114286D01*
X42559333Y44019048D01*
X42559333Y43828572D01*
X42606952Y43733334D01*
X42654571Y43685715D01*
X42749809Y43638096D01*
%TO.C,H2*%
X134238095Y88747620D02*
X134238095Y89747620D01*
X134238095Y89271429D02*
X134809523Y89271429D01*
X134809523Y88747620D02*
X134809523Y89747620D01*
X135238095Y89652381D02*
X135285714Y89700000D01*
X135380952Y89747620D01*
X135619047Y89747620D01*
X135714285Y89700000D01*
X135761904Y89652381D01*
X135809523Y89557143D01*
X135809523Y89461905D01*
X135761904Y89319048D01*
X135190476Y88747620D01*
X135809523Y88747620D01*
%TO.C,H3*%
X4238095Y8747620D02*
X4238095Y9747620D01*
X4238095Y9271429D02*
X4809523Y9271429D01*
X4809523Y8747620D02*
X4809523Y9747620D01*
X5190476Y9747620D02*
X5809523Y9747620D01*
X5476190Y9366667D01*
X5619047Y9366667D01*
X5714285Y9319048D01*
X5761904Y9271429D01*
X5809523Y9176191D01*
X5809523Y8938096D01*
X5761904Y8842858D01*
X5714285Y8795239D01*
X5619047Y8747620D01*
X5333333Y8747620D01*
X5238095Y8795239D01*
X5190476Y8842858D01*
%TO.C,RX_TP1*%
X109495238Y29347620D02*
X109161904Y29823810D01*
X108923809Y29347620D02*
X108923809Y30347620D01*
X109304761Y30347620D01*
X109400000Y30300000D01*
X109447619Y30252381D01*
X109495238Y30157143D01*
X109495238Y30014286D01*
X109447619Y29919048D01*
X109400000Y29871429D01*
X109304761Y29823810D01*
X108923809Y29823810D01*
X109828571Y30347620D02*
X110495238Y29347620D01*
X110495238Y30347620D02*
X109828571Y29347620D01*
X110638095Y29252381D02*
X111400000Y29252381D01*
X111495238Y30347620D02*
X112066666Y30347620D01*
X111780952Y29347620D02*
X111780952Y30347620D01*
X112400000Y29347620D02*
X112400000Y30347620D01*
X112780952Y30347620D01*
X112876190Y30300000D01*
X112923809Y30252381D01*
X112971428Y30157143D01*
X112971428Y30014286D01*
X112923809Y29919048D01*
X112876190Y29871429D01*
X112780952Y29823810D01*
X112400000Y29823810D01*
X113923809Y29347620D02*
X113352380Y29347620D01*
X113638095Y29347620D02*
X113638095Y30347620D01*
X113542857Y30204762D01*
X113447619Y30109524D01*
X113352380Y30061905D01*
%TO.C,B_TP1*%
X116133333Y30471429D02*
X116276190Y30423810D01*
X116323809Y30376191D01*
X116371428Y30280953D01*
X116371428Y30138096D01*
X116323809Y30042858D01*
X116276190Y29995239D01*
X116180952Y29947620D01*
X115800000Y29947620D01*
X115800000Y30947620D01*
X116133333Y30947620D01*
X116228571Y30900000D01*
X116276190Y30852381D01*
X116323809Y30757143D01*
X116323809Y30661905D01*
X116276190Y30566667D01*
X116228571Y30519048D01*
X116133333Y30471429D01*
X115800000Y30471429D01*
X116561904Y29852381D02*
X117323809Y29852381D01*
X117419047Y30947620D02*
X117990476Y30947620D01*
X117704761Y29947620D02*
X117704761Y30947620D01*
X118323809Y29947620D02*
X118323809Y30947620D01*
X118704761Y30947620D01*
X118800000Y30900000D01*
X118847619Y30852381D01*
X118895238Y30757143D01*
X118895238Y30614286D01*
X118847619Y30519048D01*
X118800000Y30471429D01*
X118704761Y30423810D01*
X118323809Y30423810D01*
X119847619Y29947620D02*
X119276190Y29947620D01*
X119561904Y29947620D02*
X119561904Y30947620D01*
X119466666Y30804762D01*
X119371428Y30709524D01*
X119276190Y30661905D01*
%TO.C,R13*%
X42499380Y66633143D02*
X42023190Y66299810D01*
X42499380Y66061715D02*
X41499380Y66061715D01*
X41499380Y66442667D01*
X41547000Y66537905D01*
X41594619Y66585524D01*
X41689857Y66633143D01*
X41832714Y66633143D01*
X41927952Y66585524D01*
X41975571Y66537905D01*
X42023190Y66442667D01*
X42023190Y66061715D01*
X42499380Y67585524D02*
X42499380Y67014096D01*
X42499380Y67299810D02*
X41499380Y67299810D01*
X41642238Y67204572D01*
X41737476Y67109334D01*
X41785095Y67014096D01*
X41499380Y67918858D02*
X41499380Y68537905D01*
X41880333Y68204572D01*
X41880333Y68347429D01*
X41927952Y68442667D01*
X41975571Y68490286D01*
X42070809Y68537905D01*
X42308904Y68537905D01*
X42404142Y68490286D01*
X42451761Y68442667D01*
X42499380Y68347429D01*
X42499380Y68061715D01*
X42451761Y67966477D01*
X42404142Y67918858D01*
%TO.C,H1*%
X4238095Y88747620D02*
X4238095Y89747620D01*
X4238095Y89271429D02*
X4809523Y89271429D01*
X4809523Y88747620D02*
X4809523Y89747620D01*
X5809523Y88747620D02*
X5238095Y88747620D01*
X5523809Y88747620D02*
X5523809Y89747620D01*
X5428571Y89604762D01*
X5333333Y89509524D01*
X5238095Y89461905D01*
%TO.C,DS1*%
X51145714Y87515120D02*
X51145714Y88515120D01*
X51383809Y88515120D01*
X51526666Y88467500D01*
X51621904Y88372262D01*
X51669523Y88277024D01*
X51717142Y88086548D01*
X51717142Y87943691D01*
X51669523Y87753215D01*
X51621904Y87657977D01*
X51526666Y87562739D01*
X51383809Y87515120D01*
X51145714Y87515120D01*
X52098095Y87562739D02*
X52240952Y87515120D01*
X52479047Y87515120D01*
X52574285Y87562739D01*
X52621904Y87610358D01*
X52669523Y87705596D01*
X52669523Y87800834D01*
X52621904Y87896072D01*
X52574285Y87943691D01*
X52479047Y87991310D01*
X52288571Y88038929D01*
X52193333Y88086548D01*
X52145714Y88134167D01*
X52098095Y88229405D01*
X52098095Y88324643D01*
X52145714Y88419881D01*
X52193333Y88467500D01*
X52288571Y88515120D01*
X52526666Y88515120D01*
X52669523Y88467500D01*
X53621904Y87515120D02*
X53050476Y87515120D01*
X53336190Y87515120D02*
X53336190Y88515120D01*
X53240952Y88372262D01*
X53145714Y88277024D01*
X53050476Y88229405D01*
%TO.C,R5*%
X9852380Y43833334D02*
X9376190Y43500000D01*
X9852380Y43261905D02*
X8852380Y43261905D01*
X8852380Y43642858D01*
X8900000Y43738096D01*
X8947619Y43785715D01*
X9042857Y43833334D01*
X9185714Y43833334D01*
X9280952Y43785715D01*
X9328571Y43738096D01*
X9376190Y43642858D01*
X9376190Y43261905D01*
X8852380Y44738096D02*
X8852380Y44261905D01*
X9328571Y44214286D01*
X9280952Y44261905D01*
X9233333Y44357143D01*
X9233333Y44595239D01*
X9280952Y44690477D01*
X9328571Y44738096D01*
X9423809Y44785715D01*
X9661904Y44785715D01*
X9757142Y44738096D01*
X9804761Y44690477D01*
X9852380Y44595239D01*
X9852380Y44357143D01*
X9804761Y44261905D01*
X9757142Y44214286D01*
%TO.C,R2*%
X116429333Y42312620D02*
X116096000Y42788810D01*
X115857904Y42312620D02*
X115857904Y43312620D01*
X116238857Y43312620D01*
X116334095Y43265000D01*
X116381714Y43217381D01*
X116429333Y43122143D01*
X116429333Y42979286D01*
X116381714Y42884048D01*
X116334095Y42836429D01*
X116238857Y42788810D01*
X115857904Y42788810D01*
X116810285Y43217381D02*
X116857904Y43265000D01*
X116953142Y43312620D01*
X117191238Y43312620D01*
X117286476Y43265000D01*
X117334095Y43217381D01*
X117381714Y43122143D01*
X117381714Y43026905D01*
X117334095Y42884048D01*
X116762666Y42312620D01*
X117381714Y42312620D01*
%TO.C,U4*%
X25580380Y59910096D02*
X26389904Y59910096D01*
X26485142Y59957715D01*
X26532761Y60005334D01*
X26580380Y60100572D01*
X26580380Y60291048D01*
X26532761Y60386286D01*
X26485142Y60433905D01*
X26389904Y60481524D01*
X25580380Y60481524D01*
X25913714Y61386286D02*
X26580380Y61386286D01*
X25532761Y61148191D02*
X26247047Y60910096D01*
X26247047Y61529143D01*
%TO.C,C12*%
X130857142Y26492858D02*
X130809523Y26445239D01*
X130666666Y26397620D01*
X130571428Y26397620D01*
X130428571Y26445239D01*
X130333333Y26540477D01*
X130285714Y26635715D01*
X130238095Y26826191D01*
X130238095Y26969048D01*
X130285714Y27159524D01*
X130333333Y27254762D01*
X130428571Y27350000D01*
X130571428Y27397620D01*
X130666666Y27397620D01*
X130809523Y27350000D01*
X130857142Y27302381D01*
X131809523Y26397620D02*
X131238095Y26397620D01*
X131523809Y26397620D02*
X131523809Y27397620D01*
X131428571Y27254762D01*
X131333333Y27159524D01*
X131238095Y27111905D01*
X132190476Y27302381D02*
X132238095Y27350000D01*
X132333333Y27397620D01*
X132571428Y27397620D01*
X132666666Y27350000D01*
X132714285Y27302381D01*
X132761904Y27207143D01*
X132761904Y27111905D01*
X132714285Y26969048D01*
X132142857Y26397620D01*
X132761904Y26397620D01*
%TO.C,RV1*%
X40547761Y86046620D02*
X40214428Y86522810D01*
X39976333Y86046620D02*
X39976333Y87046620D01*
X40357285Y87046620D01*
X40452523Y86999000D01*
X40500142Y86951381D01*
X40547761Y86856143D01*
X40547761Y86713286D01*
X40500142Y86618048D01*
X40452523Y86570429D01*
X40357285Y86522810D01*
X39976333Y86522810D01*
X40833476Y87046620D02*
X41166809Y86046620D01*
X41500142Y87046620D01*
X42357285Y86046620D02*
X41785857Y86046620D01*
X42071571Y86046620D02*
X42071571Y87046620D01*
X41976333Y86903762D01*
X41881095Y86808524D01*
X41785857Y86760905D01*
%TO.C,VBAT_TP1*%
X23719047Y82347620D02*
X24052380Y81347620D01*
X24385714Y82347620D01*
X25052380Y81871429D02*
X25195238Y81823810D01*
X25242857Y81776191D01*
X25290476Y81680953D01*
X25290476Y81538096D01*
X25242857Y81442858D01*
X25195238Y81395239D01*
X25100000Y81347620D01*
X24719047Y81347620D01*
X24719047Y82347620D01*
X25052380Y82347620D01*
X25147619Y82300000D01*
X25195238Y82252381D01*
X25242857Y82157143D01*
X25242857Y82061905D01*
X25195238Y81966667D01*
X25147619Y81919048D01*
X25052380Y81871429D01*
X24719047Y81871429D01*
X25671428Y81633334D02*
X26147619Y81633334D01*
X25576190Y81347620D02*
X25909523Y82347620D01*
X26242857Y81347620D01*
X26433333Y82347620D02*
X27004761Y82347620D01*
X26719047Y81347620D02*
X26719047Y82347620D01*
X27100000Y81252381D02*
X27861904Y81252381D01*
X27957142Y82347620D02*
X28528571Y82347620D01*
X28242857Y81347620D02*
X28242857Y82347620D01*
X28861904Y81347620D02*
X28861904Y82347620D01*
X29242857Y82347620D01*
X29338095Y82300000D01*
X29385714Y82252381D01*
X29433333Y82157143D01*
X29433333Y82014286D01*
X29385714Y81919048D01*
X29338095Y81871429D01*
X29242857Y81823810D01*
X28861904Y81823810D01*
X30385714Y81347620D02*
X29814285Y81347620D01*
X30100000Y81347620D02*
X30100000Y82347620D01*
X30004761Y82204762D01*
X29909523Y82109524D01*
X29814285Y82061905D01*
%TO.C,TP_GND1*%
X113133333Y3747620D02*
X113704761Y3747620D01*
X113419047Y2747620D02*
X113419047Y3747620D01*
X114038095Y2747620D02*
X114038095Y3747620D01*
X114419047Y3747620D01*
X114514285Y3700000D01*
X114561904Y3652381D01*
X114609523Y3557143D01*
X114609523Y3414286D01*
X114561904Y3319048D01*
X114514285Y3271429D01*
X114419047Y3223810D01*
X114038095Y3223810D01*
X114800000Y2652381D02*
X115561904Y2652381D01*
X116323809Y3700000D02*
X116228571Y3747620D01*
X116085714Y3747620D01*
X115942857Y3700000D01*
X115847619Y3604762D01*
X115800000Y3509524D01*
X115752380Y3319048D01*
X115752380Y3176191D01*
X115800000Y2985715D01*
X115847619Y2890477D01*
X115942857Y2795239D01*
X116085714Y2747620D01*
X116180952Y2747620D01*
X116323809Y2795239D01*
X116371428Y2842858D01*
X116371428Y3176191D01*
X116180952Y3176191D01*
X116800000Y2747620D02*
X116800000Y3747620D01*
X117371428Y2747620D01*
X117371428Y3747620D01*
X117847619Y2747620D02*
X117847619Y3747620D01*
X118085714Y3747620D01*
X118228571Y3700000D01*
X118323809Y3604762D01*
X118371428Y3509524D01*
X118419047Y3319048D01*
X118419047Y3176191D01*
X118371428Y2985715D01*
X118323809Y2890477D01*
X118228571Y2795239D01*
X118085714Y2747620D01*
X117847619Y2747620D01*
X119371428Y2747620D02*
X118800000Y2747620D01*
X119085714Y2747620D02*
X119085714Y3747620D01*
X118990476Y3604762D01*
X118895238Y3509524D01*
X118800000Y3461905D01*
%TO.C,C2*%
X118757142Y7233334D02*
X118804761Y7185715D01*
X118852380Y7042858D01*
X118852380Y6947620D01*
X118804761Y6804762D01*
X118709523Y6709524D01*
X118614285Y6661905D01*
X118423809Y6614286D01*
X118280952Y6614286D01*
X118090476Y6661905D01*
X117995238Y6709524D01*
X117900000Y6804762D01*
X117852380Y6947620D01*
X117852380Y7042858D01*
X117900000Y7185715D01*
X117947619Y7233334D01*
X117947619Y7614286D02*
X117900000Y7661905D01*
X117852380Y7757143D01*
X117852380Y7995239D01*
X117900000Y8090477D01*
X117947619Y8138096D01*
X118042857Y8185715D01*
X118138095Y8185715D01*
X118280952Y8138096D01*
X118852380Y7566667D01*
X118852380Y8185715D01*
%TO.C,R8*%
X8749380Y29383334D02*
X8273190Y29050000D01*
X8749380Y28811905D02*
X7749380Y28811905D01*
X7749380Y29192858D01*
X7797000Y29288096D01*
X7844619Y29335715D01*
X7939857Y29383334D01*
X8082714Y29383334D01*
X8177952Y29335715D01*
X8225571Y29288096D01*
X8273190Y29192858D01*
X8273190Y28811905D01*
X8177952Y29954762D02*
X8130333Y29859524D01*
X8082714Y29811905D01*
X7987476Y29764286D01*
X7939857Y29764286D01*
X7844619Y29811905D01*
X7797000Y29859524D01*
X7749380Y29954762D01*
X7749380Y30145239D01*
X7797000Y30240477D01*
X7844619Y30288096D01*
X7939857Y30335715D01*
X7987476Y30335715D01*
X8082714Y30288096D01*
X8130333Y30240477D01*
X8177952Y30145239D01*
X8177952Y29954762D01*
X8225571Y29859524D01*
X8273190Y29811905D01*
X8368428Y29764286D01*
X8558904Y29764286D01*
X8654142Y29811905D01*
X8701761Y29859524D01*
X8749380Y29954762D01*
X8749380Y30145239D01*
X8701761Y30240477D01*
X8654142Y30288096D01*
X8558904Y30335715D01*
X8368428Y30335715D01*
X8273190Y30288096D01*
X8225571Y30240477D01*
X8177952Y30145239D01*
%TO.C,U2*%
X92720095Y46106620D02*
X92720095Y45297096D01*
X92767714Y45201858D01*
X92815333Y45154239D01*
X92910571Y45106620D01*
X93101047Y45106620D01*
X93196285Y45154239D01*
X93243904Y45201858D01*
X93291523Y45297096D01*
X93291523Y46106620D01*
X93720095Y46011381D02*
X93767714Y46059000D01*
X93862952Y46106620D01*
X94101047Y46106620D01*
X94196285Y46059000D01*
X94243904Y46011381D01*
X94291523Y45916143D01*
X94291523Y45820905D01*
X94243904Y45678048D01*
X93672476Y45106620D01*
X94291523Y45106620D01*
%TO.C,SW2*%
X107911761Y19841667D02*
X107959380Y19984524D01*
X107959380Y20222620D01*
X107911761Y20317858D01*
X107864142Y20365477D01*
X107768904Y20413096D01*
X107673666Y20413096D01*
X107578428Y20365477D01*
X107530809Y20317858D01*
X107483190Y20222620D01*
X107435571Y20032143D01*
X107387952Y19936905D01*
X107340333Y19889286D01*
X107245095Y19841667D01*
X107149857Y19841667D01*
X107054619Y19889286D01*
X107007000Y19936905D01*
X106959380Y20032143D01*
X106959380Y20270239D01*
X107007000Y20413096D01*
X106959380Y20746429D02*
X107959380Y20984524D01*
X107245095Y21175000D01*
X107959380Y21365477D01*
X106959380Y21603572D01*
X107054619Y21936905D02*
X107007000Y21984524D01*
X106959380Y22079762D01*
X106959380Y22317858D01*
X107007000Y22413096D01*
X107054619Y22460715D01*
X107149857Y22508334D01*
X107245095Y22508334D01*
X107387952Y22460715D01*
X107959380Y21889286D01*
X107959380Y22508334D01*
%TO.C,R10*%
X111889142Y20723620D02*
X111555809Y21199810D01*
X111317714Y20723620D02*
X111317714Y21723620D01*
X111698666Y21723620D01*
X111793904Y21676000D01*
X111841523Y21628381D01*
X111889142Y21533143D01*
X111889142Y21390286D01*
X111841523Y21295048D01*
X111793904Y21247429D01*
X111698666Y21199810D01*
X111317714Y21199810D01*
X112841523Y20723620D02*
X112270095Y20723620D01*
X112555809Y20723620D02*
X112555809Y21723620D01*
X112460571Y21580762D01*
X112365333Y21485524D01*
X112270095Y21437905D01*
X113460571Y21723620D02*
X113555809Y21723620D01*
X113651047Y21676000D01*
X113698666Y21628381D01*
X113746285Y21533143D01*
X113793904Y21342667D01*
X113793904Y21104572D01*
X113746285Y20914096D01*
X113698666Y20818858D01*
X113651047Y20771239D01*
X113555809Y20723620D01*
X113460571Y20723620D01*
X113365333Y20771239D01*
X113317714Y20818858D01*
X113270095Y20914096D01*
X113222476Y21104572D01*
X113222476Y21342667D01*
X113270095Y21533143D01*
X113317714Y21628381D01*
X113365333Y21676000D01*
X113460571Y21723620D01*
%TO.C,R7*%
X46303380Y34722334D02*
X45827190Y34389000D01*
X46303380Y34150905D02*
X45303380Y34150905D01*
X45303380Y34531858D01*
X45351000Y34627096D01*
X45398619Y34674715D01*
X45493857Y34722334D01*
X45636714Y34722334D01*
X45731952Y34674715D01*
X45779571Y34627096D01*
X45827190Y34531858D01*
X45827190Y34150905D01*
X45303380Y35055667D02*
X45303380Y35722334D01*
X46303380Y35293762D01*
%TO.C,R3*%
X112746333Y37486620D02*
X112413000Y37962810D01*
X112174904Y37486620D02*
X112174904Y38486620D01*
X112555857Y38486620D01*
X112651095Y38439000D01*
X112698714Y38391381D01*
X112746333Y38296143D01*
X112746333Y38153286D01*
X112698714Y38058048D01*
X112651095Y38010429D01*
X112555857Y37962810D01*
X112174904Y37962810D01*
X113079666Y38486620D02*
X113698714Y38486620D01*
X113365380Y38105667D01*
X113508238Y38105667D01*
X113603476Y38058048D01*
X113651095Y38010429D01*
X113698714Y37915191D01*
X113698714Y37677096D01*
X113651095Y37581858D01*
X113603476Y37534239D01*
X113508238Y37486620D01*
X113222523Y37486620D01*
X113127285Y37534239D01*
X113079666Y37581858D01*
%TO.C,D1*%
X61501904Y32833620D02*
X61501904Y33833620D01*
X61740000Y33833620D01*
X61882857Y33786000D01*
X61978095Y33690762D01*
X62025714Y33595524D01*
X62073333Y33405048D01*
X62073333Y33262191D01*
X62025714Y33071715D01*
X61978095Y32976477D01*
X61882857Y32881239D01*
X61740000Y32833620D01*
X61501904Y32833620D01*
X63025714Y32833620D02*
X62454285Y32833620D01*
X62740000Y32833620D02*
X62740000Y33833620D01*
X62644761Y33690762D01*
X62549523Y33595524D01*
X62454285Y33547905D01*
X52525714Y28833620D02*
X51954285Y28833620D01*
X52240000Y28833620D02*
X52240000Y29833620D01*
X52144761Y29690762D01*
X52049523Y29595524D01*
X51954285Y29547905D01*
X72049523Y10833620D02*
X72240000Y10833620D01*
X72335238Y10881239D01*
X72382857Y10928858D01*
X72478095Y11071715D01*
X72525714Y11262191D01*
X72525714Y11643143D01*
X72478095Y11738381D01*
X72430476Y11786000D01*
X72335238Y11833620D01*
X72144761Y11833620D01*
X72049523Y11786000D01*
X72001904Y11738381D01*
X71954285Y11643143D01*
X71954285Y11405048D01*
X72001904Y11309810D01*
X72049523Y11262191D01*
X72144761Y11214572D01*
X72335238Y11214572D01*
X72430476Y11262191D01*
X72478095Y11309810D01*
X72525714Y11405048D01*
X52144761Y11405048D02*
X52049523Y11452667D01*
X52001904Y11500286D01*
X51954285Y11595524D01*
X51954285Y11643143D01*
X52001904Y11738381D01*
X52049523Y11786000D01*
X52144761Y11833620D01*
X52335238Y11833620D01*
X52430476Y11786000D01*
X52478095Y11738381D01*
X52525714Y11643143D01*
X52525714Y11595524D01*
X52478095Y11500286D01*
X52430476Y11452667D01*
X52335238Y11405048D01*
X52144761Y11405048D01*
X52049523Y11357429D01*
X52001904Y11309810D01*
X51954285Y11214572D01*
X51954285Y11024096D01*
X52001904Y10928858D01*
X52049523Y10881239D01*
X52144761Y10833620D01*
X52335238Y10833620D01*
X52430476Y10881239D01*
X52478095Y10928858D01*
X52525714Y11024096D01*
X52525714Y11214572D01*
X52478095Y11309810D01*
X52430476Y11357429D01*
X52335238Y11405048D01*
X72049523Y28833620D02*
X71478095Y28833620D01*
X71763809Y28833620D02*
X71763809Y29833620D01*
X71668571Y29690762D01*
X71573333Y29595524D01*
X71478095Y29547905D01*
X72906666Y29833620D02*
X72716190Y29833620D01*
X72620952Y29786000D01*
X72573333Y29738381D01*
X72478095Y29595524D01*
X72430476Y29405048D01*
X72430476Y29024096D01*
X72478095Y28928858D01*
X72525714Y28881239D01*
X72620952Y28833620D01*
X72811428Y28833620D01*
X72906666Y28881239D01*
X72954285Y28928858D01*
X73001904Y29024096D01*
X73001904Y29262191D01*
X72954285Y29357429D01*
X72906666Y29405048D01*
X72811428Y29452667D01*
X72620952Y29452667D01*
X72525714Y29405048D01*
X72478095Y29357429D01*
X72430476Y29262191D01*
D11*
%TO.C,Y2*%
X29168000Y52346000D02*
X30268000Y52346000D01*
X29168000Y54246000D02*
X30268000Y54246000D01*
X27768000Y54196000D02*
X27768000Y52396000D01*
%TO.C,U5*%
X76783000Y40740000D02*
X76783000Y42390000D01*
X46183000Y40740000D02*
X76783000Y40740000D01*
X76783000Y44390000D02*
X76783000Y46040000D01*
X76783000Y46040000D02*
X46183000Y46040000D01*
X46183000Y46040000D02*
X46183000Y40740000D01*
X76783000Y44390000D02*
G75*
G03*
X76783000Y42390000I0J-1000000D01*
G01*
%TO.C,SW1*%
X121300000Y44700000D02*
X121000000Y44400000D01*
X126500000Y46500000D02*
X122400000Y46500000D01*
X122400000Y46500000D02*
X122400000Y34700000D01*
X134600000Y46500000D02*
X134600000Y44100000D01*
X120700000Y44700000D02*
X121300000Y44700000D01*
X128000000Y40600000D02*
X129000000Y40600000D01*
X134600000Y37100000D02*
X134600000Y34700000D01*
X134600000Y34700000D02*
X130500000Y34700000D01*
X121000000Y44400000D02*
X120700000Y44700000D01*
X130500000Y46500000D02*
X134600000Y46500000D01*
X126500000Y34700000D02*
X122400000Y34700000D01*
X134600000Y41900000D02*
X134600000Y39300000D01*
X128500000Y41100000D02*
X128500000Y40100000D01*
X131500000Y40600000D02*
G75*
G03*
X131500000Y40600000I-3000000J0D01*
G01*
D10*
%TO.C,D2*%
X41618000Y7286000D02*
X41618000Y5286000D01*
X11618000Y5286000D02*
X11618000Y7286000D01*
X40868000Y29286000D02*
X40618000Y28536000D01*
X12618000Y21286000D02*
X12618000Y19286000D01*
X41618000Y5286000D02*
X39618000Y5286000D01*
X13618000Y5286000D02*
X11618000Y5286000D01*
X41618000Y35286000D02*
X41618000Y33286000D01*
X11618000Y33286000D02*
X11618000Y35286000D01*
X37618000Y32536000D02*
X36868000Y32286000D01*
X40618000Y31286000D02*
X40618000Y29286000D01*
X40368000Y29286000D02*
X40868000Y29286000D01*
X11618000Y35286000D02*
X13618000Y35286000D01*
X37618000Y32036000D02*
X37618000Y32536000D01*
X39618000Y32286000D02*
X37618000Y32286000D01*
X11618000Y21286000D02*
X11618000Y23286000D01*
X11618000Y19286000D02*
X11618000Y17286000D01*
X11618000Y21286000D02*
X12618000Y21286000D01*
X39618000Y35286000D02*
X41618000Y35286000D01*
X40618000Y28536000D02*
X40368000Y29286000D01*
X36868000Y32286000D02*
X37618000Y32036000D01*
X12618000Y19286000D02*
X11618000Y19286000D01*
X15618000Y29176000D02*
G75*
G03*
X15618000Y29176000I-1000000J0D01*
G01*
D11*
%TO.C,A_TP1*%
X117415000Y46321000D02*
G75*
G03*
X117415000Y46321000I-1200000J0D01*
G01*
%TO.C,U1*%
X112095000Y14005000D02*
X113195000Y14005000D01*
X112095000Y14275000D02*
X112095000Y14005000D01*
X110595000Y14275000D02*
X112095000Y14275000D01*
X112095000Y7645000D02*
X114925000Y7645000D01*
X112095000Y7375000D02*
X112095000Y7645000D01*
X110595000Y7375000D02*
X112095000Y7375000D01*
%TO.C,DO_TP1*%
X84800000Y3900000D02*
G75*
G03*
X84800000Y3900000I-1200000J0D01*
G01*
%TO.C,Y1*%
X84348000Y14640000D02*
X84348000Y27240000D01*
X79248000Y27240000D02*
X79248000Y14640000D01*
X84348000Y27240000D02*
X79248000Y27240000D01*
%TO.C,TX_TP1*%
X111300000Y37500000D02*
G75*
G03*
X111300000Y37500000I-1200000J0D01*
G01*
%TO.C,VCC_TP1*%
X104715000Y3395000D02*
G75*
G03*
X104715000Y3395000I-1200000J0D01*
G01*
%TO.C,U6*%
X41726000Y40750000D02*
X41726000Y42400000D01*
X41726000Y44400000D02*
X41726000Y46050000D01*
X41726000Y46050000D02*
X11126000Y46050000D01*
X11126000Y40750000D02*
X41726000Y40750000D01*
X11126000Y46050000D02*
X11126000Y40750000D01*
X41726000Y44400000D02*
G75*
G03*
X41726000Y42400000I0J-1000000D01*
G01*
%TO.C,RX_TP1*%
X111200000Y32700000D02*
G75*
G03*
X111200000Y32700000I-1200000J0D01*
G01*
%TO.C,B_TP1*%
X119066000Y34383000D02*
G75*
G03*
X119066000Y34383000I-1200000J0D01*
G01*
%TO.C,DS1*%
X53180000Y56157500D02*
X53180000Y81157500D01*
X130320000Y50517500D02*
X130320000Y86797500D01*
X57880280Y61658180D02*
X57880280Y75657500D01*
X121880660Y61157500D02*
X58380000Y61157500D01*
X50050000Y86797500D02*
X50840000Y86797500D01*
X126180000Y81157500D02*
X126180000Y56157500D01*
X56680000Y87157500D02*
X59680000Y87157500D01*
X130320000Y86797500D02*
X50840000Y86797500D01*
X53180000Y81157500D02*
X126180000Y81157500D01*
X58380000Y76157500D02*
X121880000Y76157500D01*
X126180000Y56157500D02*
X53180000Y56157500D01*
X122380000Y75657500D02*
X122380000Y61657500D01*
X50040000Y86797500D02*
X50040000Y50517500D01*
X50040000Y50517500D02*
X130320000Y50517500D01*
X58380660Y76159040D02*
G75*
G03*
X57880280Y75658660I0J-500380D01*
G01*
X122380000Y75657500D02*
G75*
G03*
X121880000Y76157500I-500000J0D01*
G01*
X57880280Y61658180D02*
G75*
G03*
X58380660Y61157800I500380J0D01*
G01*
X121880660Y61157760D02*
G75*
G03*
X122381040Y61658180I-60J500440D01*
G01*
%TO.C,U4*%
X37408000Y63322000D02*
X27128000Y63322000D01*
X27128000Y58022000D02*
X37408000Y58022000D01*
X27128000Y59672000D02*
X27128000Y58022000D01*
X37408000Y58022000D02*
X37408000Y63322000D01*
X27128000Y63322000D02*
X27128000Y61672000D01*
X27128000Y59672000D02*
G75*
G03*
X27128000Y61672000I0J1000000D01*
G01*
%TO.C,RV1*%
X36258000Y75599000D02*
X46028000Y75599000D01*
X36258000Y85369000D02*
X36258000Y75599000D01*
X46028000Y85369000D02*
X46028000Y75599000D01*
X36258000Y85369000D02*
X46028000Y85369000D01*
%TO.C,VBAT_TP1*%
X23435000Y83532000D02*
G75*
G03*
X23435000Y83532000I-1200000J0D01*
G01*
%TO.C,TP_GND1*%
X122500000Y3400000D02*
G75*
G03*
X122500000Y3400000I-1200000J0D01*
G01*
%TO.C,U2*%
X96904000Y43958000D02*
X95254000Y43958000D01*
X91604000Y8278000D02*
X96904000Y8278000D01*
X96904000Y8278000D02*
X96904000Y43958000D01*
X91604000Y43958000D02*
X91604000Y8278000D01*
X93254000Y43958000D02*
X91604000Y43958000D01*
X93254000Y43958000D02*
G75*
G03*
X95254000Y43958000I1000000J0D01*
G01*
%TO.C,SW2*%
X108938000Y26466000D02*
X108938000Y25466000D01*
X102388000Y18366000D02*
X102388000Y24366000D01*
X107938000Y26466000D02*
X108938000Y26466000D01*
X106938000Y24466000D02*
X104338000Y24466000D01*
X108888000Y18466000D02*
X108888000Y24266000D01*
X106938000Y18266000D02*
X104338000Y18266000D01*
D10*
%TO.C,D1*%
X75240000Y32286000D02*
X73240000Y32286000D01*
X48240000Y21286000D02*
X48240000Y19286000D01*
X47240000Y19286000D02*
X47240000Y17286000D01*
X76490000Y29286000D02*
X76240000Y28536000D01*
X72490000Y32286000D02*
X73240000Y32036000D01*
X49240000Y5286000D02*
X47240000Y5286000D01*
X73240000Y32036000D02*
X73240000Y32536000D01*
X48240000Y19286000D02*
X47240000Y19286000D01*
X77240000Y7286000D02*
X77240000Y5286000D01*
X75240000Y35286000D02*
X77240000Y35286000D01*
X76240000Y31286000D02*
X76240000Y29286000D01*
X76240000Y28536000D02*
X75990000Y29286000D01*
X47240000Y35286000D02*
X49240000Y35286000D01*
X77240000Y5286000D02*
X75240000Y5286000D01*
X75990000Y29286000D02*
X76490000Y29286000D01*
X47240000Y5286000D02*
X47240000Y7286000D01*
X47240000Y21286000D02*
X47240000Y23286000D01*
X77240000Y35286000D02*
X77240000Y33286000D01*
X47240000Y21286000D02*
X48240000Y21286000D01*
X47240000Y33286000D02*
X47240000Y35286000D01*
X73240000Y32536000D02*
X72490000Y32286000D01*
X51240000Y29176000D02*
G75*
G03*
X51240000Y29176000I-1000000J0D01*
G01*
%TD*%
%LPC*%
D12*
%TO.C,C7*%
X44500000Y26800000D03*
X44500000Y25100000D03*
%TD*%
D13*
%TO.C,Y2*%
X28468000Y53296000D03*
X30968000Y53296000D03*
%TD*%
D14*
%TO.C,R1*%
X85774000Y29557000D03*
X87474000Y29557000D03*
%TD*%
D15*
%TO.C,H4*%
X135000000Y5000000D03*
%TD*%
D12*
%TO.C,C8*%
X7100000Y21600000D03*
X7100000Y19900000D03*
%TD*%
D16*
%TO.C,U5*%
X75453000Y47200000D03*
D17*
X72913000Y47200000D03*
X70373000Y47200000D03*
X67833000Y47200000D03*
X65293000Y47200000D03*
X62753000Y47200000D03*
X60213000Y47200000D03*
X57673000Y47200000D03*
X55133000Y47200000D03*
X52593000Y47200000D03*
X50053000Y47200000D03*
X47513000Y47200000D03*
X47513000Y39580000D03*
X50053000Y39580000D03*
X52593000Y39580000D03*
X55133000Y39580000D03*
X57673000Y39580000D03*
X60213000Y39580000D03*
X62753000Y39580000D03*
X65293000Y39580000D03*
X67833000Y39580000D03*
X70373000Y39580000D03*
X72913000Y39580000D03*
X75453000Y39580000D03*
%TD*%
D12*
%TO.C,C6*%
X81798000Y12500000D03*
X81798000Y10800000D03*
%TD*%
D15*
%TO.C,SW1*%
X128500000Y46200000D03*
X128500000Y35000000D03*
D18*
X121000000Y43100000D03*
D19*
X121000000Y38100000D03*
X121000000Y40600000D03*
X135500000Y38100000D03*
X135500000Y43100000D03*
%TD*%
D20*
%TO.C,D2*%
X14618000Y29176000D03*
X14618000Y26636000D03*
X14618000Y24096000D03*
X14618000Y21556000D03*
X14618000Y19016000D03*
X14618000Y16476000D03*
X14618000Y13936000D03*
X14618000Y11396000D03*
X38618000Y11396000D03*
X38618000Y13936000D03*
X38618000Y16476000D03*
X38618000Y19016000D03*
X38618000Y21556000D03*
X38618000Y24096000D03*
X38618000Y26636000D03*
X38618000Y29176000D03*
%TD*%
D12*
%TO.C,R9*%
X6800000Y32800000D03*
X6800000Y34500000D03*
%TD*%
%TO.C,C1*%
X100721000Y24096000D03*
X100721000Y22396000D03*
%TD*%
%TO.C,R6*%
X44200000Y30200000D03*
X44200000Y31900000D03*
%TD*%
D14*
%TO.C,C11*%
X101649000Y30319000D03*
X103349000Y30319000D03*
%TD*%
D19*
%TO.C,A_TP1*%
X116215000Y46321000D03*
%TD*%
D12*
%TO.C,C3*%
X102200000Y10300000D03*
X102200000Y8600000D03*
%TD*%
D21*
%TO.C,U1*%
X113825000Y8545000D03*
D22*
X107525000Y10825000D03*
D21*
X113825000Y13105000D03*
%TD*%
D12*
%TO.C,C10*%
X7000000Y26200000D03*
X7000000Y24500000D03*
%TD*%
D14*
%TO.C,C4*%
X92251000Y3903000D03*
X93951000Y3903000D03*
%TD*%
D19*
%TO.C,DO_TP1*%
X83600000Y3900000D03*
%TD*%
D12*
%TO.C,C9*%
X44700000Y21600000D03*
X44700000Y19900000D03*
%TD*%
%TO.C,R12*%
X38745000Y52368000D03*
X38745000Y54068000D03*
%TD*%
D23*
%TO.C,Y1*%
X81798000Y24790000D03*
X81798000Y16290000D03*
%TD*%
D19*
%TO.C,TX_TP1*%
X110100000Y37500000D03*
%TD*%
D12*
%TO.C,R11*%
X133350000Y76350000D03*
X133350000Y74650000D03*
%TD*%
%TO.C,R4*%
X48700000Y53800000D03*
X48700000Y52100000D03*
%TD*%
D19*
%TO.C,VCC_TP1*%
X103515000Y3395000D03*
%TD*%
D12*
%TO.C,C5*%
X81290000Y28580000D03*
X81290000Y30280000D03*
%TD*%
D16*
%TO.C,U6*%
X40396000Y47210000D03*
D17*
X37856000Y47210000D03*
X35316000Y47210000D03*
X32776000Y47210000D03*
X30236000Y47210000D03*
X27696000Y47210000D03*
X25156000Y47210000D03*
X22616000Y47210000D03*
X20076000Y47210000D03*
X17536000Y47210000D03*
X14996000Y47210000D03*
X12456000Y47210000D03*
X12456000Y39590000D03*
X14996000Y39590000D03*
X17536000Y39590000D03*
X20076000Y39590000D03*
X22616000Y39590000D03*
X25156000Y39590000D03*
X27696000Y39590000D03*
X30236000Y39590000D03*
X32776000Y39590000D03*
X35316000Y39590000D03*
X37856000Y39590000D03*
X40396000Y39590000D03*
%TD*%
D15*
%TO.C,H2*%
X135000000Y85000000D03*
%TD*%
%TO.C,H3*%
X5000000Y5000000D03*
%TD*%
D19*
%TO.C,RX_TP1*%
X110000000Y32700000D03*
%TD*%
%TO.C,B_TP1*%
X117866000Y34383000D03*
%TD*%
D12*
%TO.C,R13*%
X40269000Y68165000D03*
X40269000Y66465000D03*
%TD*%
D15*
%TO.C,H1*%
X5000000Y85000000D03*
%TD*%
D24*
%TO.C,DS1*%
X127680000Y84157500D03*
X52680900Y53156800D03*
X52680900Y84157500D03*
X127679480Y53156800D03*
D25*
X58180000Y84157500D03*
D26*
X60720000Y84157500D03*
X63260000Y84157500D03*
X65800000Y84157500D03*
X68340000Y84157500D03*
X70880000Y84157500D03*
X73420000Y84157500D03*
X75960000Y84157500D03*
X78500000Y84157500D03*
X81040000Y84157500D03*
X83580000Y84157500D03*
X86120000Y84157500D03*
X88660000Y84157500D03*
X91200000Y84157500D03*
X93740000Y84157500D03*
X96280000Y84157500D03*
%TD*%
D12*
%TO.C,R5*%
X9400000Y47700000D03*
X9400000Y46000000D03*
%TD*%
D14*
%TO.C,R2*%
X115531000Y38066000D03*
X117231000Y38066000D03*
%TD*%
D16*
%TO.C,U4*%
X28458000Y56862000D03*
D17*
X30998000Y56862000D03*
X33538000Y56862000D03*
X36078000Y56862000D03*
X36078000Y64482000D03*
X33538000Y64482000D03*
X30998000Y64482000D03*
X28458000Y64482000D03*
%TD*%
D14*
%TO.C,C12*%
X130650000Y25200000D03*
X132350000Y25200000D03*
%TD*%
D27*
%TO.C,RV1*%
X41158000Y77944000D03*
X43698000Y80484000D03*
X41158000Y83024000D03*
%TD*%
D19*
%TO.C,VBAT_TP1*%
X22235000Y83532000D03*
%TD*%
%TO.C,TP_GND1*%
X121300000Y3400000D03*
%TD*%
D12*
%TO.C,C2*%
X116500000Y8500000D03*
X116500000Y6800000D03*
%TD*%
%TO.C,R8*%
X6900000Y28700000D03*
X6900000Y30400000D03*
%TD*%
D16*
%TO.C,U2*%
X90444000Y42628000D03*
D17*
X90444000Y40088000D03*
X90444000Y37548000D03*
X90444000Y35008000D03*
X90444000Y32468000D03*
X90444000Y29928000D03*
X90444000Y27388000D03*
X90444000Y24848000D03*
X90444000Y22308000D03*
X90444000Y19768000D03*
X90444000Y17228000D03*
X90444000Y14688000D03*
X90444000Y12148000D03*
X90444000Y9608000D03*
X98064000Y9608000D03*
X98064000Y12148000D03*
X98064000Y14688000D03*
X98064000Y17228000D03*
X98064000Y19768000D03*
X98064000Y22308000D03*
X98064000Y24848000D03*
X98064000Y27388000D03*
X98064000Y29928000D03*
X98064000Y32468000D03*
X98064000Y35008000D03*
X98064000Y37548000D03*
X98064000Y40088000D03*
X98064000Y42628000D03*
%TD*%
D28*
%TO.C,SW2*%
X107888000Y25366000D03*
X107888000Y17366000D03*
X103388000Y25366000D03*
X103388000Y17366000D03*
%TD*%
D14*
%TO.C,R10*%
X113382000Y22826000D03*
X111682000Y22826000D03*
%TD*%
D12*
%TO.C,R7*%
X44200000Y34000000D03*
X44200000Y35700000D03*
%TD*%
D14*
%TO.C,R3*%
X117954000Y41114000D03*
X116254000Y41114000D03*
%TD*%
D20*
%TO.C,D1*%
X50240000Y29176000D03*
X50240000Y26636000D03*
X50240000Y24096000D03*
X50240000Y21556000D03*
X50240000Y19016000D03*
X50240000Y16476000D03*
X50240000Y13936000D03*
X50240000Y11396000D03*
X74240000Y11396000D03*
X74240000Y13936000D03*
X74240000Y16476000D03*
X74240000Y19016000D03*
X74240000Y21556000D03*
X74240000Y24096000D03*
X74240000Y26636000D03*
X74240000Y29176000D03*
%TD*%
D29*
%TO.C,J1*%
X118500000Y13200000D03*
D30*
X120800000Y18500000D03*
X124500000Y16000000D03*
%TD*%
D31*
%TO.C,BT1*%
X14900000Y84800000D03*
D24*
X14900000Y64310000D03*
%TD*%
D32*
%TO.C,J2*%
X106690000Y43273000D03*
D33*
X106690000Y40733000D03*
X106690000Y38193000D03*
X106690000Y35653000D03*
X106690000Y33113000D03*
X106690000Y30573000D03*
%TD*%
M02*
