%TF.GenerationSoftware,KiCad,Pcbnew,(6.0.5)*%
%TF.CreationDate,2022-07-22T16:06:37-04:00*%
%TF.ProjectId,Clock,436c6f63-6b2e-46b6-9963-61645f706362,rev?*%
%TF.SameCoordinates,PX4c4b400PY8a48640*%
%TF.FileFunction,Legend,Bot*%
%TF.FilePolarity,Positive*%
%FSLAX46Y46*%
G04 Gerber Fmt 4.6, Leading zero omitted, Abs format (unit mm)*
G04 Created by KiCad (PCBNEW (6.0.5)) date 2022-07-22 16:06:37*
%MOMM*%
%LPD*%
G01*
G04 APERTURE LIST*
G04 Aperture macros list*
%AMRoundRect*
0 Rectangle with rounded corners*
0 $1 Rounding radius*
0 $2 $3 $4 $5 $6 $7 $8 $9 X,Y pos of 4 corners*
0 Add a 4 corners polygon primitive as box body*
4,1,4,$2,$3,$4,$5,$6,$7,$8,$9,$2,$3,0*
0 Add four circle primitives for the rounded corners*
1,1,$1+$1,$2,$3*
1,1,$1+$1,$4,$5*
1,1,$1+$1,$6,$7*
1,1,$1+$1,$8,$9*
0 Add four rect primitives between the rounded corners*
20,1,$1+$1,$2,$3,$4,$5,0*
20,1,$1+$1,$4,$5,$6,$7,0*
20,1,$1+$1,$6,$7,$8,$9,0*
20,1,$1+$1,$8,$9,$2,$3,0*%
G04 Aperture macros list end*
%ADD10C,0.300000*%
%ADD11C,0.150000*%
%ADD12C,0.120000*%
%ADD13R,1.600000X1.600000*%
%ADD14O,1.600000X1.600000*%
%ADD15C,3.200000*%
%ADD16R,2.000000X2.000000*%
%ADD17C,2.000000*%
%ADD18C,3.000000*%
%ADD19R,1.800000X2.600000*%
%ADD20O,1.800000X2.600000*%
%ADD21C,1.440000*%
%ADD22C,1.524000*%
%ADD23R,1.700000X1.700000*%
%ADD24O,1.700000X1.700000*%
%ADD25RoundRect,0.500000X-0.500000X1.750000X-0.500000X-1.750000X0.500000X-1.750000X0.500000X1.750000X0*%
%ADD26RoundRect,0.500000X-1.500000X-0.500000X1.500000X-0.500000X1.500000X0.500000X-1.500000X0.500000X0*%
%ADD27R,3.000000X3.000000*%
G04 APERTURE END LIST*
D10*
%TO.C,G\u002A\u002A\u002A*%
X41742571Y62662000D02*
X41887714Y62734572D01*
X42105428Y62734572D01*
X42323142Y62662000D01*
X42468285Y62516858D01*
X42540857Y62371715D01*
X42613428Y62081429D01*
X42613428Y61863715D01*
X42540857Y61573429D01*
X42468285Y61428286D01*
X42323142Y61283143D01*
X42105428Y61210572D01*
X41960285Y61210572D01*
X41742571Y61283143D01*
X41670000Y61355715D01*
X41670000Y61863715D01*
X41960285Y61863715D01*
X40799142Y62734572D02*
X40799142Y62371715D01*
X41162000Y62516858D02*
X40799142Y62371715D01*
X40436285Y62516858D01*
X41016857Y62081429D02*
X40799142Y62371715D01*
X40581428Y62081429D01*
X39638000Y62734572D02*
X39638000Y62371715D01*
X40000857Y62516858D02*
X39638000Y62371715D01*
X39275142Y62516858D01*
X39855714Y62081429D02*
X39638000Y62371715D01*
X39420285Y62081429D01*
X38476857Y62734572D02*
X38476857Y62371715D01*
X38839714Y62516858D02*
X38476857Y62371715D01*
X38114000Y62516858D01*
X38694571Y62081429D02*
X38476857Y62371715D01*
X38259142Y62081429D01*
X112477571Y52544000D02*
X112622714Y52616572D01*
X112840428Y52616572D01*
X113058142Y52544000D01*
X113203285Y52398858D01*
X113275857Y52253715D01*
X113348428Y51963429D01*
X113348428Y51745715D01*
X113275857Y51455429D01*
X113203285Y51310286D01*
X113058142Y51165143D01*
X112840428Y51092572D01*
X112695285Y51092572D01*
X112477571Y51165143D01*
X112405000Y51237715D01*
X112405000Y51745715D01*
X112695285Y51745715D01*
X111534142Y52616572D02*
X111534142Y52253715D01*
X111897000Y52398858D02*
X111534142Y52253715D01*
X111171285Y52398858D01*
X111751857Y51963429D02*
X111534142Y52253715D01*
X111316428Y51963429D01*
X110373000Y52616572D02*
X110373000Y52253715D01*
X110735857Y52398858D02*
X110373000Y52253715D01*
X110010142Y52398858D01*
X110590714Y51963429D02*
X110373000Y52253715D01*
X110155285Y51963429D01*
X109211857Y52616572D02*
X109211857Y52253715D01*
X109574714Y52398858D02*
X109211857Y52253715D01*
X108849000Y52398858D01*
X109429571Y51963429D02*
X109211857Y52253715D01*
X108994142Y51963429D01*
D11*
%TO.C,J1*%
X121666666Y7652381D02*
X121666666Y8366667D01*
X121619047Y8509524D01*
X121523809Y8604762D01*
X121380952Y8652381D01*
X121285714Y8652381D01*
X122666666Y8652381D02*
X122095238Y8652381D01*
X122380952Y8652381D02*
X122380952Y7652381D01*
X122285714Y7795239D01*
X122190476Y7890477D01*
X122095238Y7938096D01*
D10*
%TO.C,G\u002A\u002A\u002A*%
X72942571Y54762000D02*
X73087714Y54834572D01*
X73305428Y54834572D01*
X73523142Y54762000D01*
X73668285Y54616858D01*
X73740857Y54471715D01*
X73813428Y54181429D01*
X73813428Y53963715D01*
X73740857Y53673429D01*
X73668285Y53528286D01*
X73523142Y53383143D01*
X73305428Y53310572D01*
X73160285Y53310572D01*
X72942571Y53383143D01*
X72870000Y53455715D01*
X72870000Y53963715D01*
X73160285Y53963715D01*
X71999142Y54834572D02*
X71999142Y54471715D01*
X72362000Y54616858D02*
X71999142Y54471715D01*
X71636285Y54616858D01*
X72216857Y54181429D02*
X71999142Y54471715D01*
X71781428Y54181429D01*
X70838000Y54834572D02*
X70838000Y54471715D01*
X71200857Y54616858D02*
X70838000Y54471715D01*
X70475142Y54616858D01*
X71055714Y54181429D02*
X70838000Y54471715D01*
X70620285Y54181429D01*
X69676857Y54834572D02*
X69676857Y54471715D01*
X70039714Y54616858D02*
X69676857Y54471715D01*
X69314000Y54616858D01*
X69894571Y54181429D02*
X69676857Y54471715D01*
X69459142Y54181429D01*
D11*
%TO.C,BT1*%
X10328571Y86835715D02*
X10376190Y86692858D01*
X10423809Y86645239D01*
X10519047Y86597620D01*
X10661904Y86597620D01*
X10757142Y86645239D01*
X10804761Y86692858D01*
X10852380Y86788096D01*
X10852380Y87169048D01*
X9852380Y87169048D01*
X9852380Y86835715D01*
X9900000Y86740477D01*
X9947619Y86692858D01*
X10042857Y86645239D01*
X10138095Y86645239D01*
X10233333Y86692858D01*
X10280952Y86740477D01*
X10328571Y86835715D01*
X10328571Y87169048D01*
X9852380Y86311905D02*
X9852380Y85740477D01*
X10852380Y86026191D02*
X9852380Y86026191D01*
X10852380Y84883334D02*
X10852380Y85454762D01*
X10852380Y85169048D02*
X9852380Y85169048D01*
X9995238Y85264286D01*
X10090476Y85359524D01*
X10138095Y85454762D01*
X15007142Y82621429D02*
X15007142Y81478572D01*
X15578571Y82050000D02*
X14435714Y82050000D01*
D10*
%TO.C,G\u002A\u002A\u002A*%
X97042571Y65762000D02*
X97187714Y65834572D01*
X97405428Y65834572D01*
X97623142Y65762000D01*
X97768285Y65616858D01*
X97840857Y65471715D01*
X97913428Y65181429D01*
X97913428Y64963715D01*
X97840857Y64673429D01*
X97768285Y64528286D01*
X97623142Y64383143D01*
X97405428Y64310572D01*
X97260285Y64310572D01*
X97042571Y64383143D01*
X96970000Y64455715D01*
X96970000Y64963715D01*
X97260285Y64963715D01*
X96099142Y65834572D02*
X96099142Y65471715D01*
X96462000Y65616858D02*
X96099142Y65471715D01*
X95736285Y65616858D01*
X96316857Y65181429D02*
X96099142Y65471715D01*
X95881428Y65181429D01*
X94938000Y65834572D02*
X94938000Y65471715D01*
X95300857Y65616858D02*
X94938000Y65471715D01*
X94575142Y65616858D01*
X95155714Y65181429D02*
X94938000Y65471715D01*
X94720285Y65181429D01*
X93776857Y65834572D02*
X93776857Y65471715D01*
X94139714Y65616858D02*
X93776857Y65471715D01*
X93414000Y65616858D01*
X93994571Y65181429D02*
X93776857Y65471715D01*
X93559142Y65181429D01*
X55599257Y5866624D02*
X55744400Y5939196D01*
X55962114Y5939196D01*
X56179828Y5866624D01*
X56324971Y5721482D01*
X56397543Y5576339D01*
X56470114Y5286053D01*
X56470114Y5068339D01*
X56397543Y4778053D01*
X56324971Y4632910D01*
X56179828Y4487767D01*
X55962114Y4415196D01*
X55816971Y4415196D01*
X55599257Y4487767D01*
X55526686Y4560339D01*
X55526686Y5068339D01*
X55816971Y5068339D01*
X54655828Y5939196D02*
X54655828Y5576339D01*
X55018686Y5721482D02*
X54655828Y5576339D01*
X54292971Y5721482D01*
X54873543Y5286053D02*
X54655828Y5576339D01*
X54438114Y5286053D01*
X53494686Y5939196D02*
X53494686Y5576339D01*
X53857543Y5721482D02*
X53494686Y5576339D01*
X53131828Y5721482D01*
X53712400Y5286053D02*
X53494686Y5576339D01*
X53276971Y5286053D01*
X52333543Y5939196D02*
X52333543Y5576339D01*
X52696400Y5721482D02*
X52333543Y5576339D01*
X51970686Y5721482D01*
X52551257Y5286053D02*
X52333543Y5576339D01*
X52115828Y5286053D01*
D11*
%TO.C,J2*%
X107023333Y46150620D02*
X107023333Y45436334D01*
X107070952Y45293477D01*
X107166190Y45198239D01*
X107309047Y45150620D01*
X107404285Y45150620D01*
X106594761Y46055381D02*
X106547142Y46103000D01*
X106451904Y46150620D01*
X106213809Y46150620D01*
X106118571Y46103000D01*
X106070952Y46055381D01*
X106023333Y45960143D01*
X106023333Y45864905D01*
X106070952Y45722048D01*
X106642380Y45150620D01*
X106023333Y45150620D01*
%TO.C,D2*%
X15700000Y29290000D02*
G75*
G03*
X15700000Y29290000I-1000000J0D01*
G01*
%TO.C,D1*%
X51200000Y29360000D02*
G75*
G03*
X51200000Y29360000I-1000000J0D01*
G01*
D12*
%TO.C,J1*%
X117500000Y19700000D02*
X126500000Y19700000D01*
X117500000Y9000000D02*
X126500000Y9000000D01*
X126500000Y19700000D02*
X126500000Y16950000D01*
X117500000Y9000000D02*
X117500000Y10950000D01*
X117500000Y19700000D02*
X117500000Y15450000D01*
X126500000Y9000000D02*
X126500000Y14950000D01*
X119800000Y10900000D02*
G75*
G03*
X124866245Y14583705I2200000J2300000D01*
G01*
X122000000Y16400000D02*
G75*
G03*
X119737258Y15462742I-2J-3199997D01*
G01*
%TO.C,BT1*%
X11850000Y83850000D02*
X11850000Y86300000D01*
X12400000Y86850000D02*
X17400000Y86850000D01*
X17950000Y86300000D02*
X17950000Y83850000D01*
X14384009Y59536557D02*
G75*
G03*
X18420000Y83150000I515991J12063443D01*
G01*
X17950000Y86300000D02*
G75*
G03*
X17400000Y86850000I-549999J1D01*
G01*
X17950000Y83850000D02*
G75*
G03*
X18443485Y83145231I750000J0D01*
G01*
X12400000Y86850000D02*
G75*
G03*
X11850000Y86300000I-1J-549999D01*
G01*
X11380000Y83150000D02*
G75*
G03*
X15415991Y59536557I3520000J-11550000D01*
G01*
X11356515Y83145231D02*
G75*
G03*
X11850000Y83850000I-256515J704769D01*
G01*
%TO.C,J2*%
X108020000Y42003000D02*
X108020000Y29243000D01*
X105360000Y42003000D02*
X105360000Y29243000D01*
X108020000Y44603000D02*
X106690000Y44603000D01*
X108020000Y29243000D02*
X105360000Y29243000D01*
X108020000Y42003000D02*
X105360000Y42003000D01*
X108020000Y43273000D02*
X108020000Y44603000D01*
%TD*%
%LPC*%
%TO.C,G\u002A\u002A\u002A*%
G36*
X53567071Y67299567D02*
G01*
X53641177Y67216509D01*
X53644963Y67210880D01*
X53752534Y67068408D01*
X53881192Y66918132D01*
X53906847Y66889509D01*
X53985702Y66786924D01*
X54004752Y66733997D01*
X53988026Y66722588D01*
X53891161Y66667258D01*
X53743851Y66588656D01*
X53540600Y66495309D01*
X53406254Y66465558D01*
X53360789Y66508898D01*
X53364816Y66556576D01*
X53386976Y66699513D01*
X53421541Y66885684D01*
X53460539Y67075220D01*
X53495999Y67228252D01*
X53519948Y67304908D01*
X53567071Y67299567D01*
G37*
G36*
X43519025Y56972622D02*
G01*
X43519025Y65949998D01*
X43754756Y65949998D01*
X43797346Y65923832D01*
X43935981Y65866584D01*
X44153558Y65785542D01*
X44432297Y65686617D01*
X44754424Y65575717D01*
X45102159Y65458754D01*
X45457728Y65341636D01*
X45803351Y65230275D01*
X46121253Y65130579D01*
X46393656Y65048460D01*
X46602784Y64989827D01*
X46730858Y64960590D01*
X46767630Y64955401D01*
X46928694Y64935378D01*
X47170357Y64907267D01*
X47466660Y64874049D01*
X47791647Y64838709D01*
X47934247Y64823283D01*
X48242726Y64788820D01*
X48507109Y64757824D01*
X48703016Y64733200D01*
X48806068Y64717852D01*
X48936498Y64691650D01*
X48791052Y64477324D01*
X48787408Y64471924D01*
X48620389Y64141998D01*
X48509544Y63753219D01*
X48469373Y63356125D01*
X48470912Y63230639D01*
X48485211Y63106796D01*
X48524810Y63053536D01*
X48601972Y63041789D01*
X48666508Y63039196D01*
X48801007Y63003244D01*
X48825913Y62926799D01*
X48739940Y62812005D01*
X48622457Y62677164D01*
X48525779Y62521209D01*
X48507459Y62488645D01*
X48405651Y62357945D01*
X48248759Y62189465D01*
X48062379Y62011369D01*
X48007315Y61959733D01*
X47783933Y61722193D01*
X47507321Y61392689D01*
X47183209Y60978237D01*
X46817325Y60485858D01*
X46641633Y60243376D01*
X46421845Y59937004D01*
X46233189Y59670526D01*
X46085318Y59457724D01*
X45987884Y59312379D01*
X45950538Y59248271D01*
X45960134Y59233559D01*
X46043764Y59157729D01*
X46201767Y59029106D01*
X46420154Y58858070D01*
X46684937Y58655002D01*
X46982126Y58430281D01*
X47297732Y58194287D01*
X47617766Y57957401D01*
X47928239Y57730003D01*
X48215161Y57522473D01*
X48464544Y57345191D01*
X48662398Y57208537D01*
X48794734Y57122892D01*
X48847563Y57098635D01*
X48863580Y57117872D01*
X48974719Y57261162D01*
X49131993Y57474140D01*
X49323903Y57740272D01*
X49538945Y58043024D01*
X49765621Y58365864D01*
X49992427Y58692257D01*
X50207864Y59005671D01*
X50400430Y59289570D01*
X50558625Y59527423D01*
X50670946Y59702695D01*
X50725893Y59798853D01*
X50783295Y59922653D01*
X50872937Y60066696D01*
X50969098Y60135733D01*
X51097199Y60154086D01*
X51127968Y60156357D01*
X51303642Y60206838D01*
X51526451Y60308892D01*
X51761430Y60443004D01*
X51973611Y60589660D01*
X52128026Y60729348D01*
X52293308Y60950991D01*
X52490008Y61364049D01*
X52589771Y61821335D01*
X52624130Y62161695D01*
X52817510Y62027599D01*
X52850957Y62002059D01*
X52924945Y61926173D01*
X53006265Y61811464D01*
X53102623Y61643980D01*
X53221726Y61409773D01*
X53371280Y61094890D01*
X53558992Y60685383D01*
X53571148Y60658595D01*
X53744631Y60279370D01*
X53890817Y59970953D01*
X54023643Y59709708D01*
X54157045Y59472002D01*
X54304961Y59234200D01*
X54481328Y58972667D01*
X54700083Y58663770D01*
X54975164Y58283875D01*
X55169478Y58017174D01*
X55388554Y57717625D01*
X55576134Y57462410D01*
X55722796Y57264301D01*
X55819116Y57136069D01*
X55855670Y57090487D01*
X55861944Y57094060D01*
X55943862Y57150951D01*
X56119332Y57276499D01*
X56387235Y57469894D01*
X56746454Y57730327D01*
X57195870Y58056985D01*
X57734366Y58449060D01*
X58360822Y58905740D01*
X58789241Y59218209D01*
X58588804Y59495067D01*
X58491448Y59629550D01*
X58339276Y59839766D01*
X58147683Y60104445D01*
X57931570Y60403001D01*
X57705839Y60714849D01*
X57594567Y60867138D01*
X57210767Y61366673D01*
X56872461Y61763014D01*
X56576969Y62059353D01*
X56130626Y62460934D01*
X56130626Y63606337D01*
X56130660Y63651099D01*
X56133326Y63999662D01*
X56139767Y64302045D01*
X56149291Y64540326D01*
X56161207Y64696587D01*
X56174826Y64752907D01*
X56210928Y64756269D01*
X56348931Y64771496D01*
X56569488Y64796839D01*
X56852019Y64829923D01*
X57175944Y64868375D01*
X57359201Y64890752D01*
X57646041Y64929507D01*
X57899935Y64971465D01*
X58144967Y65022423D01*
X58405226Y65088180D01*
X58704799Y65174535D01*
X59067771Y65287286D01*
X59518231Y65432231D01*
X59812615Y65528491D01*
X60166977Y65646485D01*
X60470825Y65750078D01*
X60708717Y65833908D01*
X60865212Y65892611D01*
X60924869Y65920823D01*
X60925056Y65921211D01*
X60915187Y65991438D01*
X60874141Y66149660D01*
X60808385Y66372752D01*
X60724389Y66637587D01*
X60688574Y66747145D01*
X60578642Y67084186D01*
X60450758Y67477065D01*
X60318029Y67885494D01*
X60193563Y68269185D01*
X60114323Y68511733D01*
X60016620Y68804997D01*
X59934132Y69046023D01*
X59873736Y69214797D01*
X59842310Y69291303D01*
X59832563Y69298534D01*
X59750194Y69298501D01*
X59583286Y69264230D01*
X59325357Y69194005D01*
X58969924Y69086110D01*
X58510506Y68938831D01*
X58336388Y68881734D01*
X57958557Y68755841D01*
X57612858Y68638049D01*
X57319319Y68535321D01*
X57097970Y68454620D01*
X56968841Y68402908D01*
X56888736Y68366934D01*
X56754410Y68310110D01*
X56688910Y68287703D01*
X56688612Y68287713D01*
X56669115Y68340264D01*
X56661021Y68464501D01*
X56661020Y68465687D01*
X56656660Y68590799D01*
X56646287Y68644827D01*
X56642869Y68645630D01*
X56522008Y68667559D01*
X56328494Y68696281D01*
X56089384Y68728495D01*
X55831731Y68760903D01*
X55582591Y68790205D01*
X55369019Y68813102D01*
X55218069Y68826293D01*
X55156797Y68826480D01*
X55155756Y68825157D01*
X55141505Y68749592D01*
X55130350Y68590759D01*
X55124628Y68381013D01*
X55124106Y68340144D01*
X55115623Y68142239D01*
X55097774Y68057323D01*
X55069837Y68081439D01*
X55068112Y68086406D01*
X55054912Y68188151D01*
X55042787Y68389419D01*
X55032238Y68673930D01*
X55023764Y69025409D01*
X55017867Y69427575D01*
X55015047Y69864153D01*
X55010905Y71529002D01*
X54185847Y71529002D01*
X54185847Y73473782D01*
X50532018Y73473782D01*
X50532018Y71375739D01*
X50211717Y71045046D01*
X50059061Y70871897D01*
X49855578Y70544920D01*
X49742147Y70181157D01*
X49706960Y69750325D01*
X49708508Y69620762D01*
X49721713Y69484245D01*
X49755912Y69422130D01*
X49820006Y69407425D01*
X49972696Y69396883D01*
X50052955Y69350943D01*
X50033130Y69256702D01*
X49917250Y69101491D01*
X49781355Y68905640D01*
X49645442Y68556669D01*
X49600113Y68174957D01*
X49647521Y67788839D01*
X49789823Y67426647D01*
X49842940Y67327799D01*
X49892786Y67220784D01*
X49895123Y67189112D01*
X49518640Y67409063D01*
X49040113Y67685259D01*
X48632382Y67914315D01*
X48277682Y68104623D01*
X47958248Y68264579D01*
X47656315Y68402578D01*
X47354117Y68527014D01*
X47033889Y68646282D01*
X46677865Y68768776D01*
X46268281Y68902891D01*
X45953442Y69003873D01*
X45599125Y69115907D01*
X45295989Y69209961D01*
X45059249Y69281384D01*
X44904121Y69325525D01*
X44845820Y69337732D01*
X44843784Y69334051D01*
X44813771Y69252918D01*
X44754772Y69079738D01*
X44672248Y68831471D01*
X44571661Y68525075D01*
X44458472Y68177510D01*
X44338145Y67805735D01*
X44216140Y67426709D01*
X44097919Y67057391D01*
X43988946Y66714740D01*
X43894681Y66415717D01*
X43820586Y66177279D01*
X43772124Y66016386D01*
X43754756Y65949998D01*
X43519025Y65949998D01*
X43519025Y73768445D01*
X61022041Y73768445D01*
X61022041Y56972622D01*
X43519025Y56972622D01*
G37*
G36*
X54480839Y69598956D02*
G01*
X54482025Y69311724D01*
X54487447Y68913797D01*
X54496642Y68557399D01*
X54508935Y68261613D01*
X54523647Y68045522D01*
X54540102Y67928208D01*
X54541234Y67924163D01*
X54653927Y67683663D01*
X54830489Y67541519D01*
X55074545Y67494790D01*
X55171876Y67502591D01*
X55395406Y67593505D01*
X55556892Y67774196D01*
X55640017Y68029240D01*
X55650282Y68102116D01*
X55681530Y68210979D01*
X55752271Y68246139D01*
X55900812Y68238307D01*
X55963792Y68231885D01*
X56079259Y68204618D01*
X56123480Y68134866D01*
X56130626Y67984957D01*
X56090221Y67693260D01*
X55961844Y67408924D01*
X55761290Y67187149D01*
X55504802Y67052145D01*
X55204482Y66999076D01*
X54852493Y67020603D01*
X54530192Y67125711D01*
X54270103Y67307669D01*
X54235710Y67343668D01*
X54153091Y67451178D01*
X54087719Y67580735D01*
X54037672Y67746019D01*
X54001031Y67960709D01*
X53975875Y68238485D01*
X53960284Y68593027D01*
X53952338Y69038013D01*
X53950116Y69587123D01*
X53950116Y71057541D01*
X54480510Y71057541D01*
X54480839Y69598956D01*
G37*
G36*
X52242095Y62599458D02*
G01*
X52272297Y62554906D01*
X52250447Y62520460D01*
X52130418Y62512297D01*
X52101476Y62512504D01*
X51974992Y62525474D01*
X51961526Y62562008D01*
X52058081Y62626851D01*
X52150356Y62655029D01*
X52242095Y62599458D01*
G37*
G36*
X52092512Y71065574D02*
G01*
X52475994Y70959790D01*
X52668090Y70860426D01*
X52918148Y70635194D01*
X53072377Y70344126D01*
X53125058Y69995718D01*
X53120000Y69889995D01*
X53037401Y69591643D01*
X52851905Y69343870D01*
X52561327Y69144393D01*
X52163480Y68990926D01*
X51930044Y68923245D01*
X51623520Y68834491D01*
X51356130Y68757181D01*
X51147421Y68686247D01*
X50872418Y68537688D01*
X50709959Y68357894D01*
X50660616Y68147636D01*
X50724962Y67907685D01*
X50840475Y67746295D01*
X51056029Y67599104D01*
X51326521Y67514087D01*
X51627371Y67490237D01*
X51933999Y67526544D01*
X52221824Y67622002D01*
X52466267Y67775602D01*
X52642747Y67986336D01*
X52674110Y68045220D01*
X52743698Y68204850D01*
X52771461Y68317334D01*
X52771472Y68319668D01*
X52800852Y68389805D01*
X52904060Y68383780D01*
X53000411Y68364050D01*
X53175816Y68347440D01*
X53189977Y68347277D01*
X53270920Y68332646D01*
X53293902Y68270629D01*
X53273896Y68127674D01*
X53258979Y68057733D01*
X53116007Y67698376D01*
X52879594Y67404580D01*
X52558854Y67185192D01*
X52162899Y67049058D01*
X51897842Y67015225D01*
X51511745Y67021724D01*
X51129469Y67080664D01*
X50804230Y67186656D01*
X50725415Y67225948D01*
X50438883Y67440775D01*
X50244286Y67715441D01*
X50147926Y68031727D01*
X50156104Y68371416D01*
X50275124Y68716288D01*
X50414870Y68893829D01*
X50675788Y69073676D01*
X51049273Y69234980D01*
X51537403Y69378834D01*
X51750688Y69433950D01*
X52078206Y69533803D01*
X52310761Y69633445D01*
X52462877Y69741775D01*
X52549078Y69867694D01*
X52583888Y70020102D01*
X52583384Y70132924D01*
X52510445Y70335253D01*
X52336021Y70485505D01*
X52056049Y70588051D01*
X51835753Y70624945D01*
X51492417Y70612887D01*
X51197359Y70513542D01*
X50966711Y70333532D01*
X50816605Y70079473D01*
X50801173Y70037751D01*
X50744023Y69927859D01*
X50660130Y69887967D01*
X50504448Y69890858D01*
X50450983Y69895107D01*
X50327772Y69916949D01*
X50282820Y69969746D01*
X50285306Y70080119D01*
X50287593Y70099062D01*
X50374514Y70383977D01*
X50540943Y70648470D01*
X50757353Y70844713D01*
X50892888Y70918861D01*
X51263718Y71042616D01*
X51676006Y71092351D01*
X52092512Y71065574D01*
G37*
G36*
X50819821Y64711850D02*
G01*
X51193213Y64607619D01*
X51512544Y64422758D01*
X51758632Y64161011D01*
X51786553Y64118412D01*
X51854286Y63979826D01*
X51880642Y63823834D01*
X51875955Y63601124D01*
X51859938Y63440835D01*
X51804624Y63221577D01*
X51701034Y63042901D01*
X51535441Y62893703D01*
X51294116Y62762881D01*
X50963332Y62639329D01*
X50529361Y62511945D01*
X50370642Y62468208D01*
X50065662Y62377018D01*
X49846509Y62295928D01*
X49692412Y62214908D01*
X49582602Y62123924D01*
X49496308Y62012943D01*
X49429086Y61822683D01*
X49460879Y61628954D01*
X49576893Y61448104D01*
X49760638Y61293918D01*
X49995628Y61180179D01*
X50265374Y61120672D01*
X50553389Y61129181D01*
X50755880Y61173202D01*
X51073056Y61297421D01*
X51318545Y61469512D01*
X51477145Y61677380D01*
X51533654Y61908933D01*
X51534444Y61942351D01*
X51555070Y62005891D01*
X51627783Y62022387D01*
X51784338Y62003864D01*
X51848627Y61993393D01*
X51991711Y61964741D01*
X52061252Y61942341D01*
X52065917Y61920742D01*
X52052962Y61812750D01*
X52015781Y61650280D01*
X51884198Y61327420D01*
X51650481Y61035623D01*
X51329162Y60820004D01*
X50924289Y60684151D01*
X50837626Y60669112D01*
X50542832Y60649726D01*
X50217579Y60662846D01*
X49910608Y60705026D01*
X49670659Y60772817D01*
X49387296Y60929938D01*
X49134239Y61179396D01*
X48979161Y61487906D01*
X48928350Y61846375D01*
X48933047Y61958350D01*
X48982245Y62212300D01*
X49093737Y62424603D01*
X49278625Y62604351D01*
X49548012Y62760639D01*
X49912998Y62902559D01*
X50384687Y63039204D01*
X50537799Y63079933D01*
X50857993Y63177165D01*
X51085792Y63271883D01*
X51238637Y63374627D01*
X51333966Y63495937D01*
X51389220Y63646356D01*
X51399023Y63759248D01*
X51351527Y63869189D01*
X51227215Y64009397D01*
X51166910Y64064246D01*
X50892998Y64216356D01*
X50564201Y64270412D01*
X50192397Y64223950D01*
X49931234Y64127302D01*
X49717467Y63956181D01*
X49586235Y63711752D01*
X49532160Y63584656D01*
X49451160Y63526426D01*
X49299683Y63514153D01*
X49172966Y63517294D01*
X49063820Y63546046D01*
X49033932Y63626938D01*
X49060238Y63786170D01*
X49066901Y63813882D01*
X49200869Y64125157D01*
X49419153Y64385245D01*
X49696481Y64563279D01*
X49987575Y64663459D01*
X50411548Y64731711D01*
X50819821Y64711850D01*
G37*
G36*
X55073163Y60685383D02*
G01*
X55040371Y62306033D01*
X54185847Y62337272D01*
X54067329Y62341871D01*
X53703317Y62362199D01*
X53429686Y62393018D01*
X53224883Y62440790D01*
X53067357Y62511979D01*
X52935556Y62613046D01*
X52807930Y62750453D01*
X52784582Y62779406D01*
X52681278Y62938217D01*
X52624112Y63076700D01*
X52601746Y63185039D01*
X52564535Y63364983D01*
X52560754Y63471260D01*
X53125058Y63471260D01*
X53146342Y63289638D01*
X53261918Y63062752D01*
X53479305Y62895023D01*
X53568039Y62861579D01*
X53744759Y62830053D01*
X54003353Y62812438D01*
X54361588Y62806961D01*
X55073578Y62806961D01*
X55056974Y63499420D01*
X55040371Y64191879D01*
X54362645Y64191879D01*
X54318539Y64191772D01*
X53904034Y64175626D01*
X53591711Y64127189D01*
X53369611Y64039497D01*
X53225775Y63905588D01*
X53148244Y63718496D01*
X53125058Y63471260D01*
X52560754Y63471260D01*
X52558286Y63540631D01*
X52599157Y63787604D01*
X52678353Y64037077D01*
X52782972Y64237510D01*
X52871445Y64346389D01*
X53002297Y64456520D01*
X53169275Y64539422D01*
X53388692Y64599258D01*
X53676862Y64640190D01*
X54050097Y64666381D01*
X54524710Y64681995D01*
X55600232Y64705731D01*
X55600232Y60685383D01*
X55073163Y60685383D01*
G37*
G36*
X121914426Y63328143D02*
G01*
X121908228Y62939959D01*
X121889207Y62662813D01*
X121850808Y62454605D01*
X121786474Y62273233D01*
X121689649Y62076593D01*
X121655475Y62014828D01*
X121375293Y61620291D01*
X121009754Y61232225D01*
X120610438Y60900169D01*
X120228923Y60673662D01*
X120023349Y60586289D01*
X119724618Y60477227D01*
X119419339Y60394242D01*
X119080305Y60333945D01*
X118680305Y60292947D01*
X118192131Y60267858D01*
X117588572Y60255290D01*
X116842420Y60251854D01*
X116604872Y60251831D01*
X116022685Y60250966D01*
X115583357Y60247527D01*
X115266782Y60239740D01*
X115052853Y60225829D01*
X114921464Y60204020D01*
X114852509Y60172538D01*
X114825880Y60129608D01*
X114821472Y60073454D01*
X114821323Y60054333D01*
X114813738Y60007130D01*
X114781345Y59970738D01*
X114706009Y59944124D01*
X114569596Y59926257D01*
X114353972Y59916104D01*
X114041003Y59912632D01*
X113612556Y59914808D01*
X113050496Y59921601D01*
X112336690Y59931977D01*
X111961196Y59937729D01*
X111309081Y59949341D01*
X110792652Y59962177D01*
X110388941Y59977938D01*
X110074980Y59998327D01*
X109827800Y60025047D01*
X109624432Y60059799D01*
X109441907Y60104286D01*
X109257258Y60160210D01*
X108926371Y60276019D01*
X108609754Y60403386D01*
X108386522Y60511197D01*
X108110435Y60670873D01*
X108110435Y60187079D01*
X108120562Y59987781D01*
X108240674Y59408192D01*
X108480386Y58782530D01*
X108819700Y58139156D01*
X109238618Y57506429D01*
X109717142Y56912708D01*
X110235273Y56386354D01*
X110773015Y55955725D01*
X111310369Y55649181D01*
X111467511Y55582830D01*
X112314028Y55315676D01*
X113253991Y55148267D01*
X114250055Y55081578D01*
X115264870Y55116583D01*
X116261089Y55254255D01*
X117201363Y55495569D01*
X117775998Y55708990D01*
X118421028Y56033257D01*
X119031034Y56450161D01*
X119657684Y56991165D01*
X120024278Y57357714D01*
X120633186Y58088240D01*
X121159886Y58901803D01*
X121611898Y59814585D01*
X121996745Y60842766D01*
X122321947Y62002527D01*
X122595027Y63310048D01*
X122641547Y63638595D01*
X122690249Y64159857D01*
X122730856Y64790588D01*
X122762658Y65497980D01*
X122784949Y66249224D01*
X122797020Y67011511D01*
X122798163Y67752035D01*
X122787670Y68437986D01*
X122764832Y69036556D01*
X122728942Y69514937D01*
X122723476Y69566501D01*
X122515122Y70997844D01*
X122209339Y72336185D01*
X121810749Y73567161D01*
X121323979Y74676411D01*
X120753652Y75649571D01*
X120489862Y76016668D01*
X119853898Y76743157D01*
X119135857Y77354022D01*
X118317116Y77861679D01*
X117379048Y78278547D01*
X116303029Y78617045D01*
X116141760Y78659191D01*
X115779794Y78748089D01*
X115468204Y78810335D01*
X115162936Y78850837D01*
X114819940Y78874505D01*
X114395162Y78886245D01*
X113844549Y78890967D01*
X113465659Y78890921D01*
X112901825Y78880478D01*
X112449572Y78854591D01*
X112071787Y78810718D01*
X111731353Y78746319D01*
X111587391Y78712813D01*
X110708606Y78474224D01*
X109753467Y78165298D01*
X108777285Y77806168D01*
X107835371Y77416971D01*
X106983038Y77017839D01*
X106914347Y76983518D01*
X106645104Y76854740D01*
X106450009Y76770601D01*
X106367393Y76747907D01*
X106344347Y76827216D01*
X106297756Y77035325D01*
X106236249Y77330887D01*
X106167873Y77672921D01*
X106100680Y78020444D01*
X106042718Y78332473D01*
X106002038Y78568027D01*
X105986690Y78686123D01*
X105987236Y78691051D01*
X106073157Y78782561D01*
X106287455Y78924592D01*
X106604022Y79103117D01*
X106996750Y79304110D01*
X107439530Y79513544D01*
X107906252Y79717392D01*
X108126600Y79807355D01*
X109078547Y80154156D01*
X110077143Y80457809D01*
X111083912Y80709477D01*
X112060378Y80900320D01*
X112968066Y81021498D01*
X113768500Y81064172D01*
X114849425Y81033795D01*
X116235990Y80896669D01*
X117531924Y80652076D01*
X118721114Y80303257D01*
X119787449Y79853454D01*
X120870173Y79232673D01*
X121928989Y78440869D01*
X122877281Y77523139D01*
X123713015Y76482783D01*
X124434157Y75323103D01*
X125038674Y74047399D01*
X125524530Y72658972D01*
X125889693Y71161123D01*
X126132127Y69557152D01*
X126135903Y69520840D01*
X126163736Y69114400D01*
X126182205Y68562129D01*
X126191010Y67885405D01*
X126189852Y67105606D01*
X126178434Y66244109D01*
X126168557Y65748834D01*
X126149918Y65035266D01*
X126125567Y64439465D01*
X126091921Y63928780D01*
X126045397Y63470559D01*
X125982413Y63032149D01*
X125899384Y62580899D01*
X125792729Y62084158D01*
X125658864Y61509273D01*
X125507176Y60935476D01*
X125091749Y59735249D01*
X124561965Y58581500D01*
X123932393Y57497886D01*
X123217604Y56508060D01*
X122432167Y55635676D01*
X121590650Y54904389D01*
X121040327Y54526957D01*
X120124360Y54021875D01*
X119120446Y53591801D01*
X118073932Y53255361D01*
X117030168Y53031183D01*
X117013818Y53028770D01*
X116768212Y53007838D01*
X116391256Y52992212D01*
X115917870Y52982629D01*
X115382969Y52979827D01*
X114821472Y52984544D01*
X114237984Y52995926D01*
X113715555Y53013566D01*
X113301290Y53038997D01*
X112962562Y53074961D01*
X112666746Y53124195D01*
X112381213Y53189440D01*
X112343928Y53199037D01*
X111278957Y53562437D01*
X110265593Y54080595D01*
X109323595Y54741661D01*
X108472717Y55533785D01*
X107801744Y56250937D01*
X107048562Y53371095D01*
X106262776Y53371006D01*
X105476991Y53370918D01*
X105476991Y63777272D01*
X108241029Y63777272D01*
X108243670Y63574157D01*
X108323294Y62858258D01*
X108518755Y62262174D01*
X108837321Y61777057D01*
X109286257Y61394056D01*
X109872829Y61104322D01*
X110604305Y60899006D01*
X110863674Y60856858D01*
X111238974Y60816580D01*
X111662499Y60786033D01*
X112098028Y60766328D01*
X112509339Y60758578D01*
X112860209Y60763897D01*
X113114418Y60783395D01*
X113235742Y60818186D01*
X113239068Y60825718D01*
X113253300Y60956950D01*
X113260010Y61101353D01*
X116095720Y61101353D01*
X117093880Y61106250D01*
X117819587Y61133853D01*
X118526842Y61229101D01*
X119104594Y61398420D01*
X119568231Y61648266D01*
X119933144Y61985094D01*
X120214721Y62415360D01*
X120246524Y62478211D01*
X120364667Y62740717D01*
X120432344Y62979543D01*
X120462932Y63259110D01*
X120469806Y63643841D01*
X120449957Y64072225D01*
X120338544Y64630174D01*
X120116380Y65106623D01*
X119769071Y65540528D01*
X119555690Y65736173D01*
X119268906Y65923717D01*
X118931871Y66055770D01*
X118515089Y66140268D01*
X117989066Y66185147D01*
X117324306Y66198342D01*
X116095720Y66198342D01*
X116095720Y61101353D01*
X113260010Y61101353D01*
X113266051Y61231372D01*
X113276827Y61627146D01*
X113285136Y62122435D01*
X113290483Y62695401D01*
X113292375Y63324206D01*
X113292375Y65773593D01*
X109037161Y65773593D01*
X108823145Y65559577D01*
X108662012Y65375227D01*
X108425046Y64951443D01*
X108287256Y64426560D01*
X108241029Y63777272D01*
X105476991Y63777272D01*
X105476991Y66962891D01*
X116095720Y66962891D01*
X117433679Y66970116D01*
X117964215Y66977918D01*
X118544415Y67005566D01*
X119009889Y67057830D01*
X119391741Y67140051D01*
X119721075Y67257569D01*
X120028994Y67415724D01*
X120349663Y67642111D01*
X120666608Y68008350D01*
X120895381Y68491977D01*
X120991551Y68813499D01*
X121086574Y69490530D01*
X121041900Y70146166D01*
X120865760Y70757002D01*
X120566388Y71299639D01*
X120152015Y71750673D01*
X119630873Y72086702D01*
X119460000Y72165099D01*
X119227362Y72257395D01*
X118991458Y72325139D01*
X118718965Y72373775D01*
X118376561Y72408745D01*
X117930924Y72435492D01*
X117348730Y72459459D01*
X116095720Y72505655D01*
X116095720Y66962891D01*
X105476991Y66962891D01*
X105476991Y67557540D01*
X108208624Y67557540D01*
X107909291Y67907243D01*
X107880555Y67941329D01*
X107628888Y68308746D01*
X107463776Y68717648D01*
X107373387Y69208222D01*
X107353900Y69642201D01*
X108807569Y69642201D01*
X108851072Y69261899D01*
X108977176Y68690735D01*
X109180957Y68205883D01*
X109472249Y67809589D01*
X109707698Y67557540D01*
X113292375Y67557540D01*
X113292375Y72245029D01*
X111987943Y72216167D01*
X111597133Y72207085D01*
X111203573Y72193651D01*
X110916256Y72172814D01*
X110698976Y72138301D01*
X110515531Y72083840D01*
X110329713Y72003158D01*
X110105319Y71889981D01*
X109654752Y71619864D01*
X109309738Y71302608D01*
X109070804Y70914942D01*
X108905151Y70416602D01*
X108883557Y70326860D01*
X108816873Y69964638D01*
X108807569Y69642201D01*
X107353900Y69642201D01*
X107345887Y69820657D01*
X107347267Y69964123D01*
X107397956Y70590346D01*
X107531697Y71107044D01*
X107762222Y71553142D01*
X108103263Y71967567D01*
X108481934Y72302442D01*
X109082582Y72667646D01*
X109809432Y72945493D01*
X109920083Y72975347D01*
X110122611Y73014258D01*
X110376003Y73042973D01*
X110704058Y73062749D01*
X111130573Y73074845D01*
X111679346Y73080516D01*
X112374177Y73081022D01*
X112719311Y73080523D01*
X113301106Y73081695D01*
X113742826Y73086805D01*
X114064426Y73097075D01*
X114285861Y73113726D01*
X114427086Y73137981D01*
X114508058Y73171063D01*
X114548732Y73214192D01*
X114554207Y73223110D01*
X114596678Y73261351D01*
X114678436Y73290361D01*
X114818132Y73310868D01*
X115034418Y73323599D01*
X115345947Y73329283D01*
X115771369Y73328645D01*
X116329337Y73322415D01*
X117038502Y73311320D01*
X117807828Y73296644D01*
X118443473Y73278675D01*
X118956773Y73254291D01*
X119371678Y73220158D01*
X119712141Y73172941D01*
X120002114Y73109308D01*
X120265548Y73025924D01*
X120526397Y72919455D01*
X120808611Y72786568D01*
X120981474Y72689537D01*
X121371658Y72398617D01*
X121753108Y72032924D01*
X122077526Y71641565D01*
X122296613Y71273648D01*
X122307414Y71248602D01*
X122431167Y70871811D01*
X122535906Y70400802D01*
X122608599Y69905354D01*
X122634050Y69490530D01*
X122636215Y69455242D01*
X122599454Y69083633D01*
X122469784Y68582068D01*
X122271106Y68093282D01*
X122029187Y67692116D01*
X121753639Y67383515D01*
X121366859Y67048215D01*
X120960193Y66776826D01*
X120587742Y66609964D01*
X120514023Y66586236D01*
X120331379Y66509028D01*
X120258261Y66446674D01*
X120264285Y66429800D01*
X120363287Y66331927D01*
X120545285Y66204709D01*
X120791878Y66022278D01*
X121141850Y65685858D01*
X121468037Y65296105D01*
X121717611Y64911303D01*
X121730953Y64886055D01*
X121812506Y64709307D01*
X121865900Y64525181D01*
X121896901Y64293066D01*
X121911274Y63972350D01*
X121913836Y63643841D01*
X121914783Y63522423D01*
X121914426Y63328143D01*
G37*
G36*
X79498388Y65682216D02*
G01*
X79535139Y65560789D01*
X79553848Y65498971D01*
X79622822Y65258712D01*
X79663776Y65099126D01*
X79672130Y65035801D01*
X79669701Y65033971D01*
X79592251Y65001189D01*
X79422663Y64939032D01*
X79178549Y64853670D01*
X78877518Y64751277D01*
X78537180Y64638023D01*
X77435267Y64275117D01*
X78068793Y64269693D01*
X78702320Y64264269D01*
X78702320Y59254988D01*
X77170069Y59254988D01*
X77170069Y61140835D01*
X76109280Y61140835D01*
X76109280Y60298921D01*
X76649882Y59555957D01*
X76724932Y59452836D01*
X76977808Y59105378D01*
X77170783Y58838989D01*
X77311072Y58642105D01*
X77405889Y58503159D01*
X77462450Y58410587D01*
X77487970Y58352825D01*
X77489664Y58318307D01*
X77474746Y58295468D01*
X77450431Y58272743D01*
X77448175Y58270602D01*
X77374506Y58211592D01*
X77219780Y58093767D01*
X76996999Y57926827D01*
X76719164Y57720472D01*
X76399280Y57484401D01*
X76050348Y57228314D01*
X76007119Y57196685D01*
X75664089Y56946634D01*
X75353508Y56721831D01*
X75087871Y56531201D01*
X74879673Y56383666D01*
X74741410Y56288153D01*
X74685575Y56253583D01*
X74683597Y56253778D01*
X74627587Y56305915D01*
X74517255Y56439327D01*
X74363311Y56638951D01*
X74176466Y56889724D01*
X73967430Y57176585D01*
X73746915Y57484471D01*
X73525630Y57798319D01*
X73314287Y58103068D01*
X73123596Y58383655D01*
X72964268Y58625018D01*
X72847012Y58812094D01*
X72782541Y58929821D01*
X72769303Y58959694D01*
X72689332Y59127251D01*
X72621157Y59215268D01*
X72534670Y59249321D01*
X72399762Y59254988D01*
X72160789Y59254988D01*
X72160927Y59770650D01*
X72159825Y59952461D01*
X72151739Y60110817D01*
X72129711Y60254332D01*
X72086789Y60407441D01*
X72016020Y60594577D01*
X71910452Y60840176D01*
X71763132Y61168673D01*
X71365197Y62051035D01*
X71349397Y60653012D01*
X71339591Y59785383D01*
X71337926Y59638051D01*
X71333597Y59254988D01*
X69862413Y59254988D01*
X69862413Y59402320D01*
X69858903Y59477317D01*
X69832876Y59538648D01*
X69778928Y59497739D01*
X69694032Y59351366D01*
X69575165Y59096306D01*
X69571527Y59088172D01*
X69485347Y58923604D01*
X69350701Y58697777D01*
X69177824Y58425251D01*
X68976953Y58120585D01*
X68758322Y57798338D01*
X68532169Y57473070D01*
X68308728Y57159340D01*
X68098236Y56871707D01*
X67910928Y56624731D01*
X67757041Y56432970D01*
X67646810Y56310983D01*
X67590472Y56273331D01*
X67582832Y56277313D01*
X67497861Y56333468D01*
X67333505Y56447963D01*
X67102223Y56611931D01*
X66816473Y56816502D01*
X66488714Y57052808D01*
X66131403Y57311981D01*
X65896438Y57483687D01*
X65480064Y57793244D01*
X65161338Y58038609D01*
X64939727Y58220212D01*
X64814698Y58338480D01*
X64785718Y58393843D01*
X64793573Y58404039D01*
X64864115Y58498545D01*
X64978616Y58654000D01*
X65116476Y58842459D01*
X65395815Y59225522D01*
X64328882Y59241585D01*
X63261949Y59257647D01*
X63261949Y59638051D01*
X69803480Y59638051D01*
X69832946Y59608585D01*
X69862413Y59638051D01*
X69832946Y59667517D01*
X69803480Y59638051D01*
X63261949Y59638051D01*
X63261949Y59785383D01*
X63733410Y59785383D01*
X66267517Y59785383D01*
X67033642Y59785383D01*
X67622970Y59785383D01*
X67626033Y61302900D01*
X67629096Y62820418D01*
X68008567Y61730162D01*
X68126917Y61390788D01*
X68255539Y61023301D01*
X68373871Y60686528D01*
X68472466Y60407349D01*
X68541878Y60212645D01*
X68695716Y59785383D01*
X68969668Y59785411D01*
X69243619Y59785439D01*
X69774014Y61361861D01*
X70304408Y62938283D01*
X70335800Y59785383D01*
X70864269Y59785383D01*
X70864269Y63262413D01*
X71335731Y63262413D01*
X72632250Y63262413D01*
X72632250Y59785383D01*
X73221577Y59785383D01*
X75048492Y59785383D01*
X75637819Y59785383D01*
X75637819Y61612297D01*
X77641531Y61612297D01*
X77641531Y59785383D01*
X78230858Y59785383D01*
X78230858Y63792807D01*
X77641531Y63792807D01*
X77641531Y62201624D01*
X75637819Y62201624D01*
X75637819Y63792807D01*
X75048492Y63792807D01*
X75048492Y59785383D01*
X73221577Y59785383D01*
X73221577Y62729067D01*
X73720681Y62729067D01*
X73722598Y62704886D01*
X73784609Y62609463D01*
X73909339Y62468164D01*
X74079315Y62301805D01*
X74168058Y62220766D01*
X74336437Y62070902D01*
X74463393Y61963172D01*
X74526612Y61916783D01*
X74532119Y61917304D01*
X74554947Y61983519D01*
X74570978Y62134761D01*
X74577030Y62344045D01*
X74577030Y62790951D01*
X74167979Y62790951D01*
X74161299Y62790943D01*
X73952907Y62782148D01*
X73794779Y62759965D01*
X73720681Y62729067D01*
X73221577Y62729067D01*
X73221577Y63262413D01*
X74518097Y63262413D01*
X74518097Y63792807D01*
X71335731Y63792807D01*
X71335731Y63262413D01*
X70864269Y63262413D01*
X70864269Y63797971D01*
X70441727Y63780656D01*
X70019186Y63763341D01*
X69948262Y63551656D01*
X69476195Y62142691D01*
X69435573Y62021981D01*
X69299392Y61625299D01*
X69175357Y61275921D01*
X69068351Y60986797D01*
X68983258Y60770876D01*
X68924962Y60641108D01*
X68898345Y60610441D01*
X68897821Y60611787D01*
X68868439Y60694303D01*
X68806622Y60872258D01*
X68717657Y61130283D01*
X68606831Y61453008D01*
X68479434Y61825067D01*
X68340752Y62231091D01*
X67821398Y63753440D01*
X68324039Y63753440D01*
X68329700Y63677217D01*
X68370783Y63527509D01*
X68450080Y63285807D01*
X68490400Y63167813D01*
X68563889Y62959817D01*
X68619778Y62811021D01*
X68648357Y62747776D01*
X68666679Y62753279D01*
X68754743Y62817993D01*
X68896386Y62939287D01*
X69071666Y63100544D01*
X69253396Y63278777D01*
X69390422Y63440730D01*
X69430194Y63551656D01*
X69370003Y63623800D01*
X69207141Y63669409D01*
X68938897Y63700728D01*
X68896696Y63704515D01*
X68667336Y63727931D01*
X68481845Y63751323D01*
X68377044Y63770142D01*
X68351010Y63774687D01*
X68324039Y63753440D01*
X67821398Y63753440D01*
X67818020Y63763341D01*
X67033642Y63798193D01*
X67033642Y59785383D01*
X66267517Y59785383D01*
X66267517Y63792807D01*
X65678190Y63792807D01*
X65678190Y60315777D01*
X63733410Y60315777D01*
X63733410Y59785383D01*
X63261949Y59785383D01*
X63261949Y60787239D01*
X65206728Y60787239D01*
X65206728Y62468671D01*
X65206639Y62712845D01*
X65205574Y63153179D01*
X65202681Y63494628D01*
X65197187Y63750113D01*
X65188316Y63932552D01*
X65179139Y64018765D01*
X76105625Y64018765D01*
X76122186Y63331192D01*
X76138747Y62643620D01*
X77170069Y62609564D01*
X77170069Y64202419D01*
X77037471Y64152740D01*
X76925088Y64123817D01*
X76730734Y64089854D01*
X76505248Y64060913D01*
X76105625Y64018765D01*
X65179139Y64018765D01*
X65175296Y64054868D01*
X65157352Y64129979D01*
X65133710Y64170808D01*
X65103596Y64190272D01*
X65086095Y64196680D01*
X64966821Y64237631D01*
X64759773Y64307140D01*
X64482985Y64399200D01*
X64154497Y64507805D01*
X63792343Y64626949D01*
X63649000Y64674260D01*
X63309136Y64788708D01*
X63017038Y64890274D01*
X62788819Y64973166D01*
X62640590Y65031591D01*
X62588466Y65059757D01*
X62608680Y65146367D01*
X62660715Y65325390D01*
X62738649Y65576993D01*
X62780885Y65709195D01*
X69811048Y65709195D01*
X69896089Y65594465D01*
X69961689Y65538269D01*
X70066486Y65509525D01*
X70136740Y65592797D01*
X70139977Y65601413D01*
X72121609Y65601413D01*
X72160789Y65560789D01*
X72194436Y65540118D01*
X72299176Y65506517D01*
X72367053Y65560789D01*
X72347250Y65602274D01*
X72237933Y65618819D01*
X72184039Y65617427D01*
X72121609Y65601413D01*
X70139977Y65601413D01*
X70142005Y65606810D01*
X70155334Y65682216D01*
X70105152Y65727255D01*
X69965424Y65768652D01*
X69939677Y65774520D01*
X69826955Y65772675D01*
X69811048Y65709195D01*
X62780885Y65709195D01*
X62836852Y65884375D01*
X62940467Y66202411D01*
X65393349Y66202411D01*
X65421130Y66179019D01*
X65537957Y66158192D01*
X65717478Y66150202D01*
X66061253Y66150288D01*
X66286270Y66741166D01*
X66316268Y66819938D01*
X67692327Y66819938D01*
X67740835Y66798376D01*
X67772034Y66802629D01*
X67780123Y66837664D01*
X67771486Y66844717D01*
X67701547Y66837664D01*
X67692327Y66819938D01*
X66316268Y66819938D01*
X66511288Y67332044D01*
X67317186Y67315674D01*
X68123085Y67299304D01*
X68289008Y66837664D01*
X68329606Y66724710D01*
X68536128Y66150116D01*
X68849995Y66150116D01*
X69017934Y66155986D01*
X69123506Y66180806D01*
X69144808Y66229518D01*
X69126572Y66282976D01*
X69070024Y66437075D01*
X68980314Y66677015D01*
X68862403Y66989647D01*
X68721255Y67361819D01*
X68700870Y67415340D01*
X69385955Y67415340D01*
X69397772Y67107780D01*
X69490060Y66810633D01*
X69661876Y66547209D01*
X69912273Y66340814D01*
X69958087Y66314137D01*
X70051154Y66264964D01*
X70144430Y66229518D01*
X70145801Y66228997D01*
X70261407Y66203752D01*
X70417351Y66186747D01*
X70633011Y66175499D01*
X70927767Y66167525D01*
X71320997Y66160343D01*
X72455452Y66141104D01*
X72455452Y66150116D01*
X73221577Y66150116D01*
X73851305Y66150116D01*
X74481064Y67095399D01*
X75062683Y67095399D01*
X75116024Y67111022D01*
X75245623Y67188531D01*
X75355640Y67294095D01*
X75402088Y67389585D01*
X75400000Y67434155D01*
X75367547Y67497904D01*
X75294821Y67452885D01*
X75180548Y67298574D01*
X75147213Y67246415D01*
X75081581Y67137612D01*
X75062683Y67095399D01*
X74481064Y67095399D01*
X74862293Y67667633D01*
X75873280Y69185151D01*
X75873415Y67667633D01*
X75873440Y67389585D01*
X75873550Y66150116D01*
X76403944Y66150116D01*
X76403944Y70157541D01*
X75814874Y70157541D01*
X74827622Y68676258D01*
X73840371Y67194975D01*
X73808881Y70157541D01*
X73221577Y70157541D01*
X73221577Y66150116D01*
X72455452Y66150116D01*
X72455452Y70166902D01*
X71375423Y70147488D01*
X71230630Y70144860D01*
X70885197Y70137572D01*
X70631167Y70128570D01*
X70448902Y70115119D01*
X70318770Y70094483D01*
X70221133Y70063927D01*
X70136359Y70020715D01*
X70044811Y69962112D01*
X69839458Y69785528D01*
X69667146Y69522425D01*
X69585067Y69230313D01*
X69595373Y68932495D01*
X69700216Y68652277D01*
X69901749Y68412962D01*
X70048867Y68289033D01*
X69838308Y68164801D01*
X69607519Y67968472D01*
X69455556Y67710007D01*
X69385955Y67415340D01*
X68700870Y67415340D01*
X68561832Y67780383D01*
X68389095Y68232188D01*
X67652436Y70155455D01*
X67328306Y70155449D01*
X67004176Y70155442D01*
X66208584Y68205074D01*
X66037566Y67785730D01*
X65866093Y67365067D01*
X65713391Y66990235D01*
X65584612Y66673894D01*
X65484910Y66428704D01*
X65419438Y66267324D01*
X65393349Y66202411D01*
X62940467Y66202411D01*
X62949695Y66230736D01*
X63071548Y66599275D01*
X63196783Y66973193D01*
X63319769Y67335688D01*
X63434877Y67669960D01*
X63536478Y67959208D01*
X63618942Y68186633D01*
X63676641Y68335434D01*
X63703944Y68388810D01*
X63734700Y68382803D01*
X63864262Y68346835D01*
X64073186Y68283833D01*
X64340909Y68200056D01*
X64646867Y68101763D01*
X64833102Y68041816D01*
X65113816Y67953966D01*
X65341712Y67885801D01*
X65497109Y67843137D01*
X65560325Y67831791D01*
X65582323Y67873493D01*
X65643584Y68011588D01*
X65737146Y68231854D01*
X65856811Y68519501D01*
X65996379Y68859740D01*
X66149652Y69237780D01*
X66709512Y70626329D01*
X67329426Y70627665D01*
X67949340Y70629002D01*
X68437923Y69345018D01*
X68519444Y69131420D01*
X68654315Y68780947D01*
X68773530Y68474762D01*
X68870598Y68229359D01*
X68939028Y68061237D01*
X68972328Y67986890D01*
X68993976Y67968018D01*
X69062478Y68001822D01*
X69168151Y68139411D01*
X69208971Y68202200D01*
X69274185Y68325659D01*
X69279785Y68418495D01*
X69233647Y68527355D01*
X69129718Y68846622D01*
X69120766Y69215382D01*
X69208106Y69610554D01*
X69212991Y69625094D01*
X69253144Y69756884D01*
X69283199Y69891330D01*
X69304584Y70047632D01*
X69318730Y70244991D01*
X69327065Y70502606D01*
X69331018Y70839677D01*
X69332018Y71275403D01*
X69332018Y72573782D01*
X72926914Y72573782D01*
X72926914Y70629002D01*
X74279447Y70629002D01*
X74287261Y70166902D01*
X74295640Y69671346D01*
X74311833Y68713689D01*
X74954654Y69671346D01*
X75597475Y70629002D01*
X76875406Y70629002D01*
X76875406Y69244084D01*
X76875690Y68993401D01*
X76877208Y68628478D01*
X76879860Y68316317D01*
X76883443Y68073194D01*
X76887754Y67915385D01*
X76892593Y67859165D01*
X76902073Y67861569D01*
X76996343Y67891224D01*
X77174464Y67949382D01*
X77415988Y68029333D01*
X77700464Y68124362D01*
X77798939Y68157200D01*
X78079435Y68248567D01*
X78315517Y68322322D01*
X78484822Y68371607D01*
X78564984Y68389559D01*
X78595874Y68372087D01*
X78661059Y68270920D01*
X78723334Y68109629D01*
X78746110Y68035956D01*
X78808040Y67840249D01*
X78896306Y67564332D01*
X79004646Y67227692D01*
X79126800Y66849814D01*
X79256507Y66450186D01*
X79350162Y66159162D01*
X79352999Y66150116D01*
X79461434Y65804317D01*
X79498388Y65682216D01*
G37*
G36*
X71866125Y66680510D02*
G01*
X71185472Y66680510D01*
X71021548Y66681667D01*
X70692059Y66696486D01*
X70451592Y66733505D01*
X70280161Y66799174D01*
X70157779Y66899944D01*
X70064459Y67042264D01*
X70010534Y67188173D01*
X70008363Y67426521D01*
X70105095Y67642145D01*
X70289206Y67814144D01*
X70549176Y67921613D01*
X70597517Y67930882D01*
X70793040Y67953298D01*
X71048356Y67969203D01*
X71320997Y67975624D01*
X71866125Y67977030D01*
X71866125Y66680510D01*
G37*
G36*
X71866125Y68507425D02*
G01*
X71244405Y68507425D01*
X71053491Y68510178D01*
X70700433Y68538648D01*
X70445644Y68602734D01*
X70277741Y68708295D01*
X70185346Y68861193D01*
X70157076Y69067285D01*
X70161711Y69154782D01*
X70218308Y69338720D01*
X70347528Y69472718D01*
X70559769Y69561983D01*
X70865429Y69611723D01*
X71274905Y69627146D01*
X71866125Y69627146D01*
X71866125Y68507425D01*
G37*
G36*
X67329579Y69448536D02*
G01*
X67362282Y69387113D01*
X67424015Y69237327D01*
X67506424Y69020356D01*
X67601155Y68757378D01*
X67604073Y68749084D01*
X67701080Y68474825D01*
X67786761Y68235259D01*
X67851927Y68055908D01*
X67887390Y67962297D01*
X67888491Y67959612D01*
X67896833Y67913931D01*
X67864468Y67884615D01*
X67772114Y67868096D01*
X67600483Y67860803D01*
X67330290Y67859165D01*
X67300174Y67859191D01*
X67027487Y67863360D01*
X66855305Y67876095D01*
X66767862Y67899468D01*
X66749391Y67935553D01*
X66760820Y67975648D01*
X66809834Y68122485D01*
X66883695Y68328575D01*
X66973113Y68569624D01*
X67068794Y68821340D01*
X67161447Y69059429D01*
X67241778Y69259598D01*
X67300495Y69397555D01*
X67328306Y69449006D01*
X67329579Y69448536D01*
G37*
G36*
X95114590Y67726934D02*
G01*
X95107088Y67719432D01*
X95099587Y67726934D01*
X95107088Y67734435D01*
X95114590Y67726934D01*
G37*
G36*
X97917427Y72176176D02*
G01*
X97934379Y72131172D01*
X97937534Y72122799D01*
X97950608Y72088100D01*
X97995841Y71968252D01*
X98037357Y71858542D01*
X98074018Y71761961D01*
X98104684Y71681502D01*
X98128215Y71620155D01*
X98143472Y71580914D01*
X98149316Y71566770D01*
X98150498Y71566556D01*
X98172764Y71565052D01*
X98220295Y71562624D01*
X98289326Y71559442D01*
X98376093Y71555674D01*
X98476830Y71551490D01*
X98587773Y71547059D01*
X98712821Y71542141D01*
X98941886Y71533040D01*
X99166683Y71523995D01*
X99384873Y71515106D01*
X99594120Y71506471D01*
X99792085Y71498191D01*
X99976431Y71490364D01*
X100144820Y71483092D01*
X100294914Y71476472D01*
X100424375Y71470606D01*
X100530866Y71465592D01*
X100612048Y71461531D01*
X100665585Y71458521D01*
X100838021Y71447666D01*
X99795414Y70623901D01*
X99655314Y70513175D01*
X99505796Y70394929D01*
X99364228Y70282891D01*
X99232342Y70178436D01*
X99111873Y70082941D01*
X99004554Y69997780D01*
X98912119Y69924331D01*
X98836302Y69863969D01*
X98778836Y69818069D01*
X98741456Y69788009D01*
X98725896Y69775163D01*
X98721297Y69769812D01*
X98717897Y69761538D01*
X98716572Y69748669D01*
X98717811Y69729175D01*
X98722099Y69701029D01*
X98729923Y69662201D01*
X98741771Y69610662D01*
X98758129Y69544384D01*
X98779484Y69461336D01*
X98806324Y69359492D01*
X98839134Y69236820D01*
X98878402Y69091294D01*
X98924615Y68920883D01*
X98975928Y68732132D01*
X98978259Y68723558D01*
X98990213Y68679621D01*
X99037626Y68505360D01*
X99097154Y68286676D01*
X99149681Y68093862D01*
X99195659Y67925285D01*
X99235538Y67779311D01*
X99269769Y67654308D01*
X99298804Y67548643D01*
X99323093Y67460682D01*
X99343088Y67388793D01*
X99359240Y67331342D01*
X99372000Y67286696D01*
X99381819Y67253223D01*
X99389148Y67229288D01*
X99394438Y67213259D01*
X99398141Y67203503D01*
X99399411Y67198096D01*
X99387892Y67197067D01*
X99354706Y67214270D01*
X99299066Y67250077D01*
X99293886Y67253552D01*
X99257918Y67277414D01*
X99199538Y67315910D01*
X99120917Y67367617D01*
X99024227Y67431109D01*
X98911641Y67504963D01*
X98785330Y67587755D01*
X98647467Y67678059D01*
X98500222Y67774451D01*
X98345769Y67875508D01*
X98186280Y67979805D01*
X97184668Y68634624D01*
X97175172Y68628361D01*
X97082099Y68566973D01*
X96610969Y68256231D01*
X96469995Y68163127D01*
X96307021Y68055271D01*
X96134020Y67940591D01*
X95958013Y67823746D01*
X95839778Y67745138D01*
X95786021Y67709398D01*
X95625064Y67602207D01*
X95482162Y67506835D01*
X95395573Y67448985D01*
X95286109Y67375917D01*
X95186437Y67309458D01*
X95099080Y67251287D01*
X95026563Y67203084D01*
X94971412Y67166528D01*
X94936150Y67143298D01*
X94923302Y67135074D01*
X94920081Y67138580D01*
X94930145Y67156610D01*
X94956560Y67193653D01*
X94965046Y67205835D01*
X94982421Y67237836D01*
X94985451Y67256952D01*
X94983580Y67261201D01*
X94992309Y67265965D01*
X94994712Y67266209D01*
X95013064Y67281065D01*
X95041594Y67313863D01*
X95075229Y67358916D01*
X95084988Y67373021D01*
X95116229Y67422478D01*
X95129154Y67453242D01*
X95125130Y67468313D01*
X95117427Y67476000D01*
X95132378Y67476260D01*
X95148293Y67481752D01*
X95175974Y67505568D01*
X95206552Y67540748D01*
X95233865Y67579282D01*
X95251752Y67613162D01*
X95254049Y67634380D01*
X95251540Y67639630D01*
X95258550Y67640780D01*
X95259736Y67640243D01*
X95277898Y67647467D01*
X95301428Y67672219D01*
X95316801Y67693790D01*
X95319394Y67701451D01*
X95304066Y67690417D01*
X95298933Y67686695D01*
X95292174Y67685102D01*
X95287102Y67691653D01*
X95283543Y67709471D01*
X95282399Y67726049D01*
X95324631Y67726049D01*
X95324777Y67723951D01*
X95333462Y67720647D01*
X95348568Y67736754D01*
X95352218Y67745138D01*
X95341952Y67743370D01*
X95335287Y67738738D01*
X95324631Y67726049D01*
X95282399Y67726049D01*
X95281320Y67741680D01*
X95280256Y67791400D01*
X95280175Y67861755D01*
X95280902Y67955868D01*
X95282261Y68076861D01*
X95282363Y68085486D01*
X95283474Y68191141D01*
X95284218Y68285331D01*
X95284584Y68364347D01*
X95284563Y68424483D01*
X95284144Y68462030D01*
X95283318Y68473282D01*
X95282082Y68468976D01*
X95274091Y68439975D01*
X95259498Y68386539D01*
X95239144Y68311758D01*
X95213868Y68218719D01*
X95184508Y68110510D01*
X95151905Y67990219D01*
X95116898Y67860934D01*
X95101136Y67802880D01*
X95066330Y67675967D01*
X95033719Y67558771D01*
X95004225Y67454503D01*
X94978771Y67366377D01*
X94958281Y67297606D01*
X94943678Y67251401D01*
X94935885Y67230976D01*
X94931980Y67224445D01*
X94927645Y67216898D01*
X94924426Y67212093D01*
X94922859Y67212223D01*
X94923481Y67219477D01*
X94926829Y67236049D01*
X94933439Y67264128D01*
X94943848Y67305906D01*
X94958592Y67363575D01*
X94978208Y67439327D01*
X95003234Y67535352D01*
X95034205Y67653841D01*
X95071658Y67796987D01*
X95116130Y67966981D01*
X95141530Y68064121D01*
X95181345Y68216459D01*
X95220685Y68367051D01*
X95258361Y68511349D01*
X95261197Y68522217D01*
X95298110Y68522217D01*
X95299595Y68504618D01*
X95306857Y68511366D01*
X95316058Y68538165D01*
X95321146Y68566973D01*
X95319661Y68584571D01*
X95312399Y68577824D01*
X95303198Y68551025D01*
X95298110Y68522217D01*
X95261197Y68522217D01*
X95288998Y68628750D01*
X95326988Y68628750D01*
X95330570Y68608670D01*
X95335691Y68608902D01*
X95338450Y68628361D01*
X95336047Y68643109D01*
X95329385Y68637426D01*
X95326988Y68628750D01*
X95288998Y68628750D01*
X95293188Y68644808D01*
X95304301Y68687425D01*
X95342839Y68687425D01*
X95344635Y68669620D01*
X95349148Y68667272D01*
X95354637Y68679621D01*
X95353554Y68687564D01*
X95344635Y68689623D01*
X95342839Y68687425D01*
X95304301Y68687425D01*
X95315960Y68732132D01*
X95354637Y68732132D01*
X95362138Y68724630D01*
X95369640Y68732132D01*
X95362138Y68739633D01*
X95354637Y68732132D01*
X95315960Y68732132D01*
X95323978Y68762879D01*
X95349544Y68861016D01*
X95368701Y68934672D01*
X95382435Y68987542D01*
X95414517Y69110959D01*
X95449073Y69243808D01*
X95482767Y69373264D01*
X95512262Y69486500D01*
X95513280Y69490409D01*
X95535211Y69576038D01*
X95553720Y69650953D01*
X95567731Y69710583D01*
X95576170Y69750358D01*
X95577961Y69765707D01*
X95573945Y69768853D01*
X95549278Y69787979D01*
X95503878Y69823112D01*
X95439696Y69872744D01*
X95358684Y69935365D01*
X95262796Y70009466D01*
X95153983Y70093540D01*
X95034198Y70186076D01*
X94905394Y70285565D01*
X94769522Y70390500D01*
X94742125Y70411658D01*
X94543934Y70564716D01*
X94368040Y70700591D01*
X94213161Y70820310D01*
X94078014Y70924901D01*
X93961318Y71015392D01*
X93861790Y71092811D01*
X93778150Y71158186D01*
X93709114Y71212544D01*
X93653401Y71256915D01*
X93609729Y71292325D01*
X93576816Y71319802D01*
X93553380Y71340376D01*
X93538138Y71355072D01*
X93529810Y71364920D01*
X93527113Y71370947D01*
X93528765Y71374182D01*
X93533483Y71375651D01*
X93539987Y71376384D01*
X93545695Y71376925D01*
X93579393Y71379933D01*
X93638253Y71385086D01*
X93718902Y71392091D01*
X93817965Y71400656D01*
X93932069Y71410490D01*
X94057842Y71421301D01*
X94191908Y71432797D01*
X94377342Y71448693D01*
X94645384Y71471727D01*
X94896185Y71493351D01*
X95128594Y71513462D01*
X95341461Y71531960D01*
X95533635Y71548742D01*
X95703965Y71563709D01*
X95851300Y71576758D01*
X95974489Y71587789D01*
X96072382Y71596700D01*
X96143828Y71603390D01*
X96187676Y71607758D01*
X96202776Y71609702D01*
X96202802Y71609762D01*
X96208942Y71625329D01*
X96224943Y71666287D01*
X96249839Y71730152D01*
X96282666Y71814442D01*
X96322460Y71916676D01*
X96368255Y72034372D01*
X96402653Y72122799D01*
X96434850Y72122799D01*
X96442351Y72115298D01*
X96449852Y72122799D01*
X96442351Y72130301D01*
X96434850Y72122799D01*
X96402653Y72122799D01*
X96419088Y72165048D01*
X96420279Y72168110D01*
X96453058Y72168110D01*
X96454853Y72150305D01*
X96459366Y72147958D01*
X96464855Y72160307D01*
X96463773Y72168249D01*
X96454853Y72170309D01*
X96453058Y72168110D01*
X96420279Y72168110D01*
X96431831Y72197814D01*
X96464855Y72197814D01*
X96472357Y72190313D01*
X96474504Y72192460D01*
X96646513Y72192460D01*
X96649176Y72160307D01*
X96649184Y72160212D01*
X96668622Y72139407D01*
X96685586Y72133579D01*
X96711971Y72132921D01*
X96741381Y72150198D01*
X96760911Y72176176D01*
X96759283Y72205732D01*
X96740345Y72230197D01*
X96709914Y72242293D01*
X96676587Y72235321D01*
X96673810Y72234740D01*
X96659904Y72223197D01*
X96648846Y72197814D01*
X96646513Y72192460D01*
X96474504Y72192460D01*
X96479858Y72197814D01*
X96472357Y72205316D01*
X96464855Y72197814D01*
X96431831Y72197814D01*
X96449453Y72243124D01*
X96483064Y72243124D01*
X96484859Y72225319D01*
X96489372Y72222972D01*
X96494861Y72235321D01*
X96493779Y72243264D01*
X96484859Y72245323D01*
X96483064Y72243124D01*
X96449453Y72243124D01*
X96466957Y72288133D01*
X96498067Y72288133D01*
X96499862Y72270328D01*
X96504375Y72267981D01*
X96509864Y72280330D01*
X96508782Y72288273D01*
X96499862Y72290332D01*
X96498067Y72288133D01*
X96466957Y72288133D01*
X96473992Y72306222D01*
X96478509Y72317838D01*
X96509864Y72317838D01*
X96517366Y72310336D01*
X96524867Y72317838D01*
X96517366Y72325339D01*
X96509864Y72317838D01*
X96478509Y72317838D01*
X96496128Y72363148D01*
X96528073Y72363148D01*
X96529868Y72345343D01*
X96534381Y72342996D01*
X96539870Y72355345D01*
X96538787Y72363288D01*
X96529868Y72365347D01*
X96528073Y72363148D01*
X96496128Y72363148D01*
X96507678Y72392852D01*
X96539870Y72392852D01*
X96547372Y72385351D01*
X96554873Y72392852D01*
X96547372Y72400354D01*
X96539870Y72392852D01*
X96507678Y72392852D01*
X96532004Y72455412D01*
X96592158Y72610136D01*
X96653491Y72767912D01*
X96715036Y72926259D01*
X96775831Y73082694D01*
X96834909Y73234735D01*
X96891306Y73379902D01*
X96944057Y73515710D01*
X96992198Y73639680D01*
X97034763Y73749329D01*
X97070789Y73842174D01*
X97099311Y73915735D01*
X97119363Y73967528D01*
X97129980Y73995073D01*
X97138228Y74015984D01*
X97158958Y74062776D01*
X97175734Y74092719D01*
X97185530Y74100094D01*
X97187938Y74095829D01*
X97194478Y74081072D01*
X97205234Y74054862D01*
X97220658Y74016011D01*
X97241201Y73963331D01*
X97267317Y73895632D01*
X97299456Y73811727D01*
X97338072Y73710427D01*
X97383616Y73590543D01*
X97436539Y73450886D01*
X97497295Y73290269D01*
X97566335Y73107503D01*
X97644112Y72901398D01*
X97731077Y72670767D01*
X97827682Y72414422D01*
X97835807Y72392852D01*
X97849936Y72355345D01*
X97864064Y72317838D01*
X97878193Y72280330D01*
X97917427Y72176176D01*
G37*
G36*
X95219610Y68102008D02*
G01*
X95212109Y68094506D01*
X95204607Y68102008D01*
X95212109Y68109509D01*
X95219610Y68102008D01*
G37*
G36*
X68821282Y9835037D02*
G01*
X68807143Y9540621D01*
X68807093Y9540134D01*
X68760777Y9235030D01*
X68689515Y8966165D01*
X68595670Y8738202D01*
X68481602Y8555804D01*
X68349673Y8423634D01*
X68202245Y8346353D01*
X68091938Y8331079D01*
X67944314Y8353943D01*
X67805443Y8418331D01*
X67752900Y8458229D01*
X67629471Y8598776D01*
X67526402Y8784982D01*
X67444316Y9008082D01*
X67383833Y9259311D01*
X67345575Y9529903D01*
X67330164Y9811093D01*
X67338219Y10094115D01*
X67370363Y10370204D01*
X67378288Y10406502D01*
X67857660Y10406502D01*
X67880507Y10272870D01*
X67931537Y10160788D01*
X68010796Y10086498D01*
X68057825Y10062777D01*
X68092318Y10061463D01*
X68142078Y10088037D01*
X68163914Y10102667D01*
X68229482Y10179264D01*
X68270016Y10281647D01*
X68287422Y10399069D01*
X68283603Y10520784D01*
X68260465Y10636042D01*
X68219911Y10734098D01*
X68163846Y10804204D01*
X68094174Y10835613D01*
X68012801Y10817576D01*
X67957775Y10774269D01*
X67896338Y10673444D01*
X67862952Y10545441D01*
X67857660Y10406502D01*
X67378288Y10406502D01*
X67427218Y10630596D01*
X67509403Y10866523D01*
X67617542Y11069222D01*
X67660705Y11128627D01*
X67796031Y11258275D01*
X67945447Y11332103D01*
X68101221Y11350112D01*
X68255625Y11312301D01*
X68400927Y11218671D01*
X68529397Y11069222D01*
X68609651Y10924231D01*
X68698003Y10691528D01*
X68764320Y10423653D01*
X68767873Y10399069D01*
X68806210Y10133768D01*
X68821282Y9835037D01*
G37*
G36*
X66688038Y6690343D02*
G01*
X67083528Y6647281D01*
X67448379Y6568846D01*
X67484358Y6558440D01*
X67694691Y6485360D01*
X67901852Y6394743D01*
X68091686Y6293977D01*
X68250038Y6190448D01*
X68362756Y6091547D01*
X68372452Y6080782D01*
X68398319Y6045517D01*
X68381006Y6032197D01*
X68311613Y6030132D01*
X68232695Y6041226D01*
X68151147Y6089518D01*
X68146527Y6094388D01*
X68071162Y6151203D01*
X67952983Y6218031D01*
X67806284Y6288422D01*
X67645359Y6355925D01*
X67484504Y6414089D01*
X67338013Y6456463D01*
X67252970Y6475762D01*
X66809627Y6543441D01*
X66350342Y6562784D01*
X65892825Y6533791D01*
X65454784Y6456463D01*
X65441224Y6453129D01*
X65292658Y6408890D01*
X65131154Y6349505D01*
X64971007Y6281424D01*
X64826510Y6211099D01*
X64711960Y6144980D01*
X64641650Y6089518D01*
X64587027Y6051181D01*
X64480595Y6030132D01*
X64373283Y6030132D01*
X64447132Y6108741D01*
X64551370Y6199085D01*
X64712705Y6303498D01*
X64907904Y6404603D01*
X65123098Y6495295D01*
X65344418Y6568466D01*
X65498681Y6607327D01*
X65877519Y6670363D01*
X66280003Y6698036D01*
X66688038Y6690343D01*
G37*
G36*
X71649230Y3943108D02*
G01*
X71533451Y3703753D01*
X71361843Y3481828D01*
X71177533Y3307416D01*
X70872609Y3088710D01*
X70529084Y2915634D01*
X70149223Y2789262D01*
X69735294Y2710669D01*
X69390785Y2684007D01*
X68967007Y2697667D01*
X68557609Y2762048D01*
X68169508Y2875511D01*
X67809620Y3036422D01*
X67484860Y3243143D01*
X67401483Y3304905D01*
X67324831Y3355736D01*
X67267902Y3380108D01*
X67214754Y3384260D01*
X67149446Y3374433D01*
X66976348Y3346842D01*
X66701815Y3318866D01*
X66406866Y3303568D01*
X66114463Y3301992D01*
X65847563Y3315184D01*
X65451188Y3348830D01*
X65290908Y3227818D01*
X65025331Y3056393D01*
X64694471Y2902380D01*
X64333484Y2787111D01*
X63953260Y2713303D01*
X63564690Y2683672D01*
X63178662Y2700934D01*
X63083086Y2712338D01*
X62673012Y2786792D01*
X62307231Y2898972D01*
X61981273Y3050873D01*
X61690670Y3244493D01*
X61430954Y3481828D01*
X61380647Y3537905D01*
X61224144Y3765245D01*
X61122879Y4009418D01*
X61076801Y4263396D01*
X61079965Y4353061D01*
X61380432Y4353061D01*
X61380469Y4331641D01*
X61384147Y4199471D01*
X61397306Y4101459D01*
X61424836Y4014042D01*
X61471629Y3913655D01*
X61554929Y3780613D01*
X61715436Y3603395D01*
X61921387Y3437562D01*
X62163799Y3289179D01*
X62433693Y3164312D01*
X62722089Y3069028D01*
X62734457Y3065776D01*
X62870331Y3035991D01*
X63019986Y3015154D01*
X63199114Y3001578D01*
X63423409Y2993574D01*
X63655137Y2991825D01*
X63877488Y3000982D01*
X64073198Y3024115D01*
X64260117Y3063429D01*
X64456094Y3121129D01*
X64460302Y3122517D01*
X64565891Y3162018D01*
X64686990Y3213988D01*
X64809183Y3271380D01*
X64918051Y3327148D01*
X64999179Y3374243D01*
X65038147Y3405621D01*
X65037670Y3416090D01*
X65000248Y3443234D01*
X64926070Y3469420D01*
X64872041Y3484941D01*
X67642386Y3484941D01*
X67713090Y3426756D01*
X67742653Y3405621D01*
X67761500Y3392147D01*
X67880075Y3324357D01*
X68031101Y3250873D01*
X68198249Y3178971D01*
X68365193Y3115930D01*
X68515606Y3069028D01*
X68601469Y3049541D01*
X68797745Y3020041D01*
X69025246Y3000049D01*
X69265782Y2990131D01*
X69501164Y2990851D01*
X69713202Y3002777D01*
X69883705Y3026473D01*
X70195173Y3107908D01*
X70500195Y3224286D01*
X70772147Y3367375D01*
X71004257Y3532988D01*
X71189749Y3716942D01*
X71321851Y3915051D01*
X71328682Y3928635D01*
X71372578Y4025717D01*
X71397920Y4113147D01*
X71409563Y4214428D01*
X71412365Y4353061D01*
X71412334Y4372682D01*
X71408717Y4505524D01*
X71395669Y4603868D01*
X71368333Y4691217D01*
X71321851Y4791072D01*
X71316529Y4801391D01*
X71202710Y4971351D01*
X71047422Y5134084D01*
X71010194Y5166043D01*
X70899680Y5250747D01*
X70778287Y5332752D01*
X70657881Y5405191D01*
X70550328Y5461198D01*
X70467496Y5493905D01*
X70421250Y5496445D01*
X70404828Y5480885D01*
X70355575Y5423976D01*
X70285339Y5337050D01*
X70203472Y5231487D01*
X70073376Y5068850D01*
X69720238Y4693341D01*
X69322324Y4352635D01*
X68886294Y4051541D01*
X68418811Y3794868D01*
X67926535Y3587427D01*
X67642386Y3484941D01*
X64872041Y3484941D01*
X64822921Y3499052D01*
X64633923Y3562174D01*
X64428938Y3638708D01*
X64231151Y3719851D01*
X64063746Y3796801D01*
X63888302Y3887153D01*
X63485087Y4123140D01*
X63123069Y4381361D01*
X62790756Y4671457D01*
X62476652Y5003068D01*
X62169265Y5385835D01*
X62164586Y5390265D01*
X62116417Y5388702D01*
X62033422Y5348451D01*
X61922383Y5273417D01*
X61790081Y5167504D01*
X61649553Y5037842D01*
X61521611Y4885329D01*
X61438644Y4729376D01*
X61393852Y4556461D01*
X61380432Y4353061D01*
X61079965Y4353061D01*
X61085861Y4520150D01*
X61150009Y4772651D01*
X61269196Y5013871D01*
X61443371Y5236782D01*
X61536231Y5326234D01*
X61652516Y5426462D01*
X61774164Y5522731D01*
X61884860Y5602143D01*
X61968288Y5651797D01*
X61968463Y5652769D01*
X61954289Y5687473D01*
X61917512Y5764239D01*
X61863140Y5872843D01*
X61796183Y6003062D01*
X61670759Y6258934D01*
X61500365Y6674063D01*
X61379177Y7070935D01*
X61329066Y7273202D01*
X61171796Y7293691D01*
X60912597Y7339111D01*
X60535612Y7450029D01*
X60187256Y7608447D01*
X59873777Y7811333D01*
X59601422Y8055657D01*
X59559109Y8102451D01*
X59400963Y8328532D01*
X59297546Y8572417D01*
X59248861Y8826655D01*
X59251217Y8926891D01*
X59550900Y8926891D01*
X59550937Y8905471D01*
X59554615Y8773301D01*
X59567774Y8675289D01*
X59595305Y8587871D01*
X59642098Y8487484D01*
X59734155Y8343023D01*
X59896785Y8167377D01*
X60103217Y8003467D01*
X60343899Y7857730D01*
X60609281Y7736605D01*
X60889812Y7646528D01*
X60916239Y7639920D01*
X61037886Y7612127D01*
X61140519Y7592604D01*
X61204225Y7585234D01*
X61235477Y7586504D01*
X61261739Y7600561D01*
X61266221Y7643176D01*
X61254365Y7730072D01*
X61246814Y7793183D01*
X61237925Y7938077D01*
X61233496Y8119267D01*
X61233332Y8317047D01*
X61517647Y8317047D01*
X61523070Y8077932D01*
X61572598Y7578303D01*
X61675611Y7094608D01*
X61834288Y6617945D01*
X62050811Y6139408D01*
X62088942Y6065951D01*
X62268618Y5755132D01*
X62466738Y5473200D01*
X62701404Y5193840D01*
X63023320Y4862919D01*
X63377924Y4558104D01*
X63752578Y4298513D01*
X64159120Y4076009D01*
X64609388Y3882455D01*
X64692377Y3851346D01*
X64900842Y3780187D01*
X65100261Y3724835D01*
X65313965Y3679316D01*
X65565286Y3637653D01*
X65618639Y3630246D01*
X65870404Y3607117D01*
X66152373Y3596520D01*
X66442068Y3598423D01*
X66717010Y3612793D01*
X66954720Y3639601D01*
X67063044Y3657837D01*
X67560682Y3775934D01*
X68044034Y3946208D01*
X68504385Y4164644D01*
X68933024Y4427229D01*
X69321239Y4729948D01*
X69522040Y4915347D01*
X69880255Y5299776D01*
X70184274Y5706547D01*
X70437065Y6139408D01*
X70544609Y6361692D01*
X70734087Y6838255D01*
X70866730Y7317066D01*
X70944717Y7807029D01*
X70970228Y8317047D01*
X70964805Y8556162D01*
X70915277Y9055791D01*
X70812264Y9539486D01*
X70653587Y10016149D01*
X70532891Y10282900D01*
X70878752Y10282900D01*
X70880181Y10274506D01*
X70896686Y10218653D01*
X70927763Y10126053D01*
X70968495Y10011574D01*
X71019970Y9861910D01*
X71134242Y9452957D01*
X71216590Y9033614D01*
X71225921Y8959593D01*
X71238753Y8800664D01*
X71248001Y8610636D01*
X71253465Y8404826D01*
X71254095Y8317047D01*
X71254946Y8198548D01*
X71252247Y8007119D01*
X71245168Y7845855D01*
X71233510Y7730072D01*
X71222791Y7657817D01*
X71222992Y7607103D01*
X71245162Y7588688D01*
X71296151Y7586913D01*
X71403300Y7598863D01*
X71564047Y7635652D01*
X71747187Y7692055D01*
X71935980Y7762833D01*
X72113686Y7842746D01*
X72312773Y7953917D01*
X72539760Y8118970D01*
X72720021Y8299377D01*
X72846461Y8488880D01*
X72853292Y8502464D01*
X72897188Y8599546D01*
X72922530Y8686977D01*
X72934173Y8788258D01*
X72936975Y8926891D01*
X72936944Y8946512D01*
X72933327Y9079353D01*
X72920279Y9177697D01*
X72892942Y9265046D01*
X72846461Y9364902D01*
X72835597Y9385661D01*
X72700989Y9577054D01*
X72515277Y9755186D01*
X72286887Y9915558D01*
X72024245Y10053669D01*
X71735776Y10165021D01*
X71429908Y10245114D01*
X71115066Y10289447D01*
X71086277Y10291530D01*
X70980685Y10295545D01*
X70906660Y10292534D01*
X70878752Y10282900D01*
X70532891Y10282900D01*
X70437065Y10494686D01*
X70385268Y10593571D01*
X70182710Y10934028D01*
X69952480Y11249616D01*
X69684112Y11553683D01*
X69367144Y11859581D01*
X69305717Y11914256D01*
X69028029Y12139499D01*
X68742086Y12332103D01*
X68421576Y12510174D01*
X68199292Y12617718D01*
X67722730Y12807196D01*
X67243919Y12939839D01*
X66753956Y13017826D01*
X66243938Y13043338D01*
X66004822Y13037914D01*
X65505193Y12988386D01*
X65021499Y12885374D01*
X64544835Y12726696D01*
X64066299Y12510174D01*
X63992842Y12472043D01*
X63682023Y12292366D01*
X63400090Y12094247D01*
X63120731Y11859581D01*
X63028901Y11775242D01*
X62726221Y11471167D01*
X62469288Y11165282D01*
X62247639Y10844238D01*
X62050811Y10494686D01*
X61948346Y10282900D01*
X61943267Y10272402D01*
X61753788Y9795839D01*
X61621145Y9317028D01*
X61543158Y8827065D01*
X61517647Y8317047D01*
X61233332Y8317047D01*
X61233328Y8321439D01*
X61237222Y8529275D01*
X61244978Y8727460D01*
X61256399Y8900679D01*
X61271285Y9033614D01*
X61299122Y9196590D01*
X61394974Y9615915D01*
X61519380Y10011574D01*
X61535329Y10055718D01*
X61573048Y10163804D01*
X61599285Y10244487D01*
X61609124Y10282900D01*
X61594325Y10292968D01*
X61531085Y10297862D01*
X61429604Y10293417D01*
X61302445Y10280941D01*
X61162174Y10261740D01*
X61021357Y10237120D01*
X60892557Y10208388D01*
X60669789Y10139782D01*
X60398658Y10024011D01*
X60150929Y9882450D01*
X59935995Y9721426D01*
X59763253Y9547266D01*
X59642098Y9366298D01*
X59634586Y9351349D01*
X59590638Y9254046D01*
X59565301Y9166578D01*
X59553685Y9065381D01*
X59550900Y8926891D01*
X59251217Y8926891D01*
X59254905Y9083796D01*
X59315681Y9336389D01*
X59431186Y9576982D01*
X59601422Y9798125D01*
X59840347Y10018425D01*
X60139636Y10221377D01*
X60476182Y10380352D01*
X60852951Y10496722D01*
X61272910Y10571861D01*
X61301631Y10575344D01*
X61439332Y10590016D01*
X61564846Y10600495D01*
X61654062Y10604703D01*
X61676365Y10604925D01*
X61727546Y10609451D01*
X61767292Y10627513D01*
X61805888Y10669043D01*
X61853618Y10743972D01*
X61920767Y10862232D01*
X62068681Y11106744D01*
X62372363Y11519634D01*
X62722465Y11899029D01*
X63114157Y12241677D01*
X63542607Y12544326D01*
X64002985Y12803724D01*
X64490459Y13016619D01*
X65000198Y13179759D01*
X65527371Y13289893D01*
X65684049Y13307303D01*
X65888838Y13319389D01*
X66120034Y13325480D01*
X66360218Y13325576D01*
X66591971Y13319676D01*
X66797872Y13307782D01*
X66960504Y13289893D01*
X67257435Y13234972D01*
X67775445Y13094769D01*
X68273317Y12903380D01*
X68746220Y12664056D01*
X69189323Y12380049D01*
X69597794Y12054611D01*
X69966803Y11690995D01*
X70291518Y11292451D01*
X70567109Y10862232D01*
X70593241Y10815686D01*
X70652489Y10713580D01*
X70695886Y10651360D01*
X70733715Y10619095D01*
X70776263Y10606853D01*
X70833813Y10604703D01*
X70848592Y10604439D01*
X70947596Y10598828D01*
X71077762Y10587511D01*
X71214966Y10572523D01*
X71572798Y10512078D01*
X71959340Y10400567D01*
X72305732Y10245052D01*
X72614071Y10044561D01*
X72886453Y9798125D01*
X72929737Y9750178D01*
X73086843Y9524538D01*
X73189520Y9280734D01*
X73237766Y9026378D01*
X73235375Y8926891D01*
X73231583Y8769081D01*
X73170970Y8516455D01*
X73055926Y8276109D01*
X72886453Y8055657D01*
X72706721Y7885831D01*
X72407145Y7669758D01*
X72072225Y7496657D01*
X71710084Y7370494D01*
X71328841Y7295233D01*
X71159013Y7274014D01*
X71108800Y7071341D01*
X71089691Y6998024D01*
X70993431Y6692887D01*
X70870063Y6376367D01*
X70730014Y6075871D01*
X70689447Y5996448D01*
X70635649Y5890763D01*
X70596749Y5813895D01*
X70579205Y5778572D01*
X70577816Y5770385D01*
X70604084Y5755702D01*
X70620520Y5753313D01*
X70694004Y5723118D01*
X70797921Y5664584D01*
X70920238Y5585727D01*
X71048917Y5494563D01*
X71171923Y5399109D01*
X71277220Y5307380D01*
X71401107Y5176551D01*
X71560008Y4946380D01*
X71664569Y4701528D01*
X71714491Y4448418D01*
X71712616Y4353061D01*
X71709477Y4193470D01*
X71649230Y3943108D01*
G37*
G36*
X65465208Y9842812D02*
G01*
X65452801Y9552749D01*
X65413319Y9267898D01*
X65345380Y8996695D01*
X65345285Y8996393D01*
X65249466Y8752316D01*
X65133654Y8561298D01*
X64999362Y8425318D01*
X64848103Y8346353D01*
X64715414Y8326257D01*
X64565139Y8356506D01*
X64424137Y8441914D01*
X64296020Y8579363D01*
X64184400Y8765740D01*
X64092886Y8997927D01*
X64050239Y9151894D01*
X63998992Y9431670D01*
X63975390Y9720305D01*
X63978044Y10009353D01*
X64005568Y10290371D01*
X64027959Y10406502D01*
X64503518Y10406502D01*
X64526365Y10272870D01*
X64577396Y10160788D01*
X64656654Y10086498D01*
X64703683Y10062777D01*
X64738177Y10061463D01*
X64787936Y10088037D01*
X64809772Y10102667D01*
X64875340Y10179264D01*
X64915875Y10281647D01*
X64933280Y10399069D01*
X64929462Y10520784D01*
X64906323Y10636042D01*
X64865769Y10734098D01*
X64809704Y10804204D01*
X64740033Y10835613D01*
X64658659Y10817576D01*
X64603633Y10774269D01*
X64542197Y10673444D01*
X64508810Y10545441D01*
X64503518Y10406502D01*
X64027959Y10406502D01*
X64056575Y10554914D01*
X64129677Y10794538D01*
X64223487Y11000798D01*
X64336619Y11165250D01*
X64467684Y11279450D01*
X64507306Y11301085D01*
X64661358Y11344543D01*
X64822801Y11337331D01*
X64970971Y11279450D01*
X65048560Y11220326D01*
X65169547Y11076112D01*
X65271760Y10886504D01*
X65353817Y10659935D01*
X65414332Y10404840D01*
X65415120Y10399069D01*
X65451924Y10129654D01*
X65465208Y9842812D01*
G37*
%TD*%
D13*
%TO.C,U5*%
X75453000Y47200000D03*
D14*
X72913000Y47200000D03*
X70373000Y47200000D03*
X67833000Y47200000D03*
X65293000Y47200000D03*
X62753000Y47200000D03*
X60213000Y47200000D03*
X57673000Y47200000D03*
X55133000Y47200000D03*
X52593000Y47200000D03*
X50053000Y47200000D03*
X47513000Y47200000D03*
X47513000Y39580000D03*
X50053000Y39580000D03*
X52593000Y39580000D03*
X55133000Y39580000D03*
X57673000Y39580000D03*
X60213000Y39580000D03*
X62753000Y39580000D03*
X65293000Y39580000D03*
X67833000Y39580000D03*
X70373000Y39580000D03*
X72913000Y39580000D03*
X75453000Y39580000D03*
%TD*%
D15*
%TO.C,H2*%
X135100000Y85000000D03*
%TD*%
%TO.C,SW1*%
X128500000Y46200000D03*
X128500000Y35000000D03*
D16*
X121000000Y43100000D03*
D17*
X121000000Y38100000D03*
X121000000Y40600000D03*
X135500000Y38100000D03*
X135500000Y43100000D03*
%TD*%
%TO.C,A_TP1*%
X116215000Y46321000D03*
%TD*%
%TO.C,DO_TP1*%
X83600000Y3900000D03*
%TD*%
%TO.C,TX_TP1*%
X110100000Y37500000D03*
%TD*%
D15*
%TO.C,H3*%
X5000000Y5000000D03*
%TD*%
D17*
%TO.C,VCC_TP1*%
X103515000Y3395000D03*
%TD*%
D13*
%TO.C,U6*%
X40396000Y47210000D03*
D14*
X37856000Y47210000D03*
X35316000Y47210000D03*
X32776000Y47210000D03*
X30236000Y47210000D03*
X27696000Y47210000D03*
X25156000Y47210000D03*
X22616000Y47210000D03*
X20076000Y47210000D03*
X17536000Y47210000D03*
X14996000Y47210000D03*
X12456000Y47210000D03*
X12456000Y39590000D03*
X14996000Y39590000D03*
X17536000Y39590000D03*
X20076000Y39590000D03*
X22616000Y39590000D03*
X25156000Y39590000D03*
X27696000Y39590000D03*
X30236000Y39590000D03*
X32776000Y39590000D03*
X35316000Y39590000D03*
X37856000Y39590000D03*
X40396000Y39590000D03*
%TD*%
D17*
%TO.C,RX_TP1*%
X110000000Y32700000D03*
%TD*%
%TO.C,B_TP1*%
X117866000Y34383000D03*
%TD*%
D18*
%TO.C,DS1*%
X52700900Y84157500D03*
X127699480Y53156800D03*
X127700000Y84157500D03*
X52700900Y53156800D03*
D19*
X58200000Y84157500D03*
D20*
X60740000Y84157500D03*
X63280000Y84157500D03*
X65820000Y84157500D03*
X68360000Y84157500D03*
X70900000Y84157500D03*
X73440000Y84157500D03*
X75980000Y84157500D03*
X78520000Y84157500D03*
X81060000Y84157500D03*
X83600000Y84157500D03*
X86140000Y84157500D03*
X88680000Y84157500D03*
X91220000Y84157500D03*
X93760000Y84157500D03*
X96300000Y84157500D03*
%TD*%
D13*
%TO.C,U4*%
X28458000Y56862000D03*
D14*
X30998000Y56862000D03*
X33538000Y56862000D03*
X36078000Y56862000D03*
X36078000Y64482000D03*
X33538000Y64482000D03*
X30998000Y64482000D03*
X28458000Y64482000D03*
%TD*%
D15*
%TO.C,H1*%
X4900000Y85000000D03*
%TD*%
D13*
%TO.C,U2*%
X90600000Y42500000D03*
D14*
X90600000Y39960000D03*
X90600000Y37420000D03*
X90600000Y34880000D03*
X90600000Y32340000D03*
X90600000Y29800000D03*
X90600000Y27260000D03*
X90600000Y24720000D03*
X90600000Y22180000D03*
X90600000Y19640000D03*
X90600000Y17100000D03*
X90600000Y14560000D03*
X90600000Y12020000D03*
X90600000Y9480000D03*
X98220000Y9480000D03*
X98220000Y12020000D03*
X98220000Y14560000D03*
X98220000Y17100000D03*
X98220000Y19640000D03*
X98220000Y22180000D03*
X98220000Y24720000D03*
X98220000Y27260000D03*
X98220000Y29800000D03*
X98220000Y32340000D03*
X98220000Y34880000D03*
X98220000Y37420000D03*
X98220000Y39960000D03*
X98220000Y42500000D03*
%TD*%
D21*
%TO.C,RV1*%
X41158000Y77944000D03*
X43698000Y80484000D03*
X41158000Y83024000D03*
%TD*%
D17*
%TO.C,VBAT_TP1*%
X22235000Y83532000D03*
%TD*%
%TO.C,TP_GND1*%
X121300000Y3400000D03*
%TD*%
D22*
%TO.C,D2*%
X14700000Y29290000D03*
X14700000Y26750000D03*
X14700000Y24210000D03*
X14700000Y21670000D03*
X14700000Y19130000D03*
X14700000Y16590000D03*
X14700000Y14050000D03*
X14700000Y11510000D03*
X38700000Y11510000D03*
X38700000Y14050000D03*
X38700000Y16590000D03*
X38700000Y19130000D03*
X38700000Y21670000D03*
X38700000Y24210000D03*
X38700000Y26750000D03*
X38700000Y29290000D03*
%TD*%
%TO.C,D1*%
X50200000Y29360000D03*
X50200000Y26820000D03*
X50200000Y24280000D03*
X50200000Y21740000D03*
X50200000Y19200000D03*
X50200000Y16660000D03*
X50200000Y14120000D03*
X50200000Y11580000D03*
X74200000Y11580000D03*
X74200000Y14120000D03*
X74200000Y16660000D03*
X74200000Y19200000D03*
X74200000Y21740000D03*
X74200000Y24280000D03*
X74200000Y26820000D03*
X74200000Y29360000D03*
%TD*%
D23*
%TO.C,J3*%
X124525000Y29225000D03*
D24*
X127065000Y29225000D03*
X124525000Y26685000D03*
X127065000Y26685000D03*
X124525000Y24145000D03*
X127065000Y24145000D03*
%TD*%
D15*
%TO.C,H4*%
X135000000Y5000000D03*
%TD*%
D25*
%TO.C,J1*%
X118500000Y13200000D03*
D26*
X120800000Y18500000D03*
X124500000Y16000000D03*
%TD*%
D27*
%TO.C,BT1*%
X14900000Y84800000D03*
D18*
X14900000Y64310000D03*
%TD*%
D23*
%TO.C,J2*%
X106690000Y43273000D03*
D24*
X106690000Y40733000D03*
X106690000Y38193000D03*
X106690000Y35653000D03*
X106690000Y33113000D03*
X106690000Y30573000D03*
%TD*%
M02*
