%TF.GenerationSoftware,KiCad,Pcbnew,(6.0.5)*%
%TF.CreationDate,2022-07-13T23:51:26-04:00*%
%TF.ProjectId,Clock,436c6f63-6b2e-46b6-9963-61645f706362,rev?*%
%TF.SameCoordinates,PX4c4b400PY8a48640*%
%TF.FileFunction,Legend,Top*%
%TF.FilePolarity,Positive*%
%FSLAX46Y46*%
G04 Gerber Fmt 4.6, Leading zero omitted, Abs format (unit mm)*
G04 Created by KiCad (PCBNEW (6.0.5)) date 2022-07-13 23:51:26*
%MOMM*%
%LPD*%
G01*
G04 APERTURE LIST*
G04 Aperture macros list*
%AMRoundRect*
0 Rectangle with rounded corners*
0 $1 Rounding radius*
0 $2 $3 $4 $5 $6 $7 $8 $9 X,Y pos of 4 corners*
0 Add a 4 corners polygon primitive as box body*
4,1,4,$2,$3,$4,$5,$6,$7,$8,$9,$2,$3,0*
0 Add four circle primitives for the rounded corners*
1,1,$1+$1,$2,$3*
1,1,$1+$1,$4,$5*
1,1,$1+$1,$6,$7*
1,1,$1+$1,$8,$9*
0 Add four rect primitives between the rounded corners*
20,1,$1+$1,$2,$3,$4,$5,0*
20,1,$1+$1,$4,$5,$6,$7,0*
20,1,$1+$1,$6,$7,$8,$9,0*
20,1,$1+$1,$8,$9,$2,$3,0*%
G04 Aperture macros list end*
%ADD10C,0.150000*%
%ADD11C,0.120000*%
%ADD12R,1.000000X1.800000*%
%ADD13R,1.150000X1.400000*%
%ADD14C,3.200000*%
%ADD15R,1.600000X1.600000*%
%ADD16O,1.600000X1.600000*%
%ADD17R,1.400000X1.150000*%
%ADD18C,1.524000*%
%ADD19C,2.000000*%
%ADD20R,2.000000X4.500000*%
%ADD21C,3.000000*%
%ADD22R,1.800000X2.600000*%
%ADD23O,1.800000X2.600000*%
%ADD24R,2.000000X2.000000*%
%ADD25C,1.440000*%
%ADD26R,1.050000X1.500000*%
%ADD27O,1.050000X1.500000*%
%ADD28RoundRect,0.500000X0.500000X-1.750000X0.500000X1.750000X-0.500000X1.750000X-0.500000X-1.750000X0*%
%ADD29RoundRect,0.500000X1.500000X0.500000X-1.500000X0.500000X-1.500000X-0.500000X1.500000X-0.500000X0*%
%ADD30R,3.000000X3.000000*%
%ADD31R,1.700000X1.700000*%
%ADD32O,1.700000X1.700000*%
G04 APERTURE END LIST*
D10*
%TO.C,Y2*%
X29241809Y55269810D02*
X29241809Y54793620D01*
X28908476Y55793620D02*
X29241809Y55269810D01*
X29575142Y55793620D01*
X29860857Y55698381D02*
X29908476Y55746000D01*
X30003714Y55793620D01*
X30241809Y55793620D01*
X30337047Y55746000D01*
X30384666Y55698381D01*
X30432285Y55603143D01*
X30432285Y55507905D01*
X30384666Y55365048D01*
X29813238Y54793620D01*
X30432285Y54793620D01*
%TO.C,R1*%
X86457333Y30754620D02*
X86124000Y31230810D01*
X85885904Y30754620D02*
X85885904Y31754620D01*
X86266857Y31754620D01*
X86362095Y31707000D01*
X86409714Y31659381D01*
X86457333Y31564143D01*
X86457333Y31421286D01*
X86409714Y31326048D01*
X86362095Y31278429D01*
X86266857Y31230810D01*
X85885904Y31230810D01*
X87409714Y30754620D02*
X86838285Y30754620D01*
X87124000Y30754620D02*
X87124000Y31754620D01*
X87028761Y31611762D01*
X86933523Y31516524D01*
X86838285Y31468905D01*
%TO.C,H4*%
X134238095Y8747620D02*
X134238095Y9747620D01*
X134238095Y9271429D02*
X134809523Y9271429D01*
X134809523Y8747620D02*
X134809523Y9747620D01*
X135714285Y9414286D02*
X135714285Y8747620D01*
X135476190Y9795239D02*
X135238095Y9080953D01*
X135857142Y9080953D01*
%TO.C,U5*%
X77235380Y42628096D02*
X78044904Y42628096D01*
X78140142Y42675715D01*
X78187761Y42723334D01*
X78235380Y42818572D01*
X78235380Y43009048D01*
X78187761Y43104286D01*
X78140142Y43151905D01*
X78044904Y43199524D01*
X77235380Y43199524D01*
X77235380Y44151905D02*
X77235380Y43675715D01*
X77711571Y43628096D01*
X77663952Y43675715D01*
X77616333Y43770953D01*
X77616333Y44009048D01*
X77663952Y44104286D01*
X77711571Y44151905D01*
X77806809Y44199524D01*
X78044904Y44199524D01*
X78140142Y44151905D01*
X78187761Y44104286D01*
X78235380Y44009048D01*
X78235380Y43770953D01*
X78187761Y43675715D01*
X78140142Y43628096D01*
%TO.C,C6*%
X83805142Y11483334D02*
X83852761Y11435715D01*
X83900380Y11292858D01*
X83900380Y11197620D01*
X83852761Y11054762D01*
X83757523Y10959524D01*
X83662285Y10911905D01*
X83471809Y10864286D01*
X83328952Y10864286D01*
X83138476Y10911905D01*
X83043238Y10959524D01*
X82948000Y11054762D01*
X82900380Y11197620D01*
X82900380Y11292858D01*
X82948000Y11435715D01*
X82995619Y11483334D01*
X82900380Y12340477D02*
X82900380Y12150000D01*
X82948000Y12054762D01*
X82995619Y12007143D01*
X83138476Y11911905D01*
X83328952Y11864286D01*
X83709904Y11864286D01*
X83805142Y11911905D01*
X83852761Y11959524D01*
X83900380Y12054762D01*
X83900380Y12245239D01*
X83852761Y12340477D01*
X83805142Y12388096D01*
X83709904Y12435715D01*
X83471809Y12435715D01*
X83376571Y12388096D01*
X83328952Y12340477D01*
X83281333Y12245239D01*
X83281333Y12054762D01*
X83328952Y11959524D01*
X83376571Y11911905D01*
X83471809Y11864286D01*
%TO.C,D2*%
X22258904Y27580620D02*
X22258904Y28580620D01*
X22497000Y28580620D01*
X22639857Y28533000D01*
X22735095Y28437762D01*
X22782714Y28342524D01*
X22830333Y28152048D01*
X22830333Y28009191D01*
X22782714Y27818715D01*
X22735095Y27723477D01*
X22639857Y27628239D01*
X22497000Y27580620D01*
X22258904Y27580620D01*
X23211285Y28485381D02*
X23258904Y28533000D01*
X23354142Y28580620D01*
X23592238Y28580620D01*
X23687476Y28533000D01*
X23735095Y28485381D01*
X23782714Y28390143D01*
X23782714Y28294905D01*
X23735095Y28152048D01*
X23163666Y27580620D01*
X23782714Y27580620D01*
X36427523Y28833620D02*
X35856095Y28833620D01*
X36141809Y28833620D02*
X36141809Y29833620D01*
X36046571Y29690762D01*
X35951333Y29595524D01*
X35856095Y29547905D01*
X37284666Y29833620D02*
X37094190Y29833620D01*
X36998952Y29786000D01*
X36951333Y29738381D01*
X36856095Y29595524D01*
X36808476Y29405048D01*
X36808476Y29024096D01*
X36856095Y28928858D01*
X36903714Y28881239D01*
X36998952Y28833620D01*
X37189428Y28833620D01*
X37284666Y28881239D01*
X37332285Y28928858D01*
X37379904Y29024096D01*
X37379904Y29262191D01*
X37332285Y29357429D01*
X37284666Y29405048D01*
X37189428Y29452667D01*
X36998952Y29452667D01*
X36903714Y29405048D01*
X36856095Y29357429D01*
X36808476Y29262191D01*
X16522761Y11405048D02*
X16427523Y11452667D01*
X16379904Y11500286D01*
X16332285Y11595524D01*
X16332285Y11643143D01*
X16379904Y11738381D01*
X16427523Y11786000D01*
X16522761Y11833620D01*
X16713238Y11833620D01*
X16808476Y11786000D01*
X16856095Y11738381D01*
X16903714Y11643143D01*
X16903714Y11595524D01*
X16856095Y11500286D01*
X16808476Y11452667D01*
X16713238Y11405048D01*
X16522761Y11405048D01*
X16427523Y11357429D01*
X16379904Y11309810D01*
X16332285Y11214572D01*
X16332285Y11024096D01*
X16379904Y10928858D01*
X16427523Y10881239D01*
X16522761Y10833620D01*
X16713238Y10833620D01*
X16808476Y10881239D01*
X16856095Y10928858D01*
X16903714Y11024096D01*
X16903714Y11214572D01*
X16856095Y11309810D01*
X16808476Y11357429D01*
X16713238Y11405048D01*
X36427523Y10833620D02*
X36618000Y10833620D01*
X36713238Y10881239D01*
X36760857Y10928858D01*
X36856095Y11071715D01*
X36903714Y11262191D01*
X36903714Y11643143D01*
X36856095Y11738381D01*
X36808476Y11786000D01*
X36713238Y11833620D01*
X36522761Y11833620D01*
X36427523Y11786000D01*
X36379904Y11738381D01*
X36332285Y11643143D01*
X36332285Y11405048D01*
X36379904Y11309810D01*
X36427523Y11262191D01*
X36522761Y11214572D01*
X36713238Y11214572D01*
X36808476Y11262191D01*
X36856095Y11309810D01*
X36903714Y11405048D01*
X16903714Y28833620D02*
X16332285Y28833620D01*
X16618000Y28833620D02*
X16618000Y29833620D01*
X16522761Y29690762D01*
X16427523Y29595524D01*
X16332285Y29547905D01*
%TO.C,TP2*%
X114953095Y48866620D02*
X115524523Y48866620D01*
X115238809Y47866620D02*
X115238809Y48866620D01*
X115857857Y47866620D02*
X115857857Y48866620D01*
X116238809Y48866620D01*
X116334047Y48819000D01*
X116381666Y48771381D01*
X116429285Y48676143D01*
X116429285Y48533286D01*
X116381666Y48438048D01*
X116334047Y48390429D01*
X116238809Y48342810D01*
X115857857Y48342810D01*
X116810238Y48771381D02*
X116857857Y48819000D01*
X116953095Y48866620D01*
X117191190Y48866620D01*
X117286428Y48819000D01*
X117334047Y48771381D01*
X117381666Y48676143D01*
X117381666Y48580905D01*
X117334047Y48438048D01*
X116762619Y47866620D01*
X117381666Y47866620D01*
%TO.C,C3*%
X103109142Y8689334D02*
X103156761Y8641715D01*
X103204380Y8498858D01*
X103204380Y8403620D01*
X103156761Y8260762D01*
X103061523Y8165524D01*
X102966285Y8117905D01*
X102775809Y8070286D01*
X102632952Y8070286D01*
X102442476Y8117905D01*
X102347238Y8165524D01*
X102252000Y8260762D01*
X102204380Y8403620D01*
X102204380Y8498858D01*
X102252000Y8641715D01*
X102299619Y8689334D01*
X102204380Y9022667D02*
X102204380Y9641715D01*
X102585333Y9308381D01*
X102585333Y9451239D01*
X102632952Y9546477D01*
X102680571Y9594096D01*
X102775809Y9641715D01*
X103013904Y9641715D01*
X103109142Y9594096D01*
X103156761Y9546477D01*
X103204380Y9451239D01*
X103204380Y9165524D01*
X103156761Y9070286D01*
X103109142Y9022667D01*
%TO.C,C4*%
X92934333Y5195858D02*
X92886714Y5148239D01*
X92743857Y5100620D01*
X92648619Y5100620D01*
X92505761Y5148239D01*
X92410523Y5243477D01*
X92362904Y5338715D01*
X92315285Y5529191D01*
X92315285Y5672048D01*
X92362904Y5862524D01*
X92410523Y5957762D01*
X92505761Y6053000D01*
X92648619Y6100620D01*
X92743857Y6100620D01*
X92886714Y6053000D01*
X92934333Y6005381D01*
X93791476Y5767286D02*
X93791476Y5100620D01*
X93553380Y6148239D02*
X93315285Y5433953D01*
X93934333Y5433953D01*
%TO.C,R12*%
X36784380Y52575143D02*
X36308190Y52241810D01*
X36784380Y52003715D02*
X35784380Y52003715D01*
X35784380Y52384667D01*
X35832000Y52479905D01*
X35879619Y52527524D01*
X35974857Y52575143D01*
X36117714Y52575143D01*
X36212952Y52527524D01*
X36260571Y52479905D01*
X36308190Y52384667D01*
X36308190Y52003715D01*
X36784380Y53527524D02*
X36784380Y52956096D01*
X36784380Y53241810D02*
X35784380Y53241810D01*
X35927238Y53146572D01*
X36022476Y53051334D01*
X36070095Y52956096D01*
X35879619Y53908477D02*
X35832000Y53956096D01*
X35784380Y54051334D01*
X35784380Y54289429D01*
X35832000Y54384667D01*
X35879619Y54432286D01*
X35974857Y54479905D01*
X36070095Y54479905D01*
X36212952Y54432286D01*
X36784380Y53860858D01*
X36784380Y54479905D01*
%TO.C,Y1*%
X85324190Y20063810D02*
X85800380Y20063810D01*
X84800380Y19730477D02*
X85324190Y20063810D01*
X84800380Y20397143D01*
X85800380Y21254286D02*
X85800380Y20682858D01*
X85800380Y20968572D02*
X84800380Y20968572D01*
X84943238Y20873334D01*
X85038476Y20778096D01*
X85086095Y20682858D01*
%TO.C,TP1*%
X102253095Y5940620D02*
X102824523Y5940620D01*
X102538809Y4940620D02*
X102538809Y5940620D01*
X103157857Y4940620D02*
X103157857Y5940620D01*
X103538809Y5940620D01*
X103634047Y5893000D01*
X103681666Y5845381D01*
X103729285Y5750143D01*
X103729285Y5607286D01*
X103681666Y5512048D01*
X103634047Y5464429D01*
X103538809Y5416810D01*
X103157857Y5416810D01*
X104681666Y4940620D02*
X104110238Y4940620D01*
X104395952Y4940620D02*
X104395952Y5940620D01*
X104300714Y5797762D01*
X104205476Y5702524D01*
X104110238Y5654905D01*
%TO.C,C5*%
X79997142Y29263334D02*
X80044761Y29215715D01*
X80092380Y29072858D01*
X80092380Y28977620D01*
X80044761Y28834762D01*
X79949523Y28739524D01*
X79854285Y28691905D01*
X79663809Y28644286D01*
X79520952Y28644286D01*
X79330476Y28691905D01*
X79235238Y28739524D01*
X79140000Y28834762D01*
X79092380Y28977620D01*
X79092380Y29072858D01*
X79140000Y29215715D01*
X79187619Y29263334D01*
X79092380Y30168096D02*
X79092380Y29691905D01*
X79568571Y29644286D01*
X79520952Y29691905D01*
X79473333Y29787143D01*
X79473333Y30025239D01*
X79520952Y30120477D01*
X79568571Y30168096D01*
X79663809Y30215715D01*
X79901904Y30215715D01*
X79997142Y30168096D01*
X80044761Y30120477D01*
X80092380Y30025239D01*
X80092380Y29787143D01*
X80044761Y29691905D01*
X79997142Y29644286D01*
%TO.C,U6*%
X42178380Y42638096D02*
X42987904Y42638096D01*
X43083142Y42685715D01*
X43130761Y42733334D01*
X43178380Y42828572D01*
X43178380Y43019048D01*
X43130761Y43114286D01*
X43083142Y43161905D01*
X42987904Y43209524D01*
X42178380Y43209524D01*
X42178380Y44114286D02*
X42178380Y43923810D01*
X42226000Y43828572D01*
X42273619Y43780953D01*
X42416476Y43685715D01*
X42606952Y43638096D01*
X42987904Y43638096D01*
X43083142Y43685715D01*
X43130761Y43733334D01*
X43178380Y43828572D01*
X43178380Y44019048D01*
X43130761Y44114286D01*
X43083142Y44161905D01*
X42987904Y44209524D01*
X42749809Y44209524D01*
X42654571Y44161905D01*
X42606952Y44114286D01*
X42559333Y44019048D01*
X42559333Y43828572D01*
X42606952Y43733334D01*
X42654571Y43685715D01*
X42749809Y43638096D01*
%TO.C,H2*%
X134238095Y88747620D02*
X134238095Y89747620D01*
X134238095Y89271429D02*
X134809523Y89271429D01*
X134809523Y88747620D02*
X134809523Y89747620D01*
X135238095Y89652381D02*
X135285714Y89700000D01*
X135380952Y89747620D01*
X135619047Y89747620D01*
X135714285Y89700000D01*
X135761904Y89652381D01*
X135809523Y89557143D01*
X135809523Y89461905D01*
X135761904Y89319048D01*
X135190476Y88747620D01*
X135809523Y88747620D01*
%TO.C,H3*%
X4238095Y8747620D02*
X4238095Y9747620D01*
X4238095Y9271429D02*
X4809523Y9271429D01*
X4809523Y8747620D02*
X4809523Y9747620D01*
X5190476Y9747620D02*
X5809523Y9747620D01*
X5476190Y9366667D01*
X5619047Y9366667D01*
X5714285Y9319048D01*
X5761904Y9271429D01*
X5809523Y9176191D01*
X5809523Y8938096D01*
X5761904Y8842858D01*
X5714285Y8795239D01*
X5619047Y8747620D01*
X5333333Y8747620D01*
X5238095Y8795239D01*
X5190476Y8842858D01*
%TO.C,TP3*%
X115588095Y32771620D02*
X116159523Y32771620D01*
X115873809Y31771620D02*
X115873809Y32771620D01*
X116492857Y31771620D02*
X116492857Y32771620D01*
X116873809Y32771620D01*
X116969047Y32724000D01*
X117016666Y32676381D01*
X117064285Y32581143D01*
X117064285Y32438286D01*
X117016666Y32343048D01*
X116969047Y32295429D01*
X116873809Y32247810D01*
X116492857Y32247810D01*
X117397619Y32771620D02*
X118016666Y32771620D01*
X117683333Y32390667D01*
X117826190Y32390667D01*
X117921428Y32343048D01*
X117969047Y32295429D01*
X118016666Y32200191D01*
X118016666Y31962096D01*
X117969047Y31866858D01*
X117921428Y31819239D01*
X117826190Y31771620D01*
X117540476Y31771620D01*
X117445238Y31819239D01*
X117397619Y31866858D01*
%TO.C,R13*%
X42499380Y66633143D02*
X42023190Y66299810D01*
X42499380Y66061715D02*
X41499380Y66061715D01*
X41499380Y66442667D01*
X41547000Y66537905D01*
X41594619Y66585524D01*
X41689857Y66633143D01*
X41832714Y66633143D01*
X41927952Y66585524D01*
X41975571Y66537905D01*
X42023190Y66442667D01*
X42023190Y66061715D01*
X42499380Y67585524D02*
X42499380Y67014096D01*
X42499380Y67299810D02*
X41499380Y67299810D01*
X41642238Y67204572D01*
X41737476Y67109334D01*
X41785095Y67014096D01*
X41499380Y67918858D02*
X41499380Y68537905D01*
X41880333Y68204572D01*
X41880333Y68347429D01*
X41927952Y68442667D01*
X41975571Y68490286D01*
X42070809Y68537905D01*
X42308904Y68537905D01*
X42404142Y68490286D01*
X42451761Y68442667D01*
X42499380Y68347429D01*
X42499380Y68061715D01*
X42451761Y67966477D01*
X42404142Y67918858D01*
%TO.C,H1*%
X4238095Y88747620D02*
X4238095Y89747620D01*
X4238095Y89271429D02*
X4809523Y89271429D01*
X4809523Y88747620D02*
X4809523Y89747620D01*
X5809523Y88747620D02*
X5238095Y88747620D01*
X5523809Y88747620D02*
X5523809Y89747620D01*
X5428571Y89604762D01*
X5333333Y89509524D01*
X5238095Y89461905D01*
%TO.C,DS1*%
X51145714Y87515120D02*
X51145714Y88515120D01*
X51383809Y88515120D01*
X51526666Y88467500D01*
X51621904Y88372262D01*
X51669523Y88277024D01*
X51717142Y88086548D01*
X51717142Y87943691D01*
X51669523Y87753215D01*
X51621904Y87657977D01*
X51526666Y87562739D01*
X51383809Y87515120D01*
X51145714Y87515120D01*
X52098095Y87562739D02*
X52240952Y87515120D01*
X52479047Y87515120D01*
X52574285Y87562739D01*
X52621904Y87610358D01*
X52669523Y87705596D01*
X52669523Y87800834D01*
X52621904Y87896072D01*
X52574285Y87943691D01*
X52479047Y87991310D01*
X52288571Y88038929D01*
X52193333Y88086548D01*
X52145714Y88134167D01*
X52098095Y88229405D01*
X52098095Y88324643D01*
X52145714Y88419881D01*
X52193333Y88467500D01*
X52288571Y88515120D01*
X52526666Y88515120D01*
X52669523Y88467500D01*
X53621904Y87515120D02*
X53050476Y87515120D01*
X53336190Y87515120D02*
X53336190Y88515120D01*
X53240952Y88372262D01*
X53145714Y88277024D01*
X53050476Y88229405D01*
%TO.C,R2*%
X116429333Y42312620D02*
X116096000Y42788810D01*
X115857904Y42312620D02*
X115857904Y43312620D01*
X116238857Y43312620D01*
X116334095Y43265000D01*
X116381714Y43217381D01*
X116429333Y43122143D01*
X116429333Y42979286D01*
X116381714Y42884048D01*
X116334095Y42836429D01*
X116238857Y42788810D01*
X115857904Y42788810D01*
X116810285Y43217381D02*
X116857904Y43265000D01*
X116953142Y43312620D01*
X117191238Y43312620D01*
X117286476Y43265000D01*
X117334095Y43217381D01*
X117381714Y43122143D01*
X117381714Y43026905D01*
X117334095Y42884048D01*
X116762666Y42312620D01*
X117381714Y42312620D01*
%TO.C,SW1*%
X122496666Y47401239D02*
X122639523Y47353620D01*
X122877619Y47353620D01*
X122972857Y47401239D01*
X123020476Y47448858D01*
X123068095Y47544096D01*
X123068095Y47639334D01*
X123020476Y47734572D01*
X122972857Y47782191D01*
X122877619Y47829810D01*
X122687142Y47877429D01*
X122591904Y47925048D01*
X122544285Y47972667D01*
X122496666Y48067905D01*
X122496666Y48163143D01*
X122544285Y48258381D01*
X122591904Y48306000D01*
X122687142Y48353620D01*
X122925238Y48353620D01*
X123068095Y48306000D01*
X123401428Y48353620D02*
X123639523Y47353620D01*
X123830000Y48067905D01*
X124020476Y47353620D01*
X124258571Y48353620D01*
X125163333Y47353620D02*
X124591904Y47353620D01*
X124877619Y47353620D02*
X124877619Y48353620D01*
X124782380Y48210762D01*
X124687142Y48115524D01*
X124591904Y48067905D01*
%TO.C,U4*%
X25580380Y59910096D02*
X26389904Y59910096D01*
X26485142Y59957715D01*
X26532761Y60005334D01*
X26580380Y60100572D01*
X26580380Y60291048D01*
X26532761Y60386286D01*
X26485142Y60433905D01*
X26389904Y60481524D01*
X25580380Y60481524D01*
X25913714Y61386286D02*
X26580380Y61386286D01*
X25532761Y61148191D02*
X26247047Y60910096D01*
X26247047Y61529143D01*
%TO.C,RV1*%
X40547761Y86046620D02*
X40214428Y86522810D01*
X39976333Y86046620D02*
X39976333Y87046620D01*
X40357285Y87046620D01*
X40452523Y86999000D01*
X40500142Y86951381D01*
X40547761Y86856143D01*
X40547761Y86713286D01*
X40500142Y86618048D01*
X40452523Y86570429D01*
X40357285Y86522810D01*
X39976333Y86522810D01*
X40833476Y87046620D02*
X41166809Y86046620D01*
X41500142Y87046620D01*
X42357285Y86046620D02*
X41785857Y86046620D01*
X42071571Y86046620D02*
X42071571Y87046620D01*
X41976333Y86903762D01*
X41881095Y86808524D01*
X41785857Y86760905D01*
%TO.C,TP4*%
X23767095Y84841620D02*
X24338523Y84841620D01*
X24052809Y83841620D02*
X24052809Y84841620D01*
X24671857Y83841620D02*
X24671857Y84841620D01*
X25052809Y84841620D01*
X25148047Y84794000D01*
X25195666Y84746381D01*
X25243285Y84651143D01*
X25243285Y84508286D01*
X25195666Y84413048D01*
X25148047Y84365429D01*
X25052809Y84317810D01*
X24671857Y84317810D01*
X26100428Y84508286D02*
X26100428Y83841620D01*
X25862333Y84889239D02*
X25624238Y84174953D01*
X26243285Y84174953D01*
%TO.C,C2*%
X129017142Y12499334D02*
X129064761Y12451715D01*
X129112380Y12308858D01*
X129112380Y12213620D01*
X129064761Y12070762D01*
X128969523Y11975524D01*
X128874285Y11927905D01*
X128683809Y11880286D01*
X128540952Y11880286D01*
X128350476Y11927905D01*
X128255238Y11975524D01*
X128160000Y12070762D01*
X128112380Y12213620D01*
X128112380Y12308858D01*
X128160000Y12451715D01*
X128207619Y12499334D01*
X128207619Y12880286D02*
X128160000Y12927905D01*
X128112380Y13023143D01*
X128112380Y13261239D01*
X128160000Y13356477D01*
X128207619Y13404096D01*
X128302857Y13451715D01*
X128398095Y13451715D01*
X128540952Y13404096D01*
X129112380Y12832667D01*
X129112380Y13451715D01*
%TO.C,U2*%
X92720095Y46106620D02*
X92720095Y45297096D01*
X92767714Y45201858D01*
X92815333Y45154239D01*
X92910571Y45106620D01*
X93101047Y45106620D01*
X93196285Y45154239D01*
X93243904Y45201858D01*
X93291523Y45297096D01*
X93291523Y46106620D01*
X93720095Y46011381D02*
X93767714Y46059000D01*
X93862952Y46106620D01*
X94101047Y46106620D01*
X94196285Y46059000D01*
X94243904Y46011381D01*
X94291523Y45916143D01*
X94291523Y45820905D01*
X94243904Y45678048D01*
X93672476Y45106620D01*
X94291523Y45106620D01*
%TO.C,U3*%
X104658095Y17027620D02*
X104658095Y16218096D01*
X104705714Y16122858D01*
X104753333Y16075239D01*
X104848571Y16027620D01*
X105039047Y16027620D01*
X105134285Y16075239D01*
X105181904Y16122858D01*
X105229523Y16218096D01*
X105229523Y17027620D01*
X105610476Y17027620D02*
X106229523Y17027620D01*
X105896190Y16646667D01*
X106039047Y16646667D01*
X106134285Y16599048D01*
X106181904Y16551429D01*
X106229523Y16456191D01*
X106229523Y16218096D01*
X106181904Y16122858D01*
X106134285Y16075239D01*
X106039047Y16027620D01*
X105753333Y16027620D01*
X105658095Y16075239D01*
X105610476Y16122858D01*
%TO.C,R3*%
X112746333Y37486620D02*
X112413000Y37962810D01*
X112174904Y37486620D02*
X112174904Y38486620D01*
X112555857Y38486620D01*
X112651095Y38439000D01*
X112698714Y38391381D01*
X112746333Y38296143D01*
X112746333Y38153286D01*
X112698714Y38058048D01*
X112651095Y38010429D01*
X112555857Y37962810D01*
X112174904Y37962810D01*
X113079666Y38486620D02*
X113698714Y38486620D01*
X113365380Y38105667D01*
X113508238Y38105667D01*
X113603476Y38058048D01*
X113651095Y38010429D01*
X113698714Y37915191D01*
X113698714Y37677096D01*
X113651095Y37581858D01*
X113603476Y37534239D01*
X113508238Y37486620D01*
X113222523Y37486620D01*
X113127285Y37534239D01*
X113079666Y37581858D01*
%TO.C,D1*%
X61501904Y32833620D02*
X61501904Y33833620D01*
X61740000Y33833620D01*
X61882857Y33786000D01*
X61978095Y33690762D01*
X62025714Y33595524D01*
X62073333Y33405048D01*
X62073333Y33262191D01*
X62025714Y33071715D01*
X61978095Y32976477D01*
X61882857Y32881239D01*
X61740000Y32833620D01*
X61501904Y32833620D01*
X63025714Y32833620D02*
X62454285Y32833620D01*
X62740000Y32833620D02*
X62740000Y33833620D01*
X62644761Y33690762D01*
X62549523Y33595524D01*
X62454285Y33547905D01*
X52525714Y28833620D02*
X51954285Y28833620D01*
X52240000Y28833620D02*
X52240000Y29833620D01*
X52144761Y29690762D01*
X52049523Y29595524D01*
X51954285Y29547905D01*
X72049523Y10833620D02*
X72240000Y10833620D01*
X72335238Y10881239D01*
X72382857Y10928858D01*
X72478095Y11071715D01*
X72525714Y11262191D01*
X72525714Y11643143D01*
X72478095Y11738381D01*
X72430476Y11786000D01*
X72335238Y11833620D01*
X72144761Y11833620D01*
X72049523Y11786000D01*
X72001904Y11738381D01*
X71954285Y11643143D01*
X71954285Y11405048D01*
X72001904Y11309810D01*
X72049523Y11262191D01*
X72144761Y11214572D01*
X72335238Y11214572D01*
X72430476Y11262191D01*
X72478095Y11309810D01*
X72525714Y11405048D01*
X52144761Y11405048D02*
X52049523Y11452667D01*
X52001904Y11500286D01*
X51954285Y11595524D01*
X51954285Y11643143D01*
X52001904Y11738381D01*
X52049523Y11786000D01*
X52144761Y11833620D01*
X52335238Y11833620D01*
X52430476Y11786000D01*
X52478095Y11738381D01*
X52525714Y11643143D01*
X52525714Y11595524D01*
X52478095Y11500286D01*
X52430476Y11452667D01*
X52335238Y11405048D01*
X52144761Y11405048D01*
X52049523Y11357429D01*
X52001904Y11309810D01*
X51954285Y11214572D01*
X51954285Y11024096D01*
X52001904Y10928858D01*
X52049523Y10881239D01*
X52144761Y10833620D01*
X52335238Y10833620D01*
X52430476Y10881239D01*
X52478095Y10928858D01*
X52525714Y11024096D01*
X52525714Y11214572D01*
X52478095Y11309810D01*
X52430476Y11357429D01*
X52335238Y11405048D01*
X72049523Y28833620D02*
X71478095Y28833620D01*
X71763809Y28833620D02*
X71763809Y29833620D01*
X71668571Y29690762D01*
X71573333Y29595524D01*
X71478095Y29547905D01*
X72906666Y29833620D02*
X72716190Y29833620D01*
X72620952Y29786000D01*
X72573333Y29738381D01*
X72478095Y29595524D01*
X72430476Y29405048D01*
X72430476Y29024096D01*
X72478095Y28928858D01*
X72525714Y28881239D01*
X72620952Y28833620D01*
X72811428Y28833620D01*
X72906666Y28881239D01*
X72954285Y28928858D01*
X73001904Y29024096D01*
X73001904Y29262191D01*
X72954285Y29357429D01*
X72906666Y29405048D01*
X72811428Y29452667D01*
X72620952Y29452667D01*
X72525714Y29405048D01*
X72478095Y29357429D01*
X72430476Y29262191D01*
D11*
%TO.C,Y2*%
X29168000Y52346000D02*
X30268000Y52346000D01*
X29168000Y54246000D02*
X30268000Y54246000D01*
X27768000Y54196000D02*
X27768000Y52396000D01*
%TO.C,U5*%
X76783000Y40740000D02*
X76783000Y42390000D01*
X46183000Y40740000D02*
X76783000Y40740000D01*
X76783000Y44390000D02*
X76783000Y46040000D01*
X76783000Y46040000D02*
X46183000Y46040000D01*
X46183000Y46040000D02*
X46183000Y40740000D01*
X76783000Y44390000D02*
G75*
G03*
X76783000Y42390000I0J-1000000D01*
G01*
D10*
%TO.C,D2*%
X41618000Y7286000D02*
X41618000Y5286000D01*
X11618000Y5286000D02*
X11618000Y7286000D01*
X40868000Y29286000D02*
X40618000Y28536000D01*
X12618000Y21286000D02*
X12618000Y19286000D01*
X41618000Y5286000D02*
X39618000Y5286000D01*
X13618000Y5286000D02*
X11618000Y5286000D01*
X41618000Y35286000D02*
X41618000Y33286000D01*
X11618000Y33286000D02*
X11618000Y35286000D01*
X37618000Y32536000D02*
X36868000Y32286000D01*
X40618000Y31286000D02*
X40618000Y29286000D01*
X40368000Y29286000D02*
X40868000Y29286000D01*
X11618000Y35286000D02*
X13618000Y35286000D01*
X37618000Y32036000D02*
X37618000Y32536000D01*
X39618000Y32286000D02*
X37618000Y32286000D01*
X11618000Y21286000D02*
X11618000Y23286000D01*
X11618000Y19286000D02*
X11618000Y17286000D01*
X11618000Y21286000D02*
X12618000Y21286000D01*
X39618000Y35286000D02*
X41618000Y35286000D01*
X40618000Y28536000D02*
X40368000Y29286000D01*
X36868000Y32286000D02*
X37618000Y32036000D01*
X12618000Y19286000D02*
X11618000Y19286000D01*
X15618000Y29176000D02*
G75*
G03*
X15618000Y29176000I-1000000J0D01*
G01*
D11*
%TO.C,TP2*%
X117415000Y46321000D02*
G75*
G03*
X117415000Y46321000I-1200000J0D01*
G01*
%TO.C,Y1*%
X84348000Y14640000D02*
X84348000Y27240000D01*
X79248000Y27240000D02*
X79248000Y14640000D01*
X84348000Y27240000D02*
X79248000Y27240000D01*
%TO.C,TP1*%
X104715000Y3395000D02*
G75*
G03*
X104715000Y3395000I-1200000J0D01*
G01*
%TO.C,U6*%
X41726000Y40750000D02*
X41726000Y42400000D01*
X41726000Y44400000D02*
X41726000Y46050000D01*
X41726000Y46050000D02*
X11126000Y46050000D01*
X11126000Y40750000D02*
X41726000Y40750000D01*
X11126000Y46050000D02*
X11126000Y40750000D01*
X41726000Y44400000D02*
G75*
G03*
X41726000Y42400000I0J-1000000D01*
G01*
%TO.C,TP3*%
X119066000Y34383000D02*
G75*
G03*
X119066000Y34383000I-1200000J0D01*
G01*
%TO.C,DS1*%
X53180000Y56157500D02*
X53180000Y81157500D01*
X130320000Y50517500D02*
X130320000Y86797500D01*
X57880280Y61658180D02*
X57880280Y75657500D01*
X121880660Y61157500D02*
X58380000Y61157500D01*
X50050000Y86797500D02*
X50840000Y86797500D01*
X126180000Y81157500D02*
X126180000Y56157500D01*
X56680000Y87157500D02*
X59680000Y87157500D01*
X130320000Y86797500D02*
X50840000Y86797500D01*
X53180000Y81157500D02*
X126180000Y81157500D01*
X58380000Y76157500D02*
X121880000Y76157500D01*
X126180000Y56157500D02*
X53180000Y56157500D01*
X122380000Y75657500D02*
X122380000Y61657500D01*
X50040000Y86797500D02*
X50040000Y50517500D01*
X50040000Y50517500D02*
X130320000Y50517500D01*
X58380660Y76159040D02*
G75*
G03*
X57880280Y75658660I0J-500380D01*
G01*
X122380000Y75657500D02*
G75*
G03*
X121880000Y76157500I-500000J0D01*
G01*
X57880280Y61658180D02*
G75*
G03*
X58380660Y61157800I500380J0D01*
G01*
X121880660Y61157860D02*
G75*
G03*
X122381040Y61658180I40J500340D01*
G01*
%TO.C,SW1*%
X134630000Y41906000D02*
X134630000Y39306000D01*
X130530000Y46506000D02*
X134630000Y46506000D01*
X121330000Y44706000D02*
X121030000Y44406000D01*
X121030000Y44406000D02*
X120730000Y44706000D01*
X134630000Y37106000D02*
X134630000Y34706000D01*
X134630000Y46506000D02*
X134630000Y44106000D01*
X126530000Y34706000D02*
X122430000Y34706000D01*
X120730000Y44706000D02*
X121330000Y44706000D01*
X122430000Y46506000D02*
X122430000Y34706000D01*
X128530000Y41106000D02*
X128530000Y40106000D01*
X126530000Y46506000D02*
X122430000Y46506000D01*
X134630000Y34706000D02*
X130530000Y34706000D01*
X128030000Y40606000D02*
X129030000Y40606000D01*
X131530000Y40606000D02*
G75*
G03*
X131530000Y40606000I-3000000J0D01*
G01*
%TO.C,U4*%
X37408000Y63322000D02*
X27128000Y63322000D01*
X27128000Y58022000D02*
X37408000Y58022000D01*
X27128000Y59672000D02*
X27128000Y58022000D01*
X37408000Y58022000D02*
X37408000Y63322000D01*
X27128000Y63322000D02*
X27128000Y61672000D01*
X27128000Y59672000D02*
G75*
G03*
X27128000Y61672000I0J1000000D01*
G01*
%TO.C,RV1*%
X36258000Y75599000D02*
X46028000Y75599000D01*
X36258000Y85369000D02*
X36258000Y75599000D01*
X46028000Y85369000D02*
X46028000Y75599000D01*
X36258000Y85369000D02*
X46028000Y85369000D01*
%TO.C,TP4*%
X23435000Y83532000D02*
G75*
G03*
X23435000Y83532000I-1200000J0D01*
G01*
%TO.C,U2*%
X96904000Y43958000D02*
X95254000Y43958000D01*
X91604000Y8278000D02*
X96904000Y8278000D01*
X96904000Y8278000D02*
X96904000Y43958000D01*
X91604000Y43958000D02*
X91604000Y8278000D01*
X93254000Y43958000D02*
X91604000Y43958000D01*
X93254000Y43958000D02*
G75*
G03*
X95254000Y43958000I1000000J0D01*
G01*
%TO.C,U3*%
X103620000Y11070000D02*
X107220000Y11070000D01*
X107258478Y11081522D02*
G75*
G03*
X105420000Y15520000I-1838478J1838478D01*
G01*
X105420000Y15520001D02*
G75*
G03*
X103581522Y11081522I0J-2600001D01*
G01*
D10*
%TO.C,D1*%
X75240000Y32286000D02*
X73240000Y32286000D01*
X48240000Y21286000D02*
X48240000Y19286000D01*
X47240000Y19286000D02*
X47240000Y17286000D01*
X76490000Y29286000D02*
X76240000Y28536000D01*
X72490000Y32286000D02*
X73240000Y32036000D01*
X49240000Y5286000D02*
X47240000Y5286000D01*
X73240000Y32036000D02*
X73240000Y32536000D01*
X48240000Y19286000D02*
X47240000Y19286000D01*
X77240000Y7286000D02*
X77240000Y5286000D01*
X75240000Y35286000D02*
X77240000Y35286000D01*
X76240000Y31286000D02*
X76240000Y29286000D01*
X76240000Y28536000D02*
X75990000Y29286000D01*
X47240000Y35286000D02*
X49240000Y35286000D01*
X77240000Y5286000D02*
X75240000Y5286000D01*
X75990000Y29286000D02*
X76490000Y29286000D01*
X47240000Y5286000D02*
X47240000Y7286000D01*
X47240000Y21286000D02*
X47240000Y23286000D01*
X77240000Y35286000D02*
X77240000Y33286000D01*
X47240000Y21286000D02*
X48240000Y21286000D01*
X47240000Y33286000D02*
X47240000Y35286000D01*
X73240000Y32536000D02*
X72490000Y32286000D01*
X51240000Y29176000D02*
G75*
G03*
X51240000Y29176000I-1000000J0D01*
G01*
%TD*%
%LPC*%
D12*
%TO.C,Y2*%
X28468000Y53296000D03*
X30968000Y53296000D03*
%TD*%
D13*
%TO.C,R1*%
X85774000Y29557000D03*
X87474000Y29557000D03*
%TD*%
D14*
%TO.C,H4*%
X135000000Y5000000D03*
%TD*%
D15*
%TO.C,U5*%
X75453000Y47200000D03*
D16*
X72913000Y47200000D03*
X70373000Y47200000D03*
X67833000Y47200000D03*
X65293000Y47200000D03*
X62753000Y47200000D03*
X60213000Y47200000D03*
X57673000Y47200000D03*
X55133000Y47200000D03*
X52593000Y47200000D03*
X50053000Y47200000D03*
X47513000Y47200000D03*
X47513000Y39580000D03*
X50053000Y39580000D03*
X52593000Y39580000D03*
X55133000Y39580000D03*
X57673000Y39580000D03*
X60213000Y39580000D03*
X62753000Y39580000D03*
X65293000Y39580000D03*
X67833000Y39580000D03*
X70373000Y39580000D03*
X72913000Y39580000D03*
X75453000Y39580000D03*
%TD*%
D17*
%TO.C,C6*%
X81798000Y12500000D03*
X81798000Y10800000D03*
%TD*%
D18*
%TO.C,D2*%
X14618000Y29176000D03*
X14618000Y26636000D03*
X14618000Y24096000D03*
X14618000Y21556000D03*
X14618000Y19016000D03*
X14618000Y16476000D03*
X14618000Y13936000D03*
X14618000Y11396000D03*
X38618000Y11396000D03*
X38618000Y13936000D03*
X38618000Y16476000D03*
X38618000Y19016000D03*
X38618000Y21556000D03*
X38618000Y24096000D03*
X38618000Y26636000D03*
X38618000Y29176000D03*
%TD*%
D19*
%TO.C,TP2*%
X116215000Y46321000D03*
%TD*%
D17*
%TO.C,C3*%
X101102000Y9706000D03*
X101102000Y8006000D03*
%TD*%
D13*
%TO.C,C4*%
X92251000Y3903000D03*
X93951000Y3903000D03*
%TD*%
D17*
%TO.C,R12*%
X38745000Y52368000D03*
X38745000Y54068000D03*
%TD*%
D20*
%TO.C,Y1*%
X81798000Y24790000D03*
X81798000Y16290000D03*
%TD*%
D19*
%TO.C,TP1*%
X103515000Y3395000D03*
%TD*%
D17*
%TO.C,C5*%
X81290000Y28580000D03*
X81290000Y30280000D03*
%TD*%
D15*
%TO.C,U6*%
X40396000Y47210000D03*
D16*
X37856000Y47210000D03*
X35316000Y47210000D03*
X32776000Y47210000D03*
X30236000Y47210000D03*
X27696000Y47210000D03*
X25156000Y47210000D03*
X22616000Y47210000D03*
X20076000Y47210000D03*
X17536000Y47210000D03*
X14996000Y47210000D03*
X12456000Y47210000D03*
X12456000Y39590000D03*
X14996000Y39590000D03*
X17536000Y39590000D03*
X20076000Y39590000D03*
X22616000Y39590000D03*
X25156000Y39590000D03*
X27696000Y39590000D03*
X30236000Y39590000D03*
X32776000Y39590000D03*
X35316000Y39590000D03*
X37856000Y39590000D03*
X40396000Y39590000D03*
%TD*%
D14*
%TO.C,H2*%
X135000000Y85000000D03*
%TD*%
%TO.C,H3*%
X5000000Y5000000D03*
%TD*%
D19*
%TO.C,TP3*%
X117866000Y34383000D03*
%TD*%
D17*
%TO.C,R13*%
X40269000Y68165000D03*
X40269000Y66465000D03*
%TD*%
D14*
%TO.C,H1*%
X5000000Y85000000D03*
%TD*%
D21*
%TO.C,DS1*%
X127680000Y84157500D03*
X52680900Y53156800D03*
X52680900Y84157500D03*
X127679480Y53156800D03*
D22*
X58180000Y84157500D03*
D23*
X60720000Y84157500D03*
X63260000Y84157500D03*
X65800000Y84157500D03*
X68340000Y84157500D03*
X70880000Y84157500D03*
X73420000Y84157500D03*
X75960000Y84157500D03*
X78500000Y84157500D03*
X81040000Y84157500D03*
X83580000Y84157500D03*
X86120000Y84157500D03*
X88660000Y84157500D03*
X91200000Y84157500D03*
X93740000Y84157500D03*
X96280000Y84157500D03*
%TD*%
D13*
%TO.C,R2*%
X115531000Y38066000D03*
X117231000Y38066000D03*
%TD*%
D24*
%TO.C,SW1*%
X121030000Y43106000D03*
D19*
X121030000Y38106000D03*
X121030000Y40606000D03*
D14*
X128530000Y46206000D03*
X128530000Y35006000D03*
D19*
X135530000Y38106000D03*
X135530000Y43106000D03*
%TD*%
D15*
%TO.C,U4*%
X28458000Y56862000D03*
D16*
X30998000Y56862000D03*
X33538000Y56862000D03*
X36078000Y56862000D03*
X36078000Y64482000D03*
X33538000Y64482000D03*
X30998000Y64482000D03*
X28458000Y64482000D03*
%TD*%
D25*
%TO.C,RV1*%
X41158000Y77944000D03*
X43698000Y80484000D03*
X41158000Y83024000D03*
%TD*%
D19*
%TO.C,TP4*%
X22235000Y83532000D03*
%TD*%
D17*
%TO.C,C2*%
X127010000Y13516000D03*
X127010000Y11816000D03*
%TD*%
D15*
%TO.C,U2*%
X90444000Y42628000D03*
D16*
X90444000Y40088000D03*
X90444000Y37548000D03*
X90444000Y35008000D03*
X90444000Y32468000D03*
X90444000Y29928000D03*
X90444000Y27388000D03*
X90444000Y24848000D03*
X90444000Y22308000D03*
X90444000Y19768000D03*
X90444000Y17228000D03*
X90444000Y14688000D03*
X90444000Y12148000D03*
X90444000Y9608000D03*
X98064000Y9608000D03*
X98064000Y12148000D03*
X98064000Y14688000D03*
X98064000Y17228000D03*
X98064000Y19768000D03*
X98064000Y22308000D03*
X98064000Y24848000D03*
X98064000Y27388000D03*
X98064000Y29928000D03*
X98064000Y32468000D03*
X98064000Y35008000D03*
X98064000Y37548000D03*
X98064000Y40088000D03*
X98064000Y42628000D03*
%TD*%
D26*
%TO.C,U3*%
X104150000Y12920000D03*
D27*
X105420000Y12920000D03*
X106690000Y12920000D03*
%TD*%
D13*
%TO.C,R3*%
X117954000Y41114000D03*
X116254000Y41114000D03*
%TD*%
D18*
%TO.C,D1*%
X50240000Y29176000D03*
X50240000Y26636000D03*
X50240000Y24096000D03*
X50240000Y21556000D03*
X50240000Y19016000D03*
X50240000Y16476000D03*
X50240000Y13936000D03*
X50240000Y11396000D03*
X74240000Y11396000D03*
X74240000Y13936000D03*
X74240000Y16476000D03*
X74240000Y19016000D03*
X74240000Y21556000D03*
X74240000Y24096000D03*
X74240000Y26636000D03*
X74240000Y29176000D03*
%TD*%
D28*
%TO.C,J1*%
X124287000Y15460000D03*
D29*
X121987000Y10160000D03*
X118287000Y12660000D03*
%TD*%
D30*
%TO.C,BT1*%
X13980017Y85493686D03*
D21*
X13980017Y65003686D03*
%TD*%
D31*
%TO.C,J2*%
X106690000Y43273000D03*
D32*
X106690000Y40733000D03*
X106690000Y38193000D03*
X106690000Y35653000D03*
X106690000Y33113000D03*
X106690000Y30573000D03*
%TD*%
M02*
